<svg width="1920" height="1080" viewBox="0 0 1920 1080" fill="none" xmlns="http://www.w3.org/2000/svg">
<g clip-path="url(#clip0)">
<rect width="1920" height="1080" fill="black"/>
<path d="M1417.65 926.701H1419.85V924.505H1417.65V926.701ZM1395.62 926.701V924.505H1393.42V926.701H1395.62ZM1519 926.701H1521.2V924.505H1519V926.701ZM1496.97 926.701V924.505H1494.77V926.701H1496.97ZM1462.42 1028.05H1460.23V1030.24H1462.42V1028.05ZM1462.42 948.733H1464.62V946.538H1462.42V948.733ZM1440.39 948.733V946.538H1438.19V948.733H1440.39ZM1440.39 1028.05V1030.24H1442.58V1028.05H1440.39ZM1419.85 1016.77V926.701H1415.46V1016.77H1419.85ZM1417.65 924.505H1395.62V928.896H1417.65V924.505ZM1393.42 926.701V1016.77H1397.81V926.701H1393.42ZM1393.42 1016.77C1393.42 1036.33 1409.4 1052.1 1428.93 1052.1V1047.71C1411.8 1047.71 1397.81 1033.87 1397.81 1016.77H1393.42ZM1428.93 1052.1H1485.69V1047.71H1428.93V1052.1ZM1485.69 1052.1C1505.22 1052.1 1521.2 1036.33 1521.2 1016.77H1516.8C1516.8 1033.87 1502.82 1047.71 1485.69 1047.71V1052.1ZM1521.2 1016.77V926.701H1516.8V1016.77H1521.2ZM1519 924.505H1496.97V928.896H1519V924.505ZM1494.77 926.701V1016.77H1499.16V926.701H1494.77ZM1494.77 1016.77C1494.77 1021.73 1490.64 1025.85 1485.69 1025.85V1030.24C1493.07 1030.24 1499.16 1024.15 1499.16 1016.77H1494.77ZM1485.69 1025.85H1462.42V1030.24H1485.69V1025.85ZM1464.62 1028.05V948.733H1460.23V1028.05H1464.62ZM1462.42 946.538H1440.39V950.928H1462.42V946.538ZM1438.19 948.733V1028.05H1442.58V948.733H1438.19ZM1440.39 1025.85H1428.93V1030.24H1440.39V1025.85ZM1428.93 1025.85C1423.97 1025.85 1419.85 1021.73 1419.85 1016.77H1415.46C1415.46 1024.15 1421.55 1030.24 1428.93 1030.24V1025.85ZM1395.62 814.987H1393.42V816.329L1394.62 816.941L1395.62 814.987ZM1417.65 826.267L1416.65 828.221L1416.65 828.223L1417.65 826.267ZM1470.53 853.235L1471.53 855.191L1475.36 853.235L1471.53 851.279L1470.53 853.235ZM1417.65 880.203L1416.65 878.247L1416.65 878.249L1417.65 880.203ZM1395.62 891.483L1394.62 889.529L1393.42 890.141V891.483H1395.62ZM1395.62 916.16H1393.42V919.75L1396.62 918.114L1395.62 916.16ZM1417.65 904.879L1416.65 902.923L1416.65 902.925L1417.65 904.879ZM1519 853.235L1520 855.191L1523.84 853.235L1520 851.279L1519 853.235ZM1417.65 801.591L1416.65 803.545L1416.65 803.547L1417.65 801.591ZM1395.62 790.31L1396.62 788.356L1393.42 786.72V790.31H1395.62ZM1394.62 816.941L1416.65 828.221L1418.65 824.313L1396.62 813.033L1394.62 816.941ZM1416.65 828.223L1469.53 855.191L1471.53 851.279L1418.65 824.312L1416.65 828.223ZM1469.53 851.279L1416.65 878.247L1418.65 882.158L1471.53 855.191L1469.53 851.279ZM1416.65 878.249L1394.62 889.529L1396.62 893.437L1418.65 882.157L1416.65 878.249ZM1393.42 891.483V916.16H1397.81V891.483H1393.42ZM1396.62 918.114L1418.65 906.833L1416.65 902.925L1394.62 914.206L1396.62 918.114ZM1418.65 906.835L1520 855.191L1518 851.279L1416.65 902.923L1418.65 906.835ZM1520 851.279L1418.65 799.635L1416.65 803.547L1518 855.191L1520 851.279ZM1418.65 799.637L1396.62 788.356L1394.62 792.264L1416.65 803.545L1418.65 799.637ZM1393.42 790.31V814.987H1397.81V790.31H1393.42ZM1417.65 663.861H1419.85V661.666H1417.65V663.861ZM1395.62 663.861V661.666H1393.42V663.861H1395.62ZM1519 663.861H1521.2V661.666H1519V663.861ZM1496.97 663.861V661.666H1494.77V663.861H1496.97ZM1462.42 765.21H1460.23V767.405H1462.42V765.21ZM1462.42 685.893H1464.62V683.698H1462.42V685.893ZM1440.39 685.893V683.698H1438.19V685.893H1440.39ZM1440.39 765.21V767.405H1442.58V765.21H1440.39ZM1419.85 753.929V663.861H1415.46V753.929H1419.85ZM1417.65 661.666H1395.62V666.056H1417.65V661.666ZM1393.42 663.861V753.929H1397.81V663.861H1393.42ZM1393.42 753.929C1393.42 773.488 1409.4 789.261 1428.93 789.261V784.871C1411.8 784.871 1397.81 771.033 1397.81 753.929H1393.42ZM1428.93 789.261H1485.69V784.871H1428.93V789.261ZM1485.69 789.261C1505.22 789.261 1521.2 773.488 1521.2 753.929H1516.8C1516.8 771.033 1502.82 784.871 1485.69 784.871V789.261ZM1521.2 753.929V663.861H1516.8V753.929H1521.2ZM1519 661.666H1496.97V666.056H1519V661.666ZM1494.77 663.861V753.929H1499.16V663.861H1494.77ZM1494.77 753.929C1494.77 758.886 1490.64 763.015 1485.69 763.015V767.405C1493.07 767.405 1499.16 761.311 1499.16 753.929H1494.77ZM1485.69 763.015H1462.42V767.405H1485.69V763.015ZM1464.62 765.21V685.893H1460.23V765.21H1464.62ZM1462.42 683.698H1440.39V688.089H1462.42V683.698ZM1438.19 685.893V765.21H1442.58V685.893H1438.19ZM1440.39 763.015H1428.93V767.405H1440.39V763.015ZM1428.93 763.015C1423.97 763.015 1419.85 758.886 1419.85 753.929H1415.46C1415.46 761.311 1421.55 767.405 1428.93 767.405V763.015ZM1395.62 544.92L1393.42 544.903L1393.41 547.116H1395.62V544.92ZM1474.23 544.92L1475.97 546.261L1478.7 542.725H1474.23V544.92ZM1413.07 624.237L1411.33 622.897L1411.33 622.9L1413.07 624.237ZM1396.15 646.269L1394.41 644.932L1391.69 648.465H1396.15V646.269ZM1519.18 646.269V648.465H1521.37V646.269H1519.18ZM1519.18 624.237H1521.37V622.042H1519.18V624.237ZM1441.09 624.237L1439.35 622.897L1436.63 626.432H1441.09V624.237ZM1502.26 544.92L1503.99 546.261L1504 546.258L1502.26 544.92ZM1519.18 522.888L1520.92 524.225L1523.63 520.693H1519.18V522.888ZM1395.79 522.888V520.693H1393.62L1393.6 522.87L1395.79 522.888ZM1395.62 547.116H1474.23V542.725H1395.62V547.116ZM1472.49 543.58L1411.33 622.897L1414.81 625.578L1475.97 546.261L1472.49 543.58ZM1411.33 622.9L1394.41 644.932L1397.89 647.607L1414.81 625.574L1411.33 622.9ZM1396.15 648.465H1519.18V644.074H1396.15V648.465ZM1521.37 646.269V624.237H1516.98V646.269H1521.37ZM1519.18 622.042H1441.09V626.432H1519.18V622.042ZM1442.83 625.578L1503.99 546.261L1500.52 543.58L1439.35 622.897L1442.83 625.578ZM1504 546.258L1520.92 524.225L1517.44 521.551L1500.51 543.583L1504 546.258ZM1519.18 520.693H1395.79V525.083H1519.18V520.693ZM1393.6 522.87L1393.42 544.903L1397.81 544.938L1397.99 522.906L1393.6 522.87ZM1395.79 505.296H1393.6V507.492H1395.79V505.296ZM1417.83 505.296V507.492H1420.02V505.296H1417.83ZM1417.83 454.71V452.515H1415.63V454.71H1417.83ZM1519.18 454.71V456.905H1521.37V454.71H1519.18ZM1519.18 432.678H1521.37V430.482H1519.18V432.678ZM1417.83 432.678H1415.63V434.873H1417.83V432.678ZM1417.83 382.091H1420.02V379.896H1417.83V382.091ZM1395.79 382.091V379.896H1393.6V382.091H1395.79ZM1395.79 507.492H1417.83V503.101H1395.79V507.492ZM1420.02 505.296V454.71H1415.63V505.296H1420.02ZM1417.83 456.905H1519.18V452.515H1417.83V456.905ZM1521.37 454.71V432.678H1516.98V454.71H1521.37ZM1519.18 430.482H1417.83V434.873H1519.18V430.482ZM1420.02 432.678V382.091H1415.63V432.678H1420.02ZM1417.83 379.896H1395.79V384.286H1417.83V379.896ZM1393.6 382.091V505.296H1397.99V382.091H1393.6ZM1429.64 247.64L1431.83 247.622L1431.81 245.445H1429.64V247.64ZM1448.5 358.331L1447.32 356.479L1447.28 356.505L1447.24 356.532L1448.5 358.331ZM1453.78 354.1L1455.34 355.653L1455.35 355.641L1455.36 355.629L1453.78 354.1ZM1480.05 342.115V339.92H1477.85V342.115H1480.05ZM1480.05 364.147H1477.85V366.342H1480.05V364.147ZM1455.37 256.453L1453.98 254.752L1453.9 254.822L1453.82 254.901L1455.37 256.453ZM1453.78 257.863L1455.26 259.487L1455.3 259.452L1455.34 259.415L1453.78 257.863ZM1429.81 269.672V271.867H1432.03L1432.01 269.655L1429.81 269.672ZM1429.64 245.445H1428.93V249.835H1429.64V245.445ZM1428.93 245.445C1409.39 245.445 1393.42 261.409 1393.42 280.953H1397.81C1397.81 263.834 1411.81 249.835 1428.93 249.835V245.445ZM1393.42 280.953V331.01H1397.81V280.953H1393.42ZM1393.42 331.01C1393.42 350.569 1409.4 366.342 1428.93 366.342V361.952C1411.8 361.952 1397.81 348.114 1397.81 331.01H1393.42ZM1428.93 366.342H1429.64V361.952H1428.93V366.342ZM1429.64 366.342C1437.13 366.342 1444.09 364.093 1449.76 360.129L1447.24 356.532C1442.32 359.971 1436.24 361.952 1429.64 361.952V366.342ZM1449.67 360.183C1451.75 358.865 1453.63 357.355 1455.34 355.653L1452.23 352.548C1450.76 354.018 1449.12 355.329 1447.32 356.479L1449.67 360.183ZM1455.36 355.629C1461.56 349.24 1465.32 340.589 1465.32 331.01H1460.93C1460.93 339.41 1457.64 346.975 1452.21 352.571L1455.36 355.629ZM1465.32 331.01V286.593H1460.93V331.01H1465.32ZM1465.32 286.593C1465.32 278.434 1471.95 271.691 1480.05 271.691V267.301C1469.46 267.301 1460.93 276.069 1460.93 286.593H1465.32ZM1480.05 271.691C1488.15 271.691 1494.77 278.434 1494.77 286.593H1499.16C1499.16 276.069 1490.63 267.301 1480.05 267.301V271.691ZM1494.77 286.593V325.194H1499.16V286.593H1494.77ZM1494.77 325.194C1494.77 333.323 1488.18 339.92 1480.05 339.92V344.31C1490.6 344.31 1499.16 335.748 1499.16 325.194H1494.77ZM1477.85 342.115V364.147H1482.24V342.115H1477.85ZM1480.05 366.342C1502.76 366.342 1521.2 347.91 1521.2 325.194H1516.8C1516.8 345.485 1500.34 361.952 1480.05 361.952V366.342ZM1521.2 325.194V286.593H1516.8V325.194H1521.2ZM1521.2 286.593C1521.2 263.877 1502.76 245.445 1480.05 245.445V249.835C1500.34 249.835 1516.8 266.302 1516.8 286.593H1521.2ZM1480.05 245.445C1470.18 245.445 1461.05 248.984 1453.98 254.752L1456.76 258.154C1463.08 252.994 1471.23 249.835 1480.05 249.835V245.445ZM1453.82 254.901C1453.63 255.084 1453.44 255.244 1453.17 255.471C1452.92 255.685 1452.58 255.966 1452.23 256.311L1455.34 259.415C1455.52 259.231 1455.71 259.071 1455.98 258.844C1456.24 258.631 1456.58 258.35 1456.92 258.005L1453.82 254.901ZM1452.31 256.239C1444.11 263.687 1438.9 274.491 1438.9 286.593H1443.29C1443.29 275.781 1447.94 266.14 1455.26 259.487L1452.31 256.239ZM1438.9 286.593V331.01H1443.29V286.593H1438.9ZM1438.9 331.01C1438.9 335.967 1434.77 340.096 1429.81 340.096V344.486C1437.19 344.486 1443.29 338.392 1443.29 331.01H1438.9ZM1429.81 340.096H1429.11V344.486H1429.81V340.096ZM1429.11 340.096C1424.15 340.096 1420.02 335.967 1420.02 331.01H1415.63C1415.63 338.392 1421.73 344.486 1429.11 344.486V340.096ZM1420.02 331.01V280.953H1415.63V331.01H1420.02ZM1420.02 280.953C1420.02 275.996 1424.15 271.867 1429.11 271.867V267.477C1421.73 267.477 1415.63 273.571 1415.63 280.953H1420.02ZM1429.11 271.867H1429.81V267.477H1429.11V271.867ZM1432.01 269.655L1431.83 247.622L1427.44 247.657L1427.62 269.69L1432.01 269.655Z" fill="white" fill-opacity="0.06"/>
<path d="M1732.08 930.806H1734.28V928.61H1732.08V930.806ZM1710.05 930.806V928.61H1707.85V930.806H1710.05ZM1833.43 930.806H1835.63V928.61H1833.43V930.806ZM1811.4 930.806V928.61H1809.2V930.806H1811.4ZM1776.85 1032.15H1774.66V1034.35H1776.85V1032.15ZM1776.85 952.838H1779.05V950.643H1776.85V952.838ZM1754.82 952.838V950.643H1752.62V952.838H1754.82ZM1754.82 1032.15V1034.35H1757.01V1032.15H1754.82ZM1734.28 1020.87V930.806H1729.89V1020.87H1734.28ZM1732.08 928.61H1710.05V933.001H1732.08V928.61ZM1707.85 930.806V1020.87H1712.24V930.806H1707.85ZM1707.85 1020.87C1707.85 1040.43 1723.83 1056.21 1743.36 1056.21V1051.82C1726.23 1051.82 1712.24 1037.98 1712.24 1020.87H1707.85ZM1743.36 1056.21H1800.12V1051.82H1743.36V1056.21ZM1800.12 1056.21C1819.65 1056.21 1835.63 1040.43 1835.63 1020.87H1831.24C1831.24 1037.98 1817.25 1051.82 1800.12 1051.82V1056.21ZM1835.63 1020.87V930.806H1831.24V1020.87H1835.63ZM1833.43 928.61H1811.4V933.001H1833.43V928.61ZM1809.2 930.806V1020.87H1813.59V930.806H1809.2ZM1809.2 1020.87C1809.2 1025.83 1805.07 1029.96 1800.12 1029.96V1034.35C1807.5 1034.35 1813.59 1028.26 1813.59 1020.87H1809.2ZM1800.12 1029.96H1776.85V1034.35H1800.12V1029.96ZM1779.05 1032.15V952.838H1774.66V1032.15H1779.05ZM1776.85 950.643H1754.82V955.033H1776.85V950.643ZM1752.62 952.838V1032.15H1757.01V952.838H1752.62ZM1754.82 1029.96H1743.36V1034.35H1754.82V1029.96ZM1743.36 1029.96C1738.41 1029.96 1734.28 1025.83 1734.28 1020.87H1729.89C1729.89 1028.26 1735.98 1034.35 1743.36 1034.35V1029.96ZM1710.05 819.092H1707.85V820.434L1709.05 821.046L1710.05 819.092ZM1732.08 830.372L1731.08 832.326L1731.08 832.328L1732.08 830.372ZM1784.96 857.34L1785.96 859.295L1789.79 857.34L1785.96 855.384L1784.96 857.34ZM1732.08 884.308L1731.08 882.352L1731.08 882.354L1732.08 884.308ZM1710.05 895.588L1709.05 893.634L1707.85 894.246V895.588H1710.05ZM1710.05 920.264H1707.85V923.855L1711.05 922.218L1710.05 920.264ZM1732.08 908.984L1731.09 907.028L1731.08 907.03L1732.08 908.984ZM1833.43 857.34L1834.43 859.296L1838.27 857.34L1834.43 855.384L1833.43 857.34ZM1732.08 805.696L1731.08 807.65L1731.09 807.652L1732.08 805.696ZM1710.05 794.415L1711.05 792.461L1707.85 790.825V794.415H1710.05ZM1709.05 821.046L1731.08 832.326L1733.08 828.418L1711.05 817.138L1709.05 821.046ZM1731.08 832.328L1783.96 859.295L1785.96 855.384L1733.08 828.417L1731.08 832.328ZM1783.96 855.384L1731.08 882.352L1733.08 886.263L1785.96 859.295L1783.96 855.384ZM1731.08 882.354L1709.05 893.634L1711.05 897.542L1733.08 886.262L1731.08 882.354ZM1707.85 895.588V920.264H1712.24V895.588H1707.85ZM1711.05 922.218L1733.08 910.938L1731.08 907.03L1709.05 918.31L1711.05 922.218ZM1733.08 910.94L1834.43 859.296L1832.43 855.384L1731.09 907.028L1733.08 910.94ZM1834.43 855.384L1733.08 803.74L1731.09 807.652L1832.43 859.296L1834.43 855.384ZM1733.08 803.742L1711.05 792.461L1709.05 796.369L1731.08 807.65L1733.08 803.742ZM1707.85 794.415V819.092H1712.24V794.415H1707.85ZM1732.08 667.966H1734.28V665.771H1732.08V667.966ZM1710.05 667.966V665.771H1707.85V667.966H1710.05ZM1833.43 667.966H1835.63V665.771H1833.43V667.966ZM1811.4 667.966V665.771H1809.2V667.966H1811.4ZM1776.85 769.315H1774.66V771.51H1776.85V769.315ZM1776.85 689.998H1779.05V687.803H1776.85V689.998ZM1754.82 689.998V687.803H1752.62V689.998H1754.82ZM1754.82 769.315V771.51H1757.01V769.315H1754.82ZM1734.28 758.034V667.966H1729.89V758.034H1734.28ZM1732.08 665.771H1710.05V670.161H1732.08V665.771ZM1707.85 667.966V758.034H1712.24V667.966H1707.85ZM1707.85 758.034C1707.85 777.593 1723.83 793.366 1743.36 793.366V788.976C1726.23 788.976 1712.24 775.138 1712.24 758.034H1707.85ZM1743.36 793.366H1800.12V788.976H1743.36V793.366ZM1800.12 793.366C1819.65 793.366 1835.63 777.593 1835.63 758.034H1831.24C1831.24 775.138 1817.25 788.976 1800.12 788.976V793.366ZM1835.63 758.034V667.966H1831.24V758.034H1835.63ZM1833.43 665.771H1811.4V670.161H1833.43V665.771ZM1809.2 667.966V758.034H1813.59V667.966H1809.2ZM1809.2 758.034C1809.2 762.991 1805.07 767.12 1800.12 767.12V771.51C1807.5 771.51 1813.59 765.416 1813.59 758.034H1809.2ZM1800.12 767.12H1776.85V771.51H1800.12V767.12ZM1779.05 769.315V689.998H1774.66V769.315H1779.05ZM1776.85 687.803H1754.82V692.193H1776.85V687.803ZM1752.62 689.998V769.315H1757.01V689.998H1752.62ZM1754.82 767.12H1743.36V771.51H1754.82V767.12ZM1743.36 767.12C1738.41 767.12 1734.28 762.991 1734.28 758.034H1729.89C1729.89 765.416 1735.98 771.51 1743.36 771.51V767.12ZM1710.05 549.025L1707.85 549.008L1707.84 551.221H1710.05V549.025ZM1788.66 549.025L1790.4 550.366L1793.13 546.83H1788.66V549.025ZM1727.5 628.342L1725.76 627.001L1725.76 627.005L1727.5 628.342ZM1710.58 650.374L1708.84 649.037L1706.12 652.57H1710.58V650.374ZM1833.61 650.374V652.57H1835.8V650.374H1833.61ZM1833.61 628.342H1835.8V626.147H1833.61V628.342ZM1755.52 628.342L1753.79 627.001L1751.06 630.537H1755.52V628.342ZM1816.69 549.025L1818.42 550.366L1818.43 550.362L1816.69 549.025ZM1833.61 526.993L1835.35 528.33L1838.06 524.798H1833.61V526.993ZM1710.23 526.993V524.798H1708.05L1708.03 526.975L1710.23 526.993ZM1710.05 551.221H1788.66V546.83H1710.05V551.221ZM1786.92 547.685L1725.76 627.001L1729.24 629.682L1790.4 550.366L1786.92 547.685ZM1725.76 627.005L1708.84 649.037L1712.32 651.711L1729.24 629.679L1725.76 627.005ZM1710.58 652.57H1833.61V648.179H1710.58V652.57ZM1835.8 650.374V628.342H1831.41V650.374H1835.8ZM1833.61 626.147H1755.52V630.537H1833.61V626.147ZM1757.26 629.682L1818.42 550.366L1814.95 547.685L1753.79 627.001L1757.26 629.682ZM1818.43 550.362L1835.35 528.33L1831.87 525.656L1814.95 547.688L1818.43 550.362ZM1833.61 524.798H1710.23V529.188H1833.61V524.798ZM1708.03 526.975L1707.85 549.008L1712.24 549.043L1712.42 527.01L1708.03 526.975ZM1710.23 509.401H1708.03V511.597H1710.23V509.401ZM1732.26 509.401V511.597H1734.45V509.401H1732.26ZM1732.26 458.815V456.62H1730.06V458.815H1732.26ZM1833.61 458.815V461.01H1835.8V458.815H1833.61ZM1833.61 436.783H1835.8V434.587H1833.61V436.783ZM1732.26 436.783H1730.06V438.978H1732.26V436.783ZM1732.26 386.196H1734.45V384.001H1732.26V386.196ZM1710.23 386.196V384.001H1708.03V386.196H1710.23ZM1710.23 511.597H1732.26V507.206H1710.23V511.597ZM1734.45 509.401V458.815H1730.06V509.401H1734.45ZM1732.26 461.01H1833.61V456.62H1732.26V461.01ZM1835.8 458.815V436.783H1831.41V458.815H1835.8ZM1833.61 434.587H1732.26V438.978H1833.61V434.587ZM1734.45 436.783V386.196H1730.06V436.783H1734.45ZM1732.26 384.001H1710.23V388.391H1732.26V384.001ZM1708.03 386.196V509.401H1712.42V386.196H1708.03ZM1744.07 251.745L1746.26 251.727L1746.25 249.549H1744.07V251.745ZM1762.93 362.436L1761.75 360.583L1761.71 360.609L1761.67 360.637L1762.93 362.436ZM1768.22 358.205L1769.77 359.758L1769.78 359.746L1769.79 359.734L1768.22 358.205ZM1794.48 346.22V344.024H1792.28V346.22H1794.48ZM1794.48 368.252H1792.28V370.447H1794.48V368.252ZM1769.8 260.558L1768.41 258.857L1768.33 258.927L1768.25 259.005L1769.8 260.558ZM1768.22 261.968L1769.69 263.592L1769.73 263.557L1769.77 263.52L1768.22 261.968ZM1744.24 273.777V275.972H1746.46L1746.44 273.76L1744.24 273.777ZM1744.07 249.549H1743.36V253.94H1744.07V249.549ZM1743.36 249.549C1723.82 249.549 1707.85 265.514 1707.85 285.058H1712.24C1712.24 267.939 1726.24 253.94 1743.36 253.94V249.549ZM1707.85 285.058V335.115H1712.24V285.058H1707.85ZM1707.85 335.115C1707.85 354.674 1723.83 370.447 1743.36 370.447V366.057C1726.23 366.057 1712.24 352.219 1712.24 335.115H1707.85ZM1743.36 370.447H1744.07V366.057H1743.36V370.447ZM1744.07 370.447C1751.56 370.447 1758.52 368.198 1764.19 364.234L1761.67 360.637C1756.76 364.076 1750.68 366.057 1744.07 366.057V370.447ZM1764.11 364.288C1766.18 362.97 1768.07 361.46 1769.77 359.758L1766.66 356.653C1765.19 358.123 1763.56 359.434 1761.75 360.583L1764.11 364.288ZM1769.79 359.734C1775.99 353.345 1779.75 344.694 1779.75 335.115H1775.36C1775.36 343.515 1772.07 351.08 1766.64 356.676L1769.79 359.734ZM1779.75 335.115V290.698H1775.36V335.115H1779.75ZM1779.75 290.698C1779.75 282.539 1786.38 275.796 1794.48 275.796V271.406C1783.89 271.406 1775.36 280.174 1775.36 290.698H1779.75ZM1794.48 275.796C1802.58 275.796 1809.2 282.539 1809.2 290.698H1813.59C1813.59 280.174 1805.06 271.406 1794.48 271.406V275.796ZM1809.2 290.698V329.299H1813.59V290.698H1809.2ZM1809.2 329.299C1809.2 337.428 1802.61 344.024 1794.48 344.024V348.415C1805.03 348.415 1813.59 339.853 1813.59 329.299H1809.2ZM1792.28 346.22V368.252H1796.67V346.22H1792.28ZM1794.48 370.447C1817.19 370.447 1835.63 352.015 1835.63 329.299H1831.24C1831.24 349.59 1814.77 366.057 1794.48 366.057V370.447ZM1835.63 329.299V290.698H1831.24V329.299H1835.63ZM1835.63 290.698C1835.63 267.982 1817.19 249.549 1794.48 249.549V253.94C1814.77 253.94 1831.24 270.407 1831.24 290.698H1835.63ZM1794.48 249.549C1784.61 249.549 1775.48 253.089 1768.41 258.857L1771.19 262.259C1777.51 257.099 1785.67 253.94 1794.48 253.94V249.549ZM1768.25 259.005C1768.07 259.189 1767.88 259.349 1767.6 259.576C1767.35 259.79 1767.01 260.07 1766.66 260.416L1769.77 263.52C1769.95 263.336 1770.14 263.176 1770.41 262.949C1770.67 262.736 1771.01 262.455 1771.35 262.11L1768.25 259.005ZM1766.74 260.343C1758.55 267.792 1753.33 278.596 1753.33 290.698H1757.72C1757.72 279.886 1762.37 270.245 1769.69 263.592L1766.74 260.343ZM1753.33 290.698V335.115H1757.72V290.698H1753.33ZM1753.33 335.115C1753.33 340.072 1749.2 344.201 1744.24 344.201V348.591C1751.63 348.591 1757.72 342.497 1757.72 335.115H1753.33ZM1744.24 344.201H1743.54V348.591H1744.24V344.201ZM1743.54 344.201C1738.58 344.201 1734.45 340.072 1734.45 335.115H1730.06C1730.06 342.497 1736.16 348.591 1743.54 348.591V344.201ZM1734.45 335.115V285.058H1730.06V335.115H1734.45ZM1734.45 285.058C1734.45 280.101 1738.58 275.972 1743.54 275.972V271.582C1736.16 271.582 1730.06 277.676 1730.06 285.058H1734.45ZM1743.54 275.972H1744.24V271.582H1743.54V275.972ZM1746.44 273.76L1746.26 251.727L1741.87 251.762L1742.05 273.795L1746.44 273.76Z" fill="white" fill-opacity="0.15"/>
<path d="M1888.07 930.806H1890.26V928.61H1888.07V930.806ZM1866.03 930.806V928.61H1863.84V930.806H1866.03ZM1989.42 930.806H1991.61V928.61H1989.42V930.806ZM1967.38 930.806V928.61H1965.19V930.806H1967.38ZM1932.84 1032.15H1930.64V1034.35H1932.84V1032.15ZM1932.84 952.838H1935.03V950.643H1932.84V952.838ZM1910.8 952.838V950.643H1908.61V952.838H1910.8ZM1910.8 1032.15V1034.35H1913V1032.15H1910.8ZM1890.26 1020.87V930.806H1885.87V1020.87H1890.26ZM1888.07 928.61H1866.03V933.001H1888.07V928.61ZM1863.84 930.806V1020.87H1868.23V930.806H1863.84ZM1863.84 1020.87C1863.84 1040.43 1879.82 1056.21 1899.35 1056.21V1051.82C1882.21 1051.82 1868.23 1037.98 1868.23 1020.87H1863.84ZM1899.35 1056.21H1956.1V1051.82H1899.35V1056.21ZM1956.1 1056.21C1975.63 1056.21 1991.61 1040.43 1991.61 1020.87H1987.22C1987.22 1037.98 1973.24 1051.82 1956.1 1051.82V1056.21ZM1991.61 1020.87V930.806H1987.22V1020.87H1991.61ZM1989.42 928.61H1967.38V933.001H1989.42V928.61ZM1965.19 930.806V1020.87H1969.58V930.806H1965.19ZM1965.19 1020.87C1965.19 1025.83 1961.06 1029.96 1956.1 1029.96V1034.35C1963.48 1034.35 1969.58 1028.26 1969.58 1020.87H1965.19ZM1956.1 1029.96H1932.84V1034.35H1956.1V1029.96ZM1935.03 1032.15V952.838H1930.64V1032.15H1935.03ZM1932.84 950.643H1910.8V955.033H1932.84V950.643ZM1908.61 952.838V1032.15H1913V952.838H1908.61ZM1910.8 1029.96H1899.35V1034.35H1910.8V1029.96ZM1899.35 1029.96C1894.39 1029.96 1890.26 1025.83 1890.26 1020.87H1885.87C1885.87 1028.26 1891.97 1034.35 1899.35 1034.35V1029.96ZM1866.03 819.092H1863.84V820.434L1865.03 821.046L1866.03 819.092ZM1888.07 830.372L1887.07 832.326L1887.07 832.328L1888.07 830.372ZM1940.94 857.34L1941.94 859.295L1945.78 857.34L1941.94 855.384L1940.94 857.34ZM1888.07 884.308L1887.07 882.352L1887.07 882.354L1888.07 884.308ZM1866.03 895.588L1865.03 893.634L1863.84 894.246V895.588H1866.03ZM1866.03 920.264H1863.84V923.855L1867.03 922.218L1866.03 920.264ZM1888.07 908.984L1887.07 907.028L1887.07 907.03L1888.07 908.984ZM1989.42 857.34L1990.41 859.296L1994.25 857.34L1990.41 855.384L1989.42 857.34ZM1888.07 805.696L1887.07 807.65L1887.07 807.652L1888.07 805.696ZM1866.03 794.415L1867.03 792.461L1863.84 790.825V794.415H1866.03ZM1865.03 821.046L1887.07 832.326L1889.07 828.418L1867.03 817.138L1865.03 821.046ZM1887.07 832.328L1939.95 859.295L1941.94 855.384L1889.06 828.417L1887.07 832.328ZM1939.95 855.384L1887.07 882.352L1889.06 886.263L1941.94 859.295L1939.95 855.384ZM1887.07 882.354L1865.03 893.634L1867.03 897.542L1889.07 886.262L1887.07 882.354ZM1863.84 895.588V920.264H1868.23V895.588H1863.84ZM1867.03 922.218L1889.07 910.938L1887.07 907.03L1865.03 918.31L1867.03 922.218ZM1889.06 910.94L1990.41 859.296L1988.42 855.384L1887.07 907.028L1889.06 910.94ZM1990.41 855.384L1889.06 803.74L1887.07 807.652L1988.42 859.296L1990.41 855.384ZM1889.07 803.742L1867.03 792.461L1865.03 796.369L1887.07 807.65L1889.07 803.742ZM1863.84 794.415V819.092H1868.23V794.415H1863.84ZM1888.07 667.966H1890.26V665.771H1888.07V667.966ZM1866.03 667.966V665.771H1863.84V667.966H1866.03ZM1989.42 667.966H1991.61V665.771H1989.42V667.966ZM1967.38 667.966V665.771H1965.19V667.966H1967.38ZM1932.84 769.315H1930.64V771.51H1932.84V769.315ZM1932.84 689.998H1935.03V687.803H1932.84V689.998ZM1910.8 689.998V687.803H1908.61V689.998H1910.8ZM1910.8 769.315V771.51H1913V769.315H1910.8ZM1890.26 758.034V667.966H1885.87V758.034H1890.26ZM1888.07 665.771H1866.03V670.161H1888.07V665.771ZM1863.84 667.966V758.034H1868.23V667.966H1863.84ZM1863.84 758.034C1863.84 777.593 1879.82 793.366 1899.35 793.366V788.976C1882.21 788.976 1868.23 775.138 1868.23 758.034H1863.84ZM1899.35 793.366H1956.1V788.976H1899.35V793.366ZM1956.1 793.366C1975.63 793.366 1991.61 777.593 1991.61 758.034H1987.22C1987.22 775.138 1973.24 788.976 1956.1 788.976V793.366ZM1991.61 758.034V667.966H1987.22V758.034H1991.61ZM1989.42 665.771H1967.38V670.161H1989.42V665.771ZM1965.19 667.966V758.034H1969.58V667.966H1965.19ZM1965.19 758.034C1965.19 762.991 1961.06 767.12 1956.1 767.12V771.51C1963.48 771.51 1969.58 765.416 1969.58 758.034H1965.19ZM1956.1 767.12H1932.84V771.51H1956.1V767.12ZM1935.03 769.315V689.998H1930.64V769.315H1935.03ZM1932.84 687.803H1910.8V692.193H1932.84V687.803ZM1908.61 689.998V769.315H1913V689.998H1908.61ZM1910.8 767.12H1899.35V771.51H1910.8V767.12ZM1899.35 767.12C1894.39 767.12 1890.26 762.991 1890.26 758.034H1885.87C1885.87 765.416 1891.97 771.51 1899.35 771.51V767.12ZM1866.03 549.025L1863.84 549.008L1863.82 551.221H1866.03V549.025ZM1944.65 549.025L1946.38 550.366L1949.11 546.83H1944.65V549.025ZM1883.48 628.342L1881.75 627.001L1881.74 627.005L1883.48 628.342ZM1866.56 650.374L1864.82 649.037L1862.11 652.57H1866.56V650.374ZM1989.59 650.374V652.57H1991.79V650.374H1989.59ZM1989.59 628.342H1991.79V626.147H1989.59V628.342ZM1911.51 628.342L1909.77 627.001L1907.04 630.537H1911.51V628.342ZM1972.67 549.025L1974.41 550.366L1974.41 550.362L1972.67 549.025ZM1989.59 526.993L1991.33 528.33L1994.05 524.798H1989.59V526.993ZM1866.21 526.993V524.798H1864.03L1864.02 526.975L1866.21 526.993ZM1866.03 551.221H1944.65V546.83H1866.03V551.221ZM1942.91 547.685L1881.75 627.001L1885.22 629.682L1946.38 550.366L1942.91 547.685ZM1881.74 627.005L1864.82 649.037L1868.3 651.711L1885.22 629.679L1881.74 627.005ZM1866.56 652.57H1989.59V648.179H1866.56V652.57ZM1991.79 650.374V628.342H1987.4V650.374H1991.79ZM1989.59 626.147H1911.51V630.537H1989.59V626.147ZM1913.25 629.682L1974.41 550.366L1970.93 547.685L1909.77 627.001L1913.25 629.682ZM1974.41 550.362L1991.33 528.33L1987.85 525.656L1970.93 547.688L1974.41 550.362ZM1989.59 524.798H1866.21V529.188H1989.59V524.798ZM1864.02 526.975L1863.84 549.008L1868.23 549.043L1868.41 527.01L1864.02 526.975ZM1866.21 509.401H1864.01V511.597H1866.21V509.401ZM1888.24 509.401V511.597H1890.44V509.401H1888.24ZM1888.24 458.815V456.62H1886.05V458.815H1888.24ZM1989.59 458.815V461.01H1991.79V458.815H1989.59ZM1989.59 436.783H1991.79V434.587H1989.59V436.783ZM1888.24 436.783H1886.05V438.978H1888.24V436.783ZM1888.24 386.196H1890.44V384.001H1888.24V386.196ZM1866.21 386.196V384.001H1864.01V386.196H1866.21ZM1866.21 511.597H1888.24V507.206H1866.21V511.597ZM1890.44 509.401V458.815H1886.05V509.401H1890.44ZM1888.24 461.01H1989.59V456.62H1888.24V461.01ZM1991.79 458.815V436.783H1987.4V458.815H1991.79ZM1989.59 434.587H1888.24V438.978H1989.59V434.587ZM1890.44 436.783V386.196H1886.05V436.783H1890.44ZM1888.24 384.001H1866.21V388.391H1888.24V384.001ZM1864.01 386.196V509.401H1868.41V386.196H1864.01ZM1900.05 251.745L1902.25 251.727L1902.23 249.549H1900.05V251.745ZM1918.91 362.436L1917.73 360.583L1917.69 360.609L1917.65 360.637L1918.91 362.436ZM1924.2 358.205L1925.75 359.758L1925.76 359.746L1925.77 359.734L1924.2 358.205ZM1950.46 346.22V344.024H1948.27V346.22H1950.46ZM1950.46 368.252H1948.27V370.447H1950.46V368.252ZM1925.79 260.558L1924.4 258.857L1924.31 258.927L1924.23 259.005L1925.79 260.558ZM1924.2 261.968L1925.68 263.592L1925.71 263.557L1925.75 263.52L1924.2 261.968ZM1900.23 273.777V275.972H1902.44L1902.42 273.76L1900.23 273.777ZM1900.05 249.549H1899.35V253.94H1900.05V249.549ZM1899.35 249.549C1879.8 249.549 1863.84 265.514 1863.84 285.058H1868.23C1868.23 267.939 1882.23 253.94 1899.35 253.94V249.549ZM1863.84 285.058V335.115H1868.23V285.058H1863.84ZM1863.84 335.115C1863.84 354.674 1879.82 370.447 1899.35 370.447V366.057C1882.21 366.057 1868.23 352.219 1868.23 335.115H1863.84ZM1899.35 370.447H1900.05V366.057H1899.35V370.447ZM1900.05 370.447C1907.55 370.447 1914.51 368.198 1920.17 364.234L1917.65 360.637C1912.74 364.076 1906.66 366.057 1900.05 366.057V370.447ZM1920.09 364.288C1922.16 362.97 1924.05 361.46 1925.75 359.758L1922.65 356.653C1921.18 358.123 1919.54 359.434 1917.73 360.583L1920.09 364.288ZM1925.77 359.734C1931.98 353.345 1935.74 344.694 1935.74 335.115H1931.35C1931.35 343.515 1928.06 351.08 1922.62 356.676L1925.77 359.734ZM1935.74 335.115V290.698H1931.35V335.115H1935.74ZM1935.74 290.698C1935.74 282.539 1942.36 275.796 1950.46 275.796V271.406C1939.88 271.406 1931.35 280.174 1931.35 290.698H1935.74ZM1950.46 275.796C1958.56 275.796 1965.19 282.539 1965.19 290.698H1969.58C1969.58 280.174 1961.05 271.406 1950.46 271.406V275.796ZM1965.19 290.698V329.299H1969.58V290.698H1965.19ZM1965.19 329.299C1965.19 337.428 1958.59 344.024 1950.46 344.024V348.415C1961.02 348.415 1969.58 339.853 1969.58 329.299H1965.19ZM1948.27 346.22V368.252H1952.66V346.22H1948.27ZM1950.46 370.447C1973.18 370.447 1991.61 352.015 1991.61 329.299H1987.22C1987.22 349.59 1970.75 366.057 1950.46 366.057V370.447ZM1991.61 329.299V290.698H1987.22V329.299H1991.61ZM1991.61 290.698C1991.61 267.982 1973.18 249.549 1950.46 249.549V253.94C1970.75 253.94 1987.22 270.407 1987.22 290.698H1991.61ZM1950.46 249.549C1940.59 249.549 1931.47 253.089 1924.4 258.857L1927.17 262.259C1933.5 257.099 1941.65 253.94 1950.46 253.94V249.549ZM1924.23 259.005C1924.05 259.189 1923.86 259.349 1923.59 259.576C1923.33 259.79 1922.99 260.07 1922.65 260.416L1925.75 263.52C1925.94 263.336 1926.13 263.176 1926.4 262.949C1926.65 262.736 1926.99 262.455 1927.34 262.11L1924.23 259.005ZM1922.72 260.343C1914.53 267.792 1909.31 278.596 1909.31 290.698H1913.7C1913.7 279.886 1918.36 270.245 1925.68 263.592L1922.72 260.343ZM1909.31 290.698V335.115H1913.7V290.698H1909.31ZM1909.31 335.115C1909.31 340.072 1905.18 344.201 1900.23 344.201V348.591C1907.61 348.591 1913.7 342.497 1913.7 335.115H1909.31ZM1900.23 344.201H1899.52V348.591H1900.23V344.201ZM1899.52 344.201C1894.57 344.201 1890.44 340.072 1890.44 335.115H1886.05C1886.05 342.497 1892.14 348.591 1899.52 348.591V344.201ZM1890.44 335.115V285.058H1886.05V335.115H1890.44ZM1890.44 285.058C1890.44 280.101 1894.57 275.972 1899.52 275.972V271.582C1892.14 271.582 1886.05 277.676 1886.05 285.058H1890.44ZM1899.52 275.972H1900.23V271.582H1899.52V275.972ZM1902.42 273.76L1902.25 251.727L1897.86 251.762L1898.03 273.795L1902.42 273.76Z" fill="white" fill-opacity="0.23"/>
<path d="M1576.92 930.806H1579.11V928.61H1576.92V930.806ZM1554.89 930.806V928.61H1552.69V930.806H1554.89ZM1678.27 930.806H1680.46V928.61H1678.27V930.806ZM1656.24 930.806V928.61H1654.04V930.806H1656.24ZM1621.69 1032.15H1619.49V1034.35H1621.69V1032.15ZM1621.69 952.838H1623.88V950.643H1621.69V952.838ZM1599.66 952.838V950.643H1597.46V952.838H1599.66ZM1599.66 1032.15V1034.35H1601.85V1032.15H1599.66ZM1579.11 1020.87V930.806H1574.72V1020.87H1579.11ZM1576.92 928.61H1554.89V933.001H1576.92V928.61ZM1552.69 930.806V1020.87H1557.08V930.806H1552.69ZM1552.69 1020.87C1552.69 1040.43 1568.67 1056.21 1588.2 1056.21V1051.82C1571.07 1051.82 1557.08 1037.98 1557.08 1020.87H1552.69ZM1588.2 1056.21H1644.96V1051.82H1588.2V1056.21ZM1644.96 1056.21C1664.48 1056.21 1680.46 1040.43 1680.46 1020.87H1676.07C1676.07 1037.98 1662.09 1051.82 1644.96 1051.82V1056.21ZM1680.46 1020.87V930.806H1676.07V1020.87H1680.46ZM1678.27 928.61H1656.24V933.001H1678.27V928.61ZM1654.04 930.806V1020.87H1658.43V930.806H1654.04ZM1654.04 1020.87C1654.04 1025.83 1649.91 1029.96 1644.96 1029.96V1034.35C1652.34 1034.35 1658.43 1028.26 1658.43 1020.87H1654.04ZM1644.96 1029.96H1621.69V1034.35H1644.96V1029.96ZM1623.88 1032.15V952.838H1619.49V1032.15H1623.88ZM1621.69 950.643H1599.66V955.033H1621.69V950.643ZM1597.46 952.838V1032.15H1601.85V952.838H1597.46ZM1599.66 1029.96H1588.2V1034.35H1599.66V1029.96ZM1588.2 1029.96C1583.24 1029.96 1579.11 1025.83 1579.11 1020.87H1574.72C1574.72 1028.26 1580.82 1034.35 1588.2 1034.35V1029.96ZM1554.89 819.092H1552.69V820.434L1553.89 821.046L1554.89 819.092ZM1576.92 830.372L1575.92 832.326L1575.92 832.328L1576.92 830.372ZM1629.8 857.34L1630.79 859.295L1634.63 857.34L1630.79 855.384L1629.8 857.34ZM1576.92 884.308L1575.92 882.352L1575.92 882.354L1576.92 884.308ZM1554.89 895.588L1553.89 893.634L1552.69 894.246V895.588H1554.89ZM1554.89 920.264H1552.69V923.855L1555.89 922.218L1554.89 920.264ZM1576.92 908.984L1575.92 907.028L1575.92 907.03L1576.92 908.984ZM1678.27 857.34L1679.26 859.296L1683.1 857.34L1679.26 855.384L1678.27 857.34ZM1576.92 805.696L1575.92 807.65L1575.92 807.652L1576.92 805.696ZM1554.89 794.415L1555.89 792.461L1552.69 790.825V794.415H1554.89ZM1553.89 821.046L1575.92 832.326L1577.92 828.418L1555.89 817.138L1553.89 821.046ZM1575.92 832.328L1628.8 859.295L1630.79 855.384L1577.92 828.417L1575.92 832.328ZM1628.8 855.384L1575.92 882.352L1577.92 886.263L1630.79 859.295L1628.8 855.384ZM1575.92 882.354L1553.89 893.634L1555.89 897.542L1577.92 886.262L1575.92 882.354ZM1552.69 895.588V920.264H1557.08V895.588H1552.69ZM1555.89 922.218L1577.92 910.938L1575.92 907.03L1553.89 918.31L1555.89 922.218ZM1577.92 910.94L1679.26 859.296L1677.27 855.384L1575.92 907.028L1577.92 910.94ZM1679.26 855.384L1577.92 803.74L1575.92 807.652L1677.27 859.296L1679.26 855.384ZM1577.92 803.742L1555.89 792.461L1553.89 796.369L1575.92 807.65L1577.92 803.742ZM1552.69 794.415V819.092H1557.08V794.415H1552.69ZM1576.92 667.966H1579.11V665.771H1576.92V667.966ZM1554.89 667.966V665.771H1552.69V667.966H1554.89ZM1678.27 667.966H1680.46V665.771H1678.27V667.966ZM1656.24 667.966V665.771H1654.04V667.966H1656.24ZM1621.69 769.315H1619.49V771.51H1621.69V769.315ZM1621.69 689.998H1623.88V687.803H1621.69V689.998ZM1599.66 689.998V687.803H1597.46V689.998H1599.66ZM1599.66 769.315V771.51H1601.85V769.315H1599.66ZM1579.11 758.034V667.966H1574.72V758.034H1579.11ZM1576.92 665.771H1554.89V670.161H1576.92V665.771ZM1552.69 667.966V758.034H1557.08V667.966H1552.69ZM1552.69 758.034C1552.69 777.593 1568.67 793.366 1588.2 793.366V788.976C1571.07 788.976 1557.08 775.138 1557.08 758.034H1552.69ZM1588.2 793.366H1644.96V788.976H1588.2V793.366ZM1644.96 793.366C1664.48 793.366 1680.46 777.593 1680.46 758.034H1676.07C1676.07 775.138 1662.09 788.976 1644.96 788.976V793.366ZM1680.46 758.034V667.966H1676.07V758.034H1680.46ZM1678.27 665.771H1656.24V670.161H1678.27V665.771ZM1654.04 667.966V758.034H1658.43V667.966H1654.04ZM1654.04 758.034C1654.04 762.991 1649.91 767.12 1644.96 767.12V771.51C1652.34 771.51 1658.43 765.416 1658.43 758.034H1654.04ZM1644.96 767.12H1621.69V771.51H1644.96V767.12ZM1623.88 769.315V689.998H1619.49V769.315H1623.88ZM1621.69 687.803H1599.66V692.193H1621.69V687.803ZM1597.46 689.998V769.315H1601.85V689.998H1597.46ZM1599.66 767.12H1588.2V771.51H1599.66V767.12ZM1588.2 767.12C1583.24 767.12 1579.11 762.991 1579.11 758.034H1574.72C1574.72 765.416 1580.82 771.51 1588.2 771.51V767.12ZM1554.89 549.025L1552.69 549.008L1552.67 551.221H1554.89V549.025ZM1633.5 549.025L1635.24 550.366L1637.96 546.83H1633.5V549.025ZM1572.34 628.342L1570.6 627.001L1570.6 627.005L1572.34 628.342ZM1555.42 650.374L1553.67 649.037L1550.96 652.57H1555.42V650.374ZM1678.44 650.374V652.57H1680.64V650.374H1678.44ZM1678.44 628.342H1680.64V626.147H1678.44V628.342ZM1600.36 628.342L1598.62 627.001L1595.9 630.537H1600.36V628.342ZM1661.52 549.025L1663.26 550.366L1663.26 550.362L1661.52 549.025ZM1678.44 526.993L1680.19 528.33L1682.9 524.798H1678.44V526.993ZM1555.06 526.993V524.798H1552.89L1552.87 526.975L1555.06 526.993ZM1554.89 551.221H1633.5V546.83H1554.89V551.221ZM1631.76 547.685L1570.6 627.001L1574.07 629.682L1635.24 550.366L1631.76 547.685ZM1570.6 627.005L1553.67 649.037L1557.16 651.711L1574.08 629.679L1570.6 627.005ZM1555.42 652.57H1678.44V648.179H1555.42V652.57ZM1680.64 650.374V628.342H1676.25V650.374H1680.64ZM1678.44 626.147H1600.36V630.537H1678.44V626.147ZM1602.1 629.682L1663.26 550.366L1659.79 547.685L1598.62 627.001L1602.1 629.682ZM1663.26 550.362L1680.19 528.33L1676.7 525.656L1659.78 547.688L1663.26 550.362ZM1678.44 524.798H1555.06V529.188H1678.44V524.798ZM1552.87 526.975L1552.69 549.008L1557.08 549.043L1557.26 527.01L1552.87 526.975ZM1555.06 509.401H1552.87V511.597H1555.06V509.401ZM1577.1 509.401V511.597H1579.29V509.401H1577.1ZM1577.1 458.815V456.62H1574.9V458.815H1577.1ZM1678.44 458.815V461.01H1680.64V458.815H1678.44ZM1678.44 436.783H1680.64V434.587H1678.44V436.783ZM1577.1 436.783H1574.9V438.978H1577.1V436.783ZM1577.1 386.196H1579.29V384.001H1577.1V386.196ZM1555.06 386.196V384.001H1552.87V386.196H1555.06ZM1555.06 511.597H1577.1V507.206H1555.06V511.597ZM1579.29 509.401V458.815H1574.9V509.401H1579.29ZM1577.1 461.01H1678.44V456.62H1577.1V461.01ZM1680.64 458.815V436.783H1676.25V458.815H1680.64ZM1678.44 434.587H1577.1V438.978H1678.44V434.587ZM1579.29 436.783V386.196H1574.9V436.783H1579.29ZM1577.1 384.001H1555.06V388.391H1577.1V384.001ZM1552.87 386.196V509.401H1557.26V386.196H1552.87ZM1588.9 251.745L1591.1 251.727L1591.08 249.549H1588.9V251.745ZM1607.76 362.436L1606.59 360.583L1606.55 360.609L1606.51 360.637L1607.76 362.436ZM1613.05 358.205L1614.6 359.758L1614.62 359.746L1614.63 359.734L1613.05 358.205ZM1639.31 346.22V344.024H1637.12V346.22H1639.31ZM1639.31 368.252H1637.12V370.447H1639.31V368.252ZM1614.64 260.558L1613.25 258.857L1613.16 258.927L1613.09 259.005L1614.64 260.558ZM1613.05 261.968L1614.53 263.592L1614.57 263.557L1614.6 263.52L1613.05 261.968ZM1589.08 273.777V275.972H1591.29L1591.28 273.76L1589.08 273.777ZM1588.9 249.549H1588.2V253.94H1588.9V249.549ZM1588.2 249.549C1568.66 249.549 1552.69 265.514 1552.69 285.058H1557.08C1557.08 267.939 1571.08 253.94 1588.2 253.94V249.549ZM1552.69 285.058V335.115H1557.08V285.058H1552.69ZM1552.69 335.115C1552.69 354.674 1568.67 370.447 1588.2 370.447V366.057C1571.07 366.057 1557.08 352.219 1557.08 335.115H1552.69ZM1588.2 370.447H1588.9V366.057H1588.2V370.447ZM1588.9 370.447C1596.4 370.447 1603.36 368.198 1609.02 364.234L1606.51 360.637C1601.59 364.076 1595.51 366.057 1588.9 366.057V370.447ZM1608.94 364.288C1611.01 362.97 1612.9 361.46 1614.6 359.758L1611.5 356.653C1610.03 358.123 1608.39 359.434 1606.59 360.583L1608.94 364.288ZM1614.63 359.734C1620.83 353.345 1624.59 344.694 1624.59 335.115H1620.2C1620.2 343.515 1616.91 351.08 1611.48 356.676L1614.63 359.734ZM1624.59 335.115V290.698H1620.2V335.115H1624.59ZM1624.59 290.698C1624.59 282.539 1631.21 275.796 1639.31 275.796V271.406C1628.73 271.406 1620.2 280.174 1620.2 290.698H1624.59ZM1639.31 275.796C1647.41 275.796 1654.04 282.539 1654.04 290.698H1658.43C1658.43 280.174 1649.9 271.406 1639.31 271.406V275.796ZM1654.04 290.698V329.299H1658.43V290.698H1654.04ZM1654.04 329.299C1654.04 337.428 1647.44 344.024 1639.31 344.024V348.415C1649.87 348.415 1658.43 339.853 1658.43 329.299H1654.04ZM1637.12 346.22V368.252H1641.51V346.22H1637.12ZM1639.31 370.447C1662.03 370.447 1680.46 352.015 1680.46 329.299H1676.07C1676.07 349.59 1659.61 366.057 1639.31 366.057V370.447ZM1680.46 329.299V290.698H1676.07V329.299H1680.46ZM1680.46 290.698C1680.46 267.982 1662.03 249.549 1639.31 249.549V253.94C1659.61 253.94 1676.07 270.407 1676.07 290.698H1680.46ZM1639.31 249.549C1629.44 249.549 1620.32 253.089 1613.25 258.857L1616.03 262.259C1622.35 257.099 1630.5 253.94 1639.31 253.94V249.549ZM1613.09 259.005C1612.9 259.189 1612.71 259.349 1612.44 259.576C1612.18 259.79 1611.84 260.07 1611.5 260.416L1614.6 263.52C1614.79 263.336 1614.98 263.176 1615.25 262.949C1615.51 262.736 1615.85 262.455 1616.19 262.11L1613.09 259.005ZM1611.58 260.343C1603.38 267.792 1598.17 278.596 1598.17 290.698H1602.56C1602.56 279.886 1607.21 270.245 1614.53 263.592L1611.58 260.343ZM1598.17 290.698V335.115H1602.56V290.698H1598.17ZM1598.17 335.115C1598.17 340.072 1594.04 344.201 1589.08 344.201V348.591C1596.46 348.591 1602.56 342.497 1602.56 335.115H1598.17ZM1589.08 344.201H1588.38V348.591H1589.08V344.201ZM1588.38 344.201C1583.42 344.201 1579.29 340.072 1579.29 335.115H1574.9C1574.9 342.497 1580.99 348.591 1588.38 348.591V344.201ZM1579.29 335.115V285.058H1574.9V335.115H1579.29ZM1579.29 285.058C1579.29 280.101 1583.42 275.972 1588.38 275.972V271.582C1580.99 271.582 1574.9 277.676 1574.9 285.058H1579.29ZM1588.38 275.972H1589.08V271.582H1588.38V275.972ZM1591.28 273.76L1591.1 251.727L1586.71 251.762L1586.89 273.795L1591.28 273.76Z" fill="white" fill-opacity="0.1"/>
</g>
<defs>
<clipPath id="clip0">
<rect width="1920" height="1080" fill="white"/>
</clipPath>
</defs>
</svg>
