<svg width="1920" height="1080" viewBox="0 0 1920 1080" fill="none" xmlns="http://www.w3.org/2000/svg">
<g clip-path="url(#clip0)">
<rect width="1920" height="1080" fill="black"/>
<path d="M183.295 956.39V953.016H179.921V956.39H183.295ZM183.295 1025.19V1028.56H186.668V1025.19H183.295ZM61.4025 1025.19H58.0289V1028.56H61.4025V1025.19ZM61.4025 956.39H64.7761V953.016H61.4025V956.39ZM27.5436 956.39V953.016H24.17V956.39H27.5436ZM27.5436 1146H24.17V1149.37H27.5436V1146ZM61.4025 1146V1149.37H64.7761V1146H61.4025ZM61.4025 1059.05V1055.68H58.0289V1059.05H61.4025ZM183.295 1059.05H186.668V1055.68H183.295V1059.05ZM183.295 1146H179.921V1149.37H183.295V1146ZM217.154 1146V1149.37H220.527V1146H217.154ZM217.154 956.39H220.527V953.016H217.154V956.39ZM179.921 956.39V1025.19H186.668V956.39H179.921ZM183.295 1021.82H61.4025V1028.56H183.295V1021.82ZM64.7761 1025.19V956.39H58.0289V1025.19H64.7761ZM61.4025 953.016H27.5436V959.763H61.4025V953.016ZM24.17 956.39V1146H30.9172V956.39H24.17ZM27.5436 1149.37H61.4025V1142.63H27.5436V1149.37ZM64.7761 1146V1059.05H58.0289V1146H64.7761ZM61.4025 1062.42H183.295V1055.68H61.4025V1062.42ZM179.921 1059.05V1146H186.668V1059.05H179.921ZM183.295 1149.37H217.154V1142.63H183.295V1149.37ZM220.527 1146V956.39H213.78V1146H220.527ZM217.154 953.016H183.295V959.763H217.154V953.016ZM409.69 1112.14L406.685 1113.67L406.688 1113.68L409.69 1112.14ZM330.325 956.39L333.331 954.858L330.325 948.959L327.319 954.858L330.325 956.39ZM250.96 1112.14L253.963 1113.68L253.966 1113.67L250.96 1112.14ZM233.624 1146L230.621 1144.46L228.107 1149.37H233.624V1146ZM271.546 1146V1149.37H273.609L274.549 1147.54L271.546 1146ZM288.882 1112.14L291.885 1113.68L291.887 1113.67L288.882 1112.14ZM330.325 1030.88L333.33 1029.35L330.325 1023.45L327.32 1029.35L330.325 1030.88ZM371.768 1112.14L368.763 1113.67L368.766 1113.68L371.768 1112.14ZM389.104 1146L386.101 1147.54L387.041 1149.37H389.104V1146ZM427.026 1146V1149.37H432.544L430.029 1144.46L427.026 1146ZM412.696 1110.61L333.331 954.858L327.319 957.922L406.685 1113.67L412.696 1110.61ZM327.319 954.858L247.954 1110.61L253.966 1113.67L333.331 957.922L327.319 954.858ZM247.957 1110.6L230.621 1144.46L236.627 1147.54L253.963 1113.68L247.957 1110.6ZM233.624 1149.37H271.546V1142.63H233.624V1149.37ZM274.549 1147.54L291.885 1113.68L285.879 1110.6L268.543 1144.46L274.549 1147.54ZM291.887 1113.67L333.33 1032.41L327.32 1029.35L285.876 1110.61L291.887 1113.67ZM327.32 1032.41L368.763 1113.67L374.774 1110.61L333.33 1029.35L327.32 1032.41ZM368.766 1113.68L386.101 1147.54L392.107 1144.46L374.771 1110.6L368.766 1113.68ZM389.104 1149.37H427.026V1142.63H389.104V1149.37ZM430.029 1144.46L412.693 1110.6L406.688 1113.68L424.023 1147.54L430.029 1144.46ZM606.468 990.249V993.622H609.842V990.249H606.468ZM606.468 956.39H609.842V953.016H606.468V956.39ZM606.468 1146V1149.37H609.842V1146H606.468ZM606.468 1112.14H609.842V1108.77H606.468V1112.14ZM511.663 993.622H606.468V986.875H511.663V993.622ZM609.842 990.249V956.39H603.094V990.249H609.842ZM606.468 953.016H511.663V959.763H606.468V953.016ZM511.663 953.016C457.522 953.016 413.484 997.054 413.484 1051.19H420.232C420.232 1000.78 461.248 959.763 511.663 959.763V953.016ZM413.484 1051.19C413.484 1105.34 457.522 1149.37 511.663 1149.37V1142.63C461.248 1142.63 420.232 1101.61 420.232 1051.19H413.484ZM511.663 1149.37H606.468V1142.63H511.663V1149.37ZM609.842 1146V1112.14H603.094V1146H609.842ZM606.468 1108.77H511.663V1115.51H606.468V1108.77ZM511.663 1108.77C479.938 1108.77 454.091 1082.92 454.091 1051.19H447.343C447.343 1086.65 476.212 1115.51 511.663 1115.51V1108.77ZM454.091 1051.19C454.091 1019.47 479.938 993.622 511.663 993.622V986.875C476.212 986.875 447.343 1015.74 447.343 1051.19H454.091ZM823.176 956.39L825.458 958.875L831.837 953.016H823.176V956.39ZM773.065 956.39V953.016H771.751L770.783 953.905L773.065 956.39ZM720.245 1004.88L722.521 1007.37L722.526 1007.36L720.245 1004.88ZM695.054 1027.9L697.328 1030.39L697.33 1030.39L695.054 1027.9ZM667.154 1053.36H663.78V1061.01L669.428 1055.85L667.154 1053.36ZM667.154 956.39H670.528V953.016H667.154V956.39ZM633.295 956.39V953.016H629.921V956.39H633.295ZM633.295 1146H629.921V1149.37H633.295V1146ZM667.154 1146V1149.37H670.528V1146H667.154ZM667.154 1099.14L664.884 1096.64L663.78 1097.65V1099.14H667.154ZM715.098 1055.53L717.83 1053.55L715.618 1050.5L712.828 1053.03L715.098 1055.53ZM780.649 1146L777.917 1147.98L778.927 1149.37H780.649V1146ZM822.363 1146V1149.37H828.966L825.097 1144.02L822.363 1146ZM740.289 1032.5L738.007 1030.02L735.797 1032.05L737.556 1034.48L740.289 1032.5ZM823.176 953.016H773.065V959.763H823.176V953.016ZM770.783 953.905L717.963 1002.39L722.526 1007.36L775.346 958.875L770.783 953.905ZM717.969 1002.39L692.778 1025.41L697.33 1030.39L722.521 1007.37L717.969 1002.39ZM692.78 1025.41L664.88 1050.87L669.428 1055.85L697.328 1030.39L692.78 1025.41ZM670.528 1053.36V956.39H663.78V1053.36H670.528ZM667.154 953.016H633.295V959.763H667.154V953.016ZM629.921 956.39V1146H636.669V956.39H629.921ZM633.295 1149.37H667.154V1142.63H633.295V1149.37ZM670.528 1146V1099.14H663.78V1146H670.528ZM669.424 1101.63L717.368 1058.02L712.828 1053.03L664.884 1096.64L669.424 1101.63ZM712.366 1057.51L777.917 1147.98L783.381 1144.02L717.83 1053.55L712.366 1057.51ZM780.649 1149.37H822.363V1142.63H780.649V1149.37ZM825.097 1144.02L743.023 1030.53L737.556 1034.48L819.63 1147.98L825.097 1144.02ZM742.571 1034.99L825.458 958.875L820.894 953.905L738.007 1030.02L742.571 1034.99ZM991.148 956.39V953.016H987.774V956.39H991.148ZM869.256 1059.32H872.629V1055.95H869.256V1059.32ZM835.397 1059.32V1055.95H832.023V1059.32H835.397ZM1025.01 956.39H1028.38V953.016H1025.01V956.39ZM987.774 956.39V1094.81H994.522V956.39H987.774ZM987.774 1094.81C987.774 1102.42 981.43 1108.77 973.812 1108.77V1115.51C985.156 1115.51 994.522 1106.15 994.522 1094.81H987.774ZM973.812 1108.77H886.592V1115.51H973.812V1108.77ZM886.592 1108.77C878.974 1108.77 872.629 1102.42 872.629 1094.81H865.882C865.882 1106.15 875.248 1115.51 886.592 1115.51V1108.77ZM872.629 1094.81V1059.32H865.882V1094.81H872.629ZM869.256 1055.95H835.397V1062.69H869.256V1055.95ZM832.023 1059.32V1094.81H838.771V1059.32H832.023ZM832.023 1094.81C832.023 1124.86 856.581 1149.1 886.592 1149.1V1142.36C860.261 1142.36 838.771 1121.09 838.771 1094.81H832.023ZM886.592 1149.1H973.812V1142.36H886.592V1149.1ZM973.812 1149.1C1003.82 1149.1 1028.38 1124.86 1028.38 1094.81H1021.63C1021.63 1121.09 1000.14 1142.36 973.812 1142.36V1149.1ZM1028.38 1094.81V956.39H1021.63V1094.81H1028.38ZM1025.01 953.016H991.148V959.763H1025.01V953.016ZM1207.79 956.39V953.016H1204.42V956.39H1207.79ZM1085.9 956.39H1089.27V953.016H1085.9V956.39ZM1052.04 956.39V953.016H1048.67V956.39H1052.04ZM1241.65 956.39H1245.03V953.016H1241.65V956.39ZM1204.42 956.39V1051.19H1211.17V956.39H1204.42ZM1204.42 1051.19C1204.42 1082.92 1178.57 1108.77 1146.85 1108.77V1115.51C1182.3 1115.51 1211.17 1086.65 1211.17 1051.19H1204.42ZM1146.85 1108.77C1115.12 1108.77 1089.27 1082.92 1089.27 1051.19H1082.53C1082.53 1086.65 1111.4 1115.51 1146.85 1115.51V1108.77ZM1089.27 1051.19V956.39H1082.53V1051.19H1089.27ZM1085.9 953.016H1052.04V959.763H1085.9V953.016ZM1048.67 956.39V1051.19H1055.41V956.39H1048.67ZM1048.67 1051.19C1048.67 1105.34 1092.7 1149.37 1146.85 1149.37V1142.63C1096.43 1142.63 1055.41 1101.61 1055.41 1051.19H1048.67ZM1146.85 1149.37C1200.99 1149.37 1245.03 1105.34 1245.03 1051.19H1238.28C1238.28 1101.61 1197.26 1142.63 1146.85 1142.63V1149.37ZM1245.03 1051.19V956.39H1238.28V1051.19H1245.03ZM1241.65 953.016H1207.79V959.763H1241.65V953.016ZM1268.69 956.39L1268.7 953.016L1265.31 953.007V956.39H1268.69ZM1268.69 1146H1265.31V1149.37H1268.69V1146ZM1430.13 1118.1L1427.74 1115.71L1427.73 1115.72L1427.72 1115.73L1430.13 1118.1ZM1435.54 1112.41L1438.1 1114.61L1438.11 1114.6L1435.54 1112.41ZM1363.22 956.661L1363.21 960.034H1363.22V956.661ZM1302.27 990.52V987.146H1298.9V990.52H1302.27ZM1302.27 1112.41H1298.9V1115.79H1302.27V1112.41ZM1265.31 956.39V1146H1272.06V956.39H1265.31ZM1268.69 1149.37H1363.49V1142.63H1268.69V1149.37ZM1363.49 1149.37C1390.43 1149.37 1414.85 1138.42 1432.53 1120.47L1427.72 1115.73C1411.27 1132.45 1388.56 1142.63 1363.49 1142.63V1149.37ZM1432.51 1120.49C1434.39 1118.61 1436.38 1116.62 1438.1 1114.61L1432.98 1110.22C1431.46 1112 1429.66 1113.8 1427.74 1115.71L1432.51 1120.49ZM1438.11 1114.6C1452.7 1097.48 1461.4 1075.31 1461.4 1051.19H1454.65C1454.65 1073.67 1446.55 1094.29 1432.98 1110.22L1438.11 1114.6ZM1461.4 1051.19C1461.4 997.041 1417.35 953.287 1363.22 953.287V960.034C1413.65 960.034 1454.65 1000.79 1454.65 1051.19H1461.4ZM1363.23 953.287L1268.7 953.016L1268.68 959.763L1363.21 960.034L1363.23 953.287ZM1302.27 993.893H1363.22V987.146H1302.27V993.893ZM1363.22 993.893C1394.94 993.893 1420.79 1019.74 1420.79 1051.47H1427.54C1427.54 1016.01 1398.67 987.146 1363.22 987.146V993.893ZM1420.79 1051.47C1420.79 1083.19 1394.94 1109.04 1363.22 1109.04V1115.79C1398.67 1115.79 1427.54 1086.92 1427.54 1051.47H1420.79ZM1363.22 1109.04H1302.27V1115.79H1363.22V1109.04ZM1305.65 1112.41V990.52H1298.9V1112.41H1305.65ZM1674.94 990.249V993.622H1678.31V990.249H1674.94ZM1674.94 956.39H1678.31V953.016H1674.94V956.39ZM1674.94 1146V1149.37H1678.31V1146H1674.94ZM1674.94 1041.99H1678.31V1038.61H1674.94V1041.99ZM1580.14 1041.99V1038.61H1576.76V1041.99H1580.14ZM1580.14 1075.84H1576.76V1079.22H1580.14V1075.84ZM1641.08 1075.84H1644.45V1072.47H1641.08V1075.84ZM1641.08 1112.14V1115.51H1644.45V1112.14H1641.08ZM1580.14 993.622H1674.94V986.875H1580.14V993.622ZM1678.31 990.249V956.39H1671.57V990.249H1678.31ZM1674.94 953.016H1580.14V959.763H1674.94V953.016ZM1580.14 953.016C1525.99 953.016 1481.96 997.054 1481.96 1051.19H1488.7C1488.7 1000.78 1529.72 959.763 1580.14 959.763V953.016ZM1481.96 1051.19C1481.96 1105.34 1525.99 1149.37 1580.14 1149.37V1142.63C1529.72 1142.63 1488.7 1101.61 1488.7 1051.19H1481.96ZM1580.14 1149.37H1674.94V1142.63H1580.14V1149.37ZM1678.31 1146V1041.99H1671.57V1146H1678.31ZM1674.94 1038.61H1580.14V1045.36H1674.94V1038.61ZM1576.76 1041.99V1075.84H1583.51V1041.99H1576.76ZM1580.14 1079.22H1641.08V1072.47H1580.14V1079.22ZM1637.71 1075.84V1112.14H1644.45V1075.84H1637.71ZM1641.08 1108.77H1580.14V1115.51H1641.08V1108.77ZM1580.14 1108.77C1548.41 1108.77 1522.56 1082.92 1522.56 1051.19H1515.82C1515.82 1086.65 1544.68 1115.51 1580.14 1115.51V1108.77ZM1522.56 1051.19C1522.56 1019.47 1548.41 993.622 1580.14 993.622V986.875C1544.68 986.875 1515.82 1015.74 1515.82 1051.19H1522.56ZM1891.58 990.249V993.622H1894.96V990.249H1891.58ZM1891.58 956.39H1894.96V953.016H1891.58V956.39ZM1891.58 1146V1149.37H1894.96V1146H1891.58ZM1891.58 1112.14H1894.96V1108.77H1891.58V1112.14ZM1735.83 1059.05V1055.68H1732.46V1059.05H1735.83ZM1857.73 1059.05V1062.42H1861.1V1059.05H1857.73ZM1857.73 1025.19H1861.1V1021.82H1857.73V1025.19ZM1735.83 1025.19H1732.46V1028.56H1735.83V1025.19ZM1753.17 993.622H1891.58V986.875H1753.17V993.622ZM1894.96 990.249V956.39H1888.21V990.249H1894.96ZM1891.58 953.016H1753.17V959.763H1891.58V953.016ZM1753.17 953.016C1723.11 953.016 1698.87 977.574 1698.87 1007.58H1705.62C1705.62 981.254 1726.88 959.763 1753.17 959.763V953.016ZM1698.87 1007.58V1094.81H1705.62V1007.58H1698.87ZM1698.87 1094.81C1698.87 1124.82 1723.11 1149.37 1753.17 1149.37V1142.63C1726.88 1142.63 1705.62 1121.14 1705.62 1094.81H1698.87ZM1753.17 1149.37H1891.58V1142.63H1753.17V1149.37ZM1894.96 1146V1112.14H1888.21V1146H1894.96ZM1891.58 1108.77H1753.17V1115.51H1891.58V1108.77ZM1753.17 1108.77C1745.55 1108.77 1739.21 1102.42 1739.21 1094.81H1732.46C1732.46 1106.15 1741.83 1115.51 1753.17 1115.51V1108.77ZM1739.21 1094.81V1059.05H1732.46V1094.81H1739.21ZM1735.83 1062.42H1857.73V1055.68H1735.83V1062.42ZM1861.1 1059.05V1025.19H1854.35V1059.05H1861.1ZM1857.73 1021.82H1735.83V1028.56H1857.73V1021.82ZM1739.21 1025.19V1007.58H1732.46V1025.19H1739.21ZM1739.21 1007.58C1739.21 999.967 1745.55 993.622 1753.17 993.622V986.875C1741.83 986.875 1732.46 996.241 1732.46 1007.58H1739.21Z" fill="white" fill-opacity="0.11"/>
<path d="M540.295 725.39V722.016H536.921V725.39H540.295ZM540.295 794.191V797.565H543.668V794.191H540.295ZM418.403 794.191H415.029V797.565H418.403V794.191ZM418.403 725.39H421.776V722.016H418.403V725.39ZM384.544 725.39V722.016H381.17V725.39H384.544ZM384.544 915H381.17V918.374H384.544V915ZM418.403 915V918.374H421.776V915H418.403ZM418.403 828.05V824.677H415.029V828.05H418.403ZM540.295 828.05H543.668V824.677H540.295V828.05ZM540.295 915H536.921V918.374H540.295V915ZM574.154 915V918.374H577.527V915H574.154ZM574.154 725.39H577.527V722.016H574.154V725.39ZM536.921 725.39V794.191H543.668V725.39H536.921ZM540.295 790.818H418.403V797.565H540.295V790.818ZM421.776 794.191V725.39H415.029V794.191H421.776ZM418.403 722.016H384.544V728.763H418.403V722.016ZM381.17 725.39V915H387.917V725.39H381.17ZM384.544 918.374H418.403V911.626H384.544V918.374ZM421.776 915V828.05H415.029V915H421.776ZM418.403 831.424H540.295V824.677H418.403V831.424ZM536.921 828.05V915H543.668V828.05H536.921ZM540.295 918.374H574.154V911.626H540.295V918.374ZM577.527 915V725.39H570.78V915H577.527ZM574.154 722.016H540.295V728.763H574.154V722.016ZM766.69 881.141L763.685 882.673L763.688 882.679L766.69 881.141ZM687.325 725.39L690.331 723.858L687.325 717.959L684.319 723.858L687.325 725.39ZM607.96 881.141L610.963 882.679L610.966 882.673L607.96 881.141ZM590.624 915L587.621 913.463L585.107 918.374H590.624V915ZM628.546 915V918.374H630.609L631.549 916.537L628.546 915ZM645.882 881.141L648.885 882.679L648.887 882.674L645.882 881.141ZM687.325 799.88L690.33 798.347L687.325 792.454L684.32 798.347L687.325 799.88ZM728.768 881.141L725.763 882.674L725.766 882.679L728.768 881.141ZM746.104 915L743.101 916.537L744.041 918.374H746.104V915ZM784.026 915V918.374H789.544L787.029 913.463L784.026 915ZM769.696 879.609L690.331 723.858L684.319 726.922L763.685 882.673L769.696 879.609ZM684.319 723.858L604.954 879.609L610.966 882.673L690.331 726.922L684.319 723.858ZM604.957 879.604L587.621 913.463L593.627 916.537L610.963 882.679L604.957 879.604ZM590.624 918.374H628.546V911.626H590.624V918.374ZM631.549 916.537L648.885 882.679L642.879 879.604L625.543 913.463L631.549 916.537ZM648.887 882.674L690.33 801.412L684.32 798.347L642.876 879.608L648.887 882.674ZM684.32 801.412L725.763 882.674L731.774 879.608L690.33 798.347L684.32 801.412ZM725.766 882.679L743.101 916.537L749.107 913.463L731.771 879.604L725.766 882.679ZM746.104 918.374H784.026V911.626H746.104V918.374ZM787.029 913.463L769.693 879.604L763.688 882.679L781.023 916.537L787.029 913.463ZM963.468 759.249V762.622H966.842V759.249H963.468ZM963.468 725.39H966.842V722.016H963.468V725.39ZM963.468 915V918.374H966.842V915H963.468ZM963.468 881.141H966.842V877.767H963.468V881.141ZM868.663 762.622H963.468V755.875H868.663V762.622ZM966.842 759.249V725.39H960.094V759.249H966.842ZM963.468 722.016H868.663V728.763H963.468V722.016ZM868.663 722.016C814.522 722.016 770.484 766.054 770.484 820.195H777.232C777.232 769.78 818.248 728.763 868.663 728.763V722.016ZM770.484 820.195C770.484 874.336 814.522 918.374 868.663 918.374V911.626C818.248 911.626 777.232 870.61 777.232 820.195H770.484ZM868.663 918.374H963.468V911.626H868.663V918.374ZM966.842 915V881.141H960.094V915H966.842ZM963.468 877.767H868.663V884.515H963.468V877.767ZM868.663 877.767C836.938 877.767 811.091 851.92 811.091 820.195H804.343C804.343 855.646 833.212 884.515 868.663 884.515V877.767ZM811.091 820.195C811.091 788.47 836.938 762.622 868.663 762.622V755.875C833.212 755.875 804.343 784.744 804.343 820.195H811.091ZM1180.18 725.39L1182.46 727.875L1188.84 722.016H1180.18V725.39ZM1130.06 725.39V722.016H1128.75L1127.78 722.905L1130.06 725.39ZM1077.24 773.876L1079.52 776.366L1079.53 776.361L1077.24 773.876ZM1052.05 796.9L1054.33 799.392L1054.33 799.39L1052.05 796.9ZM1024.15 822.362H1020.78V830.008L1026.43 824.854L1024.15 822.362ZM1024.15 725.39H1027.53V722.016H1024.15V725.39ZM990.295 725.39V722.016H986.921V725.39H990.295ZM990.295 915H986.921V918.374H990.295V915ZM1024.15 915V918.374H1027.53V915H1024.15ZM1024.15 868.139L1021.88 865.644L1020.78 866.647V868.139H1024.15ZM1072.1 824.529L1074.83 822.549L1072.62 819.496L1069.83 822.033L1072.1 824.529ZM1137.65 915L1134.92 916.979L1135.93 918.374H1137.65V915ZM1179.36 915V918.374H1185.97L1182.1 913.023L1179.36 915ZM1097.29 801.505L1095.01 799.02L1092.8 801.05L1094.56 803.482L1097.29 801.505ZM1180.18 722.016H1130.06V728.763H1180.18V722.016ZM1127.78 722.905L1074.96 771.391L1079.53 776.361L1132.35 727.875L1127.78 722.905ZM1074.97 771.386L1049.78 794.41L1054.33 799.39L1079.52 776.366L1074.97 771.386ZM1049.78 794.408L1021.88 819.87L1026.43 824.854L1054.33 799.392L1049.78 794.408ZM1027.53 822.362V725.39H1020.78V822.362H1027.53ZM1024.15 722.016H990.295V728.763H1024.15V722.016ZM986.921 725.39V915H993.669V725.39H986.921ZM990.295 918.374H1024.15V911.626H990.295V918.374ZM1027.53 915V868.139H1020.78V915H1027.53ZM1026.42 870.635L1074.37 827.025L1069.83 822.033L1021.88 865.644L1026.42 870.635ZM1069.37 826.508L1134.92 916.979L1140.38 913.021L1074.83 822.549L1069.37 826.508ZM1137.65 918.374H1179.36V911.626H1137.65V918.374ZM1182.1 913.023L1100.02 799.528L1094.56 803.482L1176.63 916.977L1182.1 913.023ZM1099.57 803.99L1182.46 727.875L1177.89 722.905L1095.01 799.02L1099.57 803.99ZM1348.15 725.39V722.016H1344.77V725.39H1348.15ZM1226.26 828.321H1229.63V824.947H1226.26V828.321ZM1192.4 828.321V824.947H1189.02V828.321H1192.4ZM1382.01 725.39H1385.38V722.016H1382.01V725.39ZM1344.77 725.39V863.805H1351.52V725.39H1344.77ZM1344.77 863.805C1344.77 871.423 1338.43 877.767 1330.81 877.767V884.515C1342.16 884.515 1351.52 875.149 1351.52 863.805H1344.77ZM1330.81 877.767H1243.59V884.515H1330.81V877.767ZM1243.59 877.767C1235.97 877.767 1229.63 871.423 1229.63 863.805H1222.88C1222.88 875.149 1232.25 884.515 1243.59 884.515V877.767ZM1229.63 863.805V828.321H1222.88V863.805H1229.63ZM1226.26 824.947H1192.4V831.695H1226.26V824.947ZM1189.02 828.321V863.805H1195.77V828.321H1189.02ZM1189.02 863.805C1189.02 893.862 1213.58 918.103 1243.59 918.103V911.356C1217.26 911.356 1195.77 890.089 1195.77 863.805H1189.02ZM1243.59 918.103H1330.81V911.356H1243.59V918.103ZM1330.81 918.103C1360.82 918.103 1385.38 893.862 1385.38 863.805H1378.63C1378.63 890.089 1357.14 911.356 1330.81 911.356V918.103ZM1385.38 863.805V725.39H1378.63V863.805H1385.38ZM1382.01 722.016H1348.15V728.763H1382.01V722.016ZM1564.79 725.39V722.016H1561.42V725.39H1564.79ZM1442.9 725.39H1446.27V722.016H1442.9V725.39ZM1409.04 725.39V722.016H1405.67V725.39H1409.04ZM1598.65 725.39H1602.03V722.016H1598.65V725.39ZM1561.42 725.39V820.195H1568.17V725.39H1561.42ZM1561.42 820.195C1561.42 851.92 1535.57 877.767 1503.85 877.767V884.515C1539.3 884.515 1568.17 855.646 1568.17 820.195H1561.42ZM1503.85 877.767C1472.12 877.767 1446.27 851.92 1446.27 820.195H1439.53C1439.53 855.646 1468.4 884.515 1503.85 884.515V877.767ZM1446.27 820.195V725.39H1439.53V820.195H1446.27ZM1442.9 722.016H1409.04V728.763H1442.9V722.016ZM1405.67 725.39V820.195H1412.41V725.39H1405.67ZM1405.67 820.195C1405.67 874.336 1449.7 918.374 1503.85 918.374V911.626C1453.43 911.626 1412.41 870.61 1412.41 820.195H1405.67ZM1503.85 918.374C1557.99 918.374 1602.03 874.336 1602.03 820.195H1595.28C1595.28 870.61 1554.26 911.626 1503.85 911.626V918.374ZM1602.03 820.195V725.39H1595.28V820.195H1602.03ZM1598.65 722.016H1564.79V728.763H1598.65V722.016ZM1625.69 725.39L1625.7 722.016L1622.31 722.007V725.39H1625.69ZM1625.69 915H1622.31V918.374H1625.69V915ZM1787.13 887.1L1784.74 884.715L1784.73 884.724L1784.72 884.734L1787.13 887.1ZM1792.54 881.412L1795.1 883.607L1795.11 883.6L1792.54 881.412ZM1720.22 725.661L1720.21 729.034H1720.22V725.661ZM1659.27 759.52V756.146H1655.9V759.52H1659.27ZM1659.27 881.412H1655.9V884.786H1659.27V881.412ZM1622.31 725.39V915H1629.06V725.39H1622.31ZM1625.69 918.374H1720.49V911.626H1625.69V918.374ZM1720.49 918.374C1747.43 918.374 1771.85 907.424 1789.53 889.467L1784.72 884.734C1768.27 901.448 1745.56 911.626 1720.49 911.626V918.374ZM1789.51 889.486C1791.39 887.61 1793.38 885.62 1795.1 883.607L1789.98 879.216C1788.46 880.996 1786.66 882.798 1784.74 884.715L1789.51 889.486ZM1795.11 883.6C1809.7 866.484 1818.4 844.315 1818.4 820.195H1811.65C1811.65 842.665 1803.55 863.293 1789.98 879.223L1795.11 883.6ZM1818.4 820.195C1818.4 766.041 1774.35 722.287 1720.22 722.287V729.034C1770.65 729.034 1811.65 769.792 1811.65 820.195H1818.4ZM1720.23 722.287L1625.7 722.016L1625.68 728.763L1720.21 729.034L1720.23 722.287ZM1659.27 762.893H1720.22V756.146H1659.27V762.893ZM1720.22 762.893C1751.94 762.893 1777.79 788.741 1777.79 820.466H1784.54C1784.54 785.015 1755.67 756.146 1720.22 756.146V762.893ZM1777.79 820.466C1777.79 852.191 1751.94 878.038 1720.22 878.038V884.786C1755.67 884.786 1784.54 855.917 1784.54 820.466H1777.79ZM1720.22 878.038H1659.27V884.786H1720.22V878.038ZM1662.65 881.412V759.52H1655.9V881.412H1662.65ZM2031.94 759.249V762.622H2035.31V759.249H2031.94ZM2031.94 725.39H2035.31V722.016H2031.94V725.39ZM2031.94 915V918.374H2035.31V915H2031.94ZM2031.94 810.985H2035.31V807.612H2031.94V810.985ZM1937.14 810.985V807.612H1933.76V810.985H1937.14ZM1937.14 844.844H1933.76V848.218H1937.14V844.844ZM1998.08 844.844H2001.45V841.471H1998.08V844.844ZM1998.08 881.141V884.515H2001.45V881.141H1998.08ZM1937.14 762.622H2031.94V755.875H1937.14V762.622ZM2035.31 759.249V725.39H2028.57V759.249H2035.31ZM2031.94 722.016H1937.14V728.763H2031.94V722.016ZM1937.14 722.016C1882.99 722.016 1838.96 766.054 1838.96 820.195H1845.7C1845.7 769.78 1886.72 728.763 1937.14 728.763V722.016ZM1838.96 820.195C1838.96 874.336 1882.99 918.374 1937.14 918.374V911.626C1886.72 911.626 1845.7 870.61 1845.7 820.195H1838.96ZM1937.14 918.374H2031.94V911.626H1937.14V918.374ZM2035.31 915V810.985H2028.57V915H2035.31ZM2031.94 807.612H1937.14V814.359H2031.94V807.612ZM1933.76 810.985V844.844H1940.51V810.985H1933.76ZM1937.14 848.218H1998.08V841.471H1937.14V848.218ZM1994.71 844.844V881.141H2001.45V844.844H1994.71ZM1998.08 877.767H1937.14V884.515H1998.08V877.767ZM1937.14 877.767C1905.41 877.767 1879.56 851.92 1879.56 820.195H1872.82C1872.82 855.646 1901.68 884.515 1937.14 884.515V877.767ZM1879.56 820.195C1879.56 788.47 1905.41 762.622 1937.14 762.622V755.875C1901.68 755.875 1872.82 784.744 1872.82 820.195H1879.56ZM2248.58 759.249V762.622H2251.96V759.249H2248.58ZM2248.58 725.39H2251.96V722.016H2248.58V725.39ZM2248.58 915V918.374H2251.96V915H2248.58ZM2248.58 881.141H2251.96V877.767H2248.58V881.141ZM2092.83 828.05V824.677H2089.46V828.05H2092.83ZM2214.73 828.05V831.424H2218.1V828.05H2214.73ZM2214.73 794.191H2218.1V790.818H2214.73V794.191ZM2092.83 794.191H2089.46V797.565H2092.83V794.191ZM2110.17 762.622H2248.58V755.875H2110.17V762.622ZM2251.96 759.249V725.39H2245.21V759.249H2251.96ZM2248.58 722.016H2110.17V728.763H2248.58V722.016ZM2110.17 722.016C2080.11 722.016 2055.87 746.574 2055.87 776.585H2062.62C2062.62 750.254 2083.88 728.763 2110.17 728.763V722.016ZM2055.87 776.585V863.805H2062.62V776.585H2055.87ZM2055.87 863.805C2055.87 893.816 2080.11 918.374 2110.17 918.374V911.626C2083.88 911.626 2062.62 890.136 2062.62 863.805H2055.87ZM2110.17 918.374H2248.58V911.626H2110.17V918.374ZM2251.96 915V881.141H2245.21V915H2251.96ZM2248.58 877.767H2110.17V884.515H2248.58V877.767ZM2110.17 877.767C2102.55 877.767 2096.21 871.423 2096.21 863.805H2089.46C2089.46 875.149 2098.83 884.515 2110.17 884.515V877.767ZM2096.21 863.805V828.05H2089.46V863.805H2096.21ZM2092.83 831.424H2214.73V824.677H2092.83V831.424ZM2218.1 828.05V794.191H2211.35V828.05H2218.1ZM2214.73 790.818H2092.83V797.565H2214.73V790.818ZM2096.21 794.191V776.585H2089.46V794.191H2096.21ZM2096.21 776.585C2096.21 768.967 2102.55 762.622 2110.17 762.622V755.875C2098.83 755.875 2089.46 765.241 2089.46 776.585H2096.21Z" fill="white" fill-opacity="0.11"/>
<path d="M-130.705 474.39V471.016H-134.079V474.39H-130.705ZM-130.705 543.191V546.565H-127.332V543.191H-130.705ZM-252.597 543.191H-255.971V546.565H-252.597V543.191ZM-252.597 474.39H-249.224V471.016H-252.597V474.39ZM-286.456 474.39V471.016H-289.83V474.39H-286.456ZM-286.456 664H-289.83V667.374H-286.456V664ZM-252.597 664V667.374H-249.224V664H-252.597ZM-252.597 577.05V573.677H-255.971V577.05H-252.597ZM-130.705 577.05H-127.332V573.677H-130.705V577.05ZM-130.705 664H-134.079V667.374H-130.705V664ZM-96.8463 664V667.374H-93.4727V664H-96.8463ZM-96.8463 474.39H-93.4727V471.016H-96.8463V474.39ZM-134.079 474.39V543.191H-127.332V474.39H-134.079ZM-130.705 539.818H-252.597V546.565H-130.705V539.818ZM-249.224 543.191V474.39H-255.971V543.191H-249.224ZM-252.597 471.016H-286.456V477.763H-252.597V471.016ZM-289.83 474.39V664H-283.083V474.39H-289.83ZM-286.456 667.374H-252.597V660.626H-286.456V667.374ZM-249.224 664V577.05H-255.971V664H-249.224ZM-252.597 580.424H-130.705V573.677H-252.597V580.424ZM-134.079 577.05V664H-127.332V577.05H-134.079ZM-130.705 667.374H-96.8463V660.626H-130.705V667.374ZM-93.4727 664V474.39H-100.22V664H-93.4727ZM-96.8463 471.016H-130.705V477.763H-96.8463V471.016ZM95.6905 630.141L92.6846 631.673L92.6876 631.679L95.6905 630.141ZM16.3251 474.39L19.331 472.858L16.3251 466.959L13.3193 472.858L16.3251 474.39ZM-63.0403 630.141L-60.0374 631.679L-60.0344 631.673L-63.0403 630.141ZM-80.3761 664L-83.3789 662.463L-85.8934 667.374H-80.3761V664ZM-42.454 664V667.374H-40.3912L-39.4511 665.537L-42.454 664ZM-25.1183 630.141L-22.1154 631.679L-22.1129 631.674L-25.1183 630.141ZM16.3251 548.88L19.3304 547.347L16.3251 541.454L13.3198 547.347L16.3251 548.88ZM57.7685 630.141L54.7632 631.674L54.7656 631.679L57.7685 630.141ZM75.1042 664L72.1014 665.537L73.0415 667.374H75.1042V664ZM113.026 664V667.374H118.544L116.029 662.463L113.026 664ZM98.6963 628.609L19.331 472.858L13.3193 475.922L92.6846 631.673L98.6963 628.609ZM13.3193 472.858L-66.0461 628.609L-60.0344 631.673L19.331 475.922L13.3193 472.858ZM-66.0432 628.604L-83.3789 662.463L-77.3732 665.537L-60.0374 631.679L-66.0432 628.604ZM-80.3761 667.374H-42.454V660.626H-80.3761V667.374ZM-39.4511 665.537L-22.1154 631.679L-28.1211 628.604L-45.4569 662.463L-39.4511 665.537ZM-22.1129 631.674L19.3304 550.412L13.3198 547.347L-28.1236 628.608L-22.1129 631.674ZM13.3198 550.412L54.7632 631.674L60.7738 628.608L19.3304 547.347L13.3198 550.412ZM54.7656 631.679L72.1014 665.537L78.1071 662.463L60.7714 628.604L54.7656 631.679ZM75.1042 667.374H113.026V660.626H75.1042V667.374ZM116.029 662.463L98.6934 628.604L92.6876 631.679L110.023 665.537L116.029 662.463ZM292.468 508.249V511.622H295.842V508.249H292.468ZM292.468 474.39H295.842V471.016H292.468V474.39ZM292.468 664V667.374H295.842V664H292.468ZM292.468 630.141H295.842V626.767H292.468V630.141ZM197.663 511.622H292.468V504.875H197.663V511.622ZM295.842 508.249V474.39H289.094V508.249H295.842ZM292.468 471.016H197.663V477.763H292.468V471.016ZM197.663 471.016C143.522 471.016 99.4844 515.054 99.4844 569.195H106.232C106.232 518.78 147.248 477.763 197.663 477.763V471.016ZM99.4844 569.195C99.4844 623.336 143.522 667.374 197.663 667.374V660.626C147.248 660.626 106.232 619.61 106.232 569.195H99.4844ZM197.663 667.374H292.468V660.626H197.663V667.374ZM295.842 664V630.141H289.094V664H295.842ZM292.468 626.767H197.663V633.515H292.468V626.767ZM197.663 626.767C165.938 626.767 140.091 600.92 140.091 569.195H133.343C133.343 604.646 162.212 633.515 197.663 633.515V626.767ZM140.091 569.195C140.091 537.47 165.938 511.622 197.663 511.622V504.875C162.212 504.875 133.343 533.744 133.343 569.195H140.091ZM509.176 474.39L511.458 476.875L517.837 471.016H509.176V474.39ZM459.065 474.39V471.016H457.751L456.783 471.905L459.065 474.39ZM406.245 522.876L408.521 525.366L408.526 525.361L406.245 522.876ZM381.054 545.9L383.328 548.392L383.33 548.39L381.054 545.9ZM353.154 571.362H349.78V579.008L355.428 573.854L353.154 571.362ZM353.154 474.39H356.528V471.016H353.154V474.39ZM319.295 474.39V471.016H315.921V474.39H319.295ZM319.295 664H315.921V667.374H319.295V664ZM353.154 664V667.374H356.528V664H353.154ZM353.154 617.139L350.884 614.644L349.78 615.647V617.139H353.154ZM401.098 573.529L403.83 571.549L401.618 568.496L398.828 571.033L401.098 573.529ZM466.649 664L463.917 665.979L464.927 667.374H466.649V664ZM508.363 664V667.374H514.966L511.097 662.023L508.363 664ZM426.289 550.505L424.007 548.02L421.797 550.05L423.556 552.482L426.289 550.505ZM509.176 471.016H459.065V477.763H509.176V471.016ZM456.783 471.905L403.963 520.391L408.526 525.361L461.346 476.875L456.783 471.905ZM403.969 520.386L378.778 543.41L383.33 548.39L408.521 525.366L403.969 520.386ZM378.78 543.408L350.88 568.87L355.428 573.854L383.328 548.392L378.78 543.408ZM356.528 571.362V474.39H349.78V571.362H356.528ZM353.154 471.016H319.295V477.763H353.154V471.016ZM315.921 474.39V664H322.669V474.39H315.921ZM319.295 667.374H353.154V660.626H319.295V667.374ZM356.528 664V617.139H349.78V664H356.528ZM355.424 619.635L403.368 576.025L398.828 571.033L350.884 614.644L355.424 619.635ZM398.366 575.508L463.917 665.979L469.381 662.021L403.83 571.549L398.366 575.508ZM466.649 667.374H508.363V660.626H466.649V667.374ZM511.097 662.023L429.023 548.528L423.556 552.482L505.63 665.977L511.097 662.023ZM428.571 552.99L511.458 476.875L506.894 471.905L424.007 548.02L428.571 552.99ZM677.148 474.39V471.016H673.774V474.39H677.148ZM555.256 577.321H558.629V573.947H555.256V577.321ZM521.397 577.321V573.947H518.023V577.321H521.397ZM711.007 474.39H714.381V471.016H711.007V474.39ZM673.774 474.39V612.805H680.522V474.39H673.774ZM673.774 612.805C673.774 620.423 667.43 626.767 659.812 626.767V633.515C671.156 633.515 680.522 624.149 680.522 612.805H673.774ZM659.812 626.767H572.592V633.515H659.812V626.767ZM572.592 626.767C564.974 626.767 558.629 620.423 558.629 612.805H551.882C551.882 624.149 561.248 633.515 572.592 633.515V626.767ZM558.629 612.805V577.321H551.882V612.805H558.629ZM555.256 573.947H521.397V580.695H555.256V573.947ZM518.023 577.321V612.805H524.771V577.321H518.023ZM518.023 612.805C518.023 642.862 542.581 667.103 572.592 667.103V660.356C546.261 660.356 524.771 639.089 524.771 612.805H518.023ZM572.592 667.103H659.812V660.356H572.592V667.103ZM659.812 667.103C689.823 667.103 714.381 642.862 714.381 612.805H707.633C707.633 639.089 686.143 660.356 659.812 660.356V667.103ZM714.381 612.805V474.39H707.633V612.805H714.381ZM711.007 471.016H677.148V477.763H711.007V471.016ZM893.792 474.39V471.016H890.419V474.39H893.792ZM771.9 474.39H775.274V471.016H771.9V474.39ZM738.041 474.39V471.016H734.668V474.39H738.041ZM927.651 474.39H931.025V471.016H927.651V474.39ZM890.419 474.39V569.195H897.166V474.39H890.419ZM890.419 569.195C890.419 600.92 864.571 626.767 832.846 626.767V633.515C868.298 633.515 897.166 604.646 897.166 569.195H890.419ZM832.846 626.767C801.121 626.767 775.274 600.92 775.274 569.195H768.527C768.527 604.646 797.395 633.515 832.846 633.515V626.767ZM775.274 569.195V474.39H768.527V569.195H775.274ZM771.9 471.016H738.041V477.763H771.9V471.016ZM734.668 474.39V569.195H741.415V474.39H734.668ZM734.668 569.195C734.668 623.336 778.705 667.374 832.846 667.374V660.626C782.431 660.626 741.415 619.61 741.415 569.195H734.668ZM832.846 667.374C886.988 667.374 931.025 623.336 931.025 569.195H924.278C924.278 619.61 883.261 660.626 832.846 660.626V667.374ZM931.025 569.195V474.39H924.278V569.195H931.025ZM927.651 471.016H893.792V477.763H927.651V471.016ZM954.686 474.39L954.695 471.016L951.312 471.007V474.39H954.686ZM954.686 664H951.312V667.374H954.686V664ZM1116.13 636.1L1113.74 633.715L1113.73 633.724L1113.72 633.734L1116.13 636.1ZM1121.54 630.412L1124.1 632.607L1124.11 632.6L1121.54 630.412ZM1049.22 474.661L1049.21 478.034H1049.22V474.661ZM988.274 508.52V505.146H984.9V508.52H988.274ZM988.274 630.412H984.9V633.786H988.274V630.412ZM951.312 474.39V664H958.059V474.39H951.312ZM954.686 667.374H1049.49V660.626H954.686V667.374ZM1049.49 667.374C1076.43 667.374 1100.85 656.424 1118.53 638.467L1113.72 633.734C1097.27 650.448 1074.56 660.626 1049.49 660.626V667.374ZM1118.51 638.486C1120.39 636.61 1122.38 634.62 1124.1 632.607L1118.98 628.216C1117.46 629.996 1115.66 631.798 1113.74 633.715L1118.51 638.486ZM1124.11 632.6C1138.7 615.484 1147.4 593.315 1147.4 569.195H1140.65C1140.65 591.665 1132.55 612.293 1118.98 628.223L1124.11 632.6ZM1147.4 569.195C1147.4 515.041 1103.35 471.287 1049.22 471.287V478.034C1099.65 478.034 1140.65 518.792 1140.65 569.195H1147.4ZM1049.23 471.287L954.695 471.016L954.676 477.763L1049.21 478.034L1049.23 471.287ZM988.274 511.893H1049.22V505.146H988.274V511.893ZM1049.22 511.893C1080.94 511.893 1106.79 537.741 1106.79 569.466H1113.54C1113.54 534.015 1084.67 505.146 1049.22 505.146V511.893ZM1106.79 569.466C1106.79 601.191 1080.94 627.038 1049.22 627.038V633.786C1084.67 633.786 1113.54 604.917 1113.54 569.466H1106.79ZM1049.22 627.038H988.274V633.786H1049.22V627.038ZM991.647 630.412V508.52H984.9V630.412H991.647ZM1360.94 508.249V511.622H1364.31V508.249H1360.94ZM1360.94 474.39H1364.31V471.016H1360.94V474.39ZM1360.94 664V667.374H1364.31V664H1360.94ZM1360.94 559.985H1364.31V556.612H1360.94V559.985ZM1266.14 559.985V556.612H1262.76V559.985H1266.14ZM1266.14 593.844H1262.76V597.218H1266.14V593.844ZM1327.08 593.844H1330.45V590.471H1327.08V593.844ZM1327.08 630.141V633.515H1330.45V630.141H1327.08ZM1266.14 511.622H1360.94V504.875H1266.14V511.622ZM1364.31 508.249V474.39H1357.57V508.249H1364.31ZM1360.94 471.016H1266.14V477.763H1360.94V471.016ZM1266.14 471.016C1211.99 471.016 1167.96 515.054 1167.96 569.195H1174.7C1174.7 518.78 1215.72 477.763 1266.14 477.763V471.016ZM1167.96 569.195C1167.96 623.336 1211.99 667.374 1266.14 667.374V660.626C1215.72 660.626 1174.7 619.61 1174.7 569.195H1167.96ZM1266.14 667.374H1360.94V660.626H1266.14V667.374ZM1364.31 664V559.985H1357.57V664H1364.31ZM1360.94 556.612H1266.14V563.359H1360.94V556.612ZM1262.76 559.985V593.844H1269.51V559.985H1262.76ZM1266.14 597.218H1327.08V590.471H1266.14V597.218ZM1323.71 593.844V630.141H1330.45V593.844H1323.71ZM1327.08 626.767H1266.14V633.515H1327.08V626.767ZM1266.14 626.767C1234.41 626.767 1208.56 600.92 1208.56 569.195H1201.82C1201.82 604.646 1230.68 633.515 1266.14 633.515V626.767ZM1208.56 569.195C1208.56 537.47 1234.41 511.622 1266.14 511.622V504.875C1230.68 504.875 1201.82 533.744 1201.82 569.195H1208.56ZM1577.58 508.249V511.622H1580.96V508.249H1577.58ZM1577.58 474.39H1580.96V471.016H1577.58V474.39ZM1577.58 664V667.374H1580.96V664H1577.58ZM1577.58 630.141H1580.96V626.767H1577.58V630.141ZM1421.83 577.05V573.677H1418.46V577.05H1421.83ZM1543.73 577.05V580.424H1547.1V577.05H1543.73ZM1543.73 543.191H1547.1V539.818H1543.73V543.191ZM1421.83 543.191H1418.46V546.565H1421.83V543.191ZM1439.17 511.622H1577.58V504.875H1439.17V511.622ZM1580.96 508.249V474.39H1574.21V508.249H1580.96ZM1577.58 471.016H1439.17V477.763H1577.58V471.016ZM1439.17 471.016C1409.11 471.016 1384.87 495.574 1384.87 525.585H1391.62C1391.62 499.254 1412.88 477.763 1439.17 477.763V471.016ZM1384.87 525.585V612.805H1391.62V525.585H1384.87ZM1384.87 612.805C1384.87 642.816 1409.11 667.374 1439.17 667.374V660.626C1412.88 660.626 1391.62 639.136 1391.62 612.805H1384.87ZM1439.17 667.374H1577.58V660.626H1439.17V667.374ZM1580.96 664V630.141H1574.21V664H1580.96ZM1577.58 626.767H1439.17V633.515H1577.58V626.767ZM1439.17 626.767C1431.55 626.767 1425.21 620.423 1425.21 612.805H1418.46C1418.46 624.149 1427.83 633.515 1439.17 633.515V626.767ZM1425.21 612.805V577.05H1418.46V612.805H1425.21ZM1421.83 580.424H1543.73V573.677H1421.83V580.424ZM1547.1 577.05V543.191H1540.35V577.05H1547.1ZM1543.73 539.818H1421.83V546.565H1543.73V539.818ZM1425.21 543.191V525.585H1418.46V543.191H1425.21ZM1425.21 525.585C1425.21 517.967 1431.55 511.622 1439.17 511.622V504.875C1427.83 504.875 1418.46 514.241 1418.46 525.585H1425.21Z" fill="white" fill-opacity="0.11"/>
<path d="M553.295 220.39V217.016H549.921V220.39H553.295ZM553.295 289.191V292.565H556.668V289.191H553.295ZM431.403 289.191H428.029V292.565H431.403V289.191ZM431.403 220.39H434.776V217.016H431.403V220.39ZM397.544 220.39V217.016H394.17V220.39H397.544ZM397.544 410H394.17V413.374H397.544V410ZM431.403 410V413.374H434.776V410H431.403ZM431.403 323.05V319.677H428.029V323.05H431.403ZM553.295 323.05H556.668V319.677H553.295V323.05ZM553.295 410H549.921V413.374H553.295V410ZM587.154 410V413.374H590.527V410H587.154ZM587.154 220.39H590.527V217.016H587.154V220.39ZM549.921 220.39V289.191H556.668V220.39H549.921ZM553.295 285.818H431.403V292.565H553.295V285.818ZM434.776 289.191V220.39H428.029V289.191H434.776ZM431.403 217.016H397.544V223.763H431.403V217.016ZM394.17 220.39V410H400.917V220.39H394.17ZM397.544 413.374H431.403V406.626H397.544V413.374ZM434.776 410V323.05H428.029V410H434.776ZM431.403 326.424H553.295V319.677H431.403V326.424ZM549.921 323.05V410H556.668V323.05H549.921ZM553.295 413.374H587.154V406.626H553.295V413.374ZM590.527 410V220.39H583.78V410H590.527ZM587.154 217.016H553.295V223.763H587.154V217.016ZM779.69 376.141L776.685 377.673L776.688 377.679L779.69 376.141ZM700.325 220.39L703.331 218.858L700.325 212.959L697.319 218.858L700.325 220.39ZM620.96 376.141L623.963 377.679L623.966 377.673L620.96 376.141ZM603.624 410L600.621 408.463L598.107 413.374H603.624V410ZM641.546 410V413.374H643.609L644.549 411.537L641.546 410ZM658.882 376.141L661.885 377.679L661.887 377.674L658.882 376.141ZM700.325 294.88L703.33 293.347L700.325 287.454L697.32 293.347L700.325 294.88ZM741.768 376.141L738.763 377.674L738.766 377.679L741.768 376.141ZM759.104 410L756.101 411.537L757.041 413.374H759.104V410ZM797.026 410V413.374H802.544L800.029 408.463L797.026 410ZM782.696 374.609L703.331 218.858L697.319 221.922L776.685 377.673L782.696 374.609ZM697.319 218.858L617.954 374.609L623.966 377.673L703.331 221.922L697.319 218.858ZM617.957 374.604L600.621 408.463L606.627 411.537L623.963 377.679L617.957 374.604ZM603.624 413.374H641.546V406.626H603.624V413.374ZM644.549 411.537L661.885 377.679L655.879 374.604L638.543 408.463L644.549 411.537ZM661.887 377.674L703.33 296.412L697.32 293.347L655.876 374.608L661.887 377.674ZM697.32 296.412L738.763 377.674L744.774 374.608L703.33 293.347L697.32 296.412ZM738.766 377.679L756.101 411.537L762.107 408.463L744.771 374.604L738.766 377.679ZM759.104 413.374H797.026V406.626H759.104V413.374ZM800.029 408.463L782.693 374.604L776.688 377.679L794.023 411.537L800.029 408.463ZM976.468 254.249V257.622H979.842V254.249H976.468ZM976.468 220.39H979.842V217.016H976.468V220.39ZM976.468 410V413.374H979.842V410H976.468ZM976.468 376.141H979.842V372.767H976.468V376.141ZM881.663 257.622H976.468V250.875H881.663V257.622ZM979.842 254.249V220.39H973.094V254.249H979.842ZM976.468 217.016H881.663V223.763H976.468V217.016ZM881.663 217.016C827.522 217.016 783.484 261.054 783.484 315.195H790.232C790.232 264.78 831.248 223.763 881.663 223.763V217.016ZM783.484 315.195C783.484 369.336 827.522 413.374 881.663 413.374V406.626C831.248 406.626 790.232 365.61 790.232 315.195H783.484ZM881.663 413.374H976.468V406.626H881.663V413.374ZM979.842 410V376.141H973.094V410H979.842ZM976.468 372.767H881.663V379.515H976.468V372.767ZM881.663 372.767C849.938 372.767 824.091 346.92 824.091 315.195H817.343C817.343 350.646 846.212 379.515 881.663 379.515V372.767ZM824.091 315.195C824.091 283.47 849.938 257.622 881.663 257.622V250.875C846.212 250.875 817.343 279.744 817.343 315.195H824.091ZM1193.18 220.39L1195.46 222.875L1201.84 217.016H1193.18V220.39ZM1143.06 220.39V217.016H1141.75L1140.78 217.905L1143.06 220.39ZM1090.24 268.876L1092.52 271.366L1092.53 271.361L1090.24 268.876ZM1065.05 291.9L1067.33 294.392L1067.33 294.39L1065.05 291.9ZM1037.15 317.362H1033.78V325.008L1039.43 319.854L1037.15 317.362ZM1037.15 220.39H1040.53V217.016H1037.15V220.39ZM1003.29 220.39V217.016H999.921V220.39H1003.29ZM1003.29 410H999.921V413.374H1003.29V410ZM1037.15 410V413.374H1040.53V410H1037.15ZM1037.15 363.139L1034.88 360.644L1033.78 361.647V363.139H1037.15ZM1085.1 319.529L1087.83 317.549L1085.62 314.496L1082.83 317.033L1085.1 319.529ZM1150.65 410L1147.92 411.979L1148.93 413.374H1150.65V410ZM1192.36 410V413.374H1198.97L1195.1 408.023L1192.36 410ZM1110.29 296.505L1108.01 294.02L1105.8 296.05L1107.56 298.482L1110.29 296.505ZM1193.18 217.016H1143.06V223.763H1193.18V217.016ZM1140.78 217.905L1087.96 266.391L1092.53 271.361L1145.35 222.875L1140.78 217.905ZM1087.97 266.386L1062.78 289.41L1067.33 294.39L1092.52 271.366L1087.97 266.386ZM1062.78 289.408L1034.88 314.87L1039.43 319.854L1067.33 294.392L1062.78 289.408ZM1040.53 317.362V220.39H1033.78V317.362H1040.53ZM1037.15 217.016H1003.29V223.763H1037.15V217.016ZM999.921 220.39V410H1006.67V220.39H999.921ZM1003.29 413.374H1037.15V406.626H1003.29V413.374ZM1040.53 410V363.139H1033.78V410H1040.53ZM1039.42 365.635L1087.37 322.025L1082.83 317.033L1034.88 360.644L1039.42 365.635ZM1082.37 321.508L1147.92 411.979L1153.38 408.021L1087.83 317.549L1082.37 321.508ZM1150.65 413.374H1192.36V406.626H1150.65V413.374ZM1195.1 408.023L1113.02 294.528L1107.56 298.482L1189.63 411.977L1195.1 408.023ZM1112.57 298.99L1195.46 222.875L1190.89 217.905L1108.01 294.02L1112.57 298.99ZM1361.15 220.39V217.016H1357.77V220.39H1361.15ZM1239.26 323.321H1242.63V319.947H1239.26V323.321ZM1205.4 323.321V319.947H1202.02V323.321H1205.4ZM1395.01 220.39H1398.38V217.016H1395.01V220.39ZM1357.77 220.39V358.805H1364.52V220.39H1357.77ZM1357.77 358.805C1357.77 366.423 1351.43 372.767 1343.81 372.767V379.515C1355.16 379.515 1364.52 370.149 1364.52 358.805H1357.77ZM1343.81 372.767H1256.59V379.515H1343.81V372.767ZM1256.59 372.767C1248.97 372.767 1242.63 366.423 1242.63 358.805H1235.88C1235.88 370.149 1245.25 379.515 1256.59 379.515V372.767ZM1242.63 358.805V323.321H1235.88V358.805H1242.63ZM1239.26 319.947H1205.4V326.695H1239.26V319.947ZM1202.02 323.321V358.805H1208.77V323.321H1202.02ZM1202.02 358.805C1202.02 388.862 1226.58 413.103 1256.59 413.103V406.356C1230.26 406.356 1208.77 385.089 1208.77 358.805H1202.02ZM1256.59 413.103H1343.81V406.356H1256.59V413.103ZM1343.81 413.103C1373.82 413.103 1398.38 388.862 1398.38 358.805H1391.63C1391.63 385.089 1370.14 406.356 1343.81 406.356V413.103ZM1398.38 358.805V220.39H1391.63V358.805H1398.38ZM1395.01 217.016H1361.15V223.763H1395.01V217.016ZM1577.79 220.39V217.016H1574.42V220.39H1577.79ZM1455.9 220.39H1459.27V217.016H1455.9V220.39ZM1422.04 220.39V217.016H1418.67V220.39H1422.04ZM1611.65 220.39H1615.03V217.016H1611.65V220.39ZM1574.42 220.39V315.195H1581.17V220.39H1574.42ZM1574.42 315.195C1574.42 346.92 1548.57 372.767 1516.85 372.767V379.515C1552.3 379.515 1581.17 350.646 1581.17 315.195H1574.42ZM1516.85 372.767C1485.12 372.767 1459.27 346.92 1459.27 315.195H1452.53C1452.53 350.646 1481.4 379.515 1516.85 379.515V372.767ZM1459.27 315.195V220.39H1452.53V315.195H1459.27ZM1455.9 217.016H1422.04V223.763H1455.9V217.016ZM1418.67 220.39V315.195H1425.41V220.39H1418.67ZM1418.67 315.195C1418.67 369.336 1462.7 413.374 1516.85 413.374V406.626C1466.43 406.626 1425.41 365.61 1425.41 315.195H1418.67ZM1516.85 413.374C1570.99 413.374 1615.03 369.336 1615.03 315.195H1608.28C1608.28 365.61 1567.26 406.626 1516.85 406.626V413.374ZM1615.03 315.195V220.39H1608.28V315.195H1615.03ZM1611.65 217.016H1577.79V223.763H1611.65V217.016ZM1638.69 220.39L1638.7 217.016L1635.31 217.007V220.39H1638.69ZM1638.69 410H1635.31V413.374H1638.69V410ZM1800.13 382.1L1797.74 379.715L1797.73 379.724L1797.72 379.734L1800.13 382.1ZM1805.54 376.412L1808.1 378.607L1808.11 378.6L1805.54 376.412ZM1733.22 220.661L1733.21 224.034H1733.22V220.661ZM1672.27 254.52V251.146H1668.9V254.52H1672.27ZM1672.27 376.412H1668.9V379.786H1672.27V376.412ZM1635.31 220.39V410H1642.06V220.39H1635.31ZM1638.69 413.374H1733.49V406.626H1638.69V413.374ZM1733.49 413.374C1760.43 413.374 1784.85 402.424 1802.53 384.467L1797.72 379.734C1781.27 396.448 1758.56 406.626 1733.49 406.626V413.374ZM1802.51 384.486C1804.39 382.61 1806.38 380.62 1808.1 378.607L1802.98 374.216C1801.46 375.996 1799.66 377.798 1797.74 379.715L1802.51 384.486ZM1808.11 378.6C1822.7 361.484 1831.4 339.315 1831.4 315.195H1824.65C1824.65 337.665 1816.55 358.293 1802.98 374.223L1808.11 378.6ZM1831.4 315.195C1831.4 261.041 1787.35 217.287 1733.22 217.287V224.034C1783.65 224.034 1824.65 264.792 1824.65 315.195H1831.4ZM1733.23 217.287L1638.7 217.016L1638.68 223.763L1733.21 224.034L1733.23 217.287ZM1672.27 257.893H1733.22V251.146H1672.27V257.893ZM1733.22 257.893C1764.94 257.893 1790.79 283.741 1790.79 315.466H1797.54C1797.54 280.015 1768.67 251.146 1733.22 251.146V257.893ZM1790.79 315.466C1790.79 347.191 1764.94 373.038 1733.22 373.038V379.786C1768.67 379.786 1797.54 350.917 1797.54 315.466H1790.79ZM1733.22 373.038H1672.27V379.786H1733.22V373.038ZM1675.65 376.412V254.52H1668.9V376.412H1675.65ZM2044.94 254.249V257.622H2048.31V254.249H2044.94ZM2044.94 220.39H2048.31V217.016H2044.94V220.39ZM2044.94 410V413.374H2048.31V410H2044.94ZM2044.94 305.985H2048.31V302.612H2044.94V305.985ZM1950.14 305.985V302.612H1946.76V305.985H1950.14ZM1950.14 339.844H1946.76V343.218H1950.14V339.844ZM2011.08 339.844H2014.45V336.471H2011.08V339.844ZM2011.08 376.141V379.515H2014.45V376.141H2011.08ZM1950.14 257.622H2044.94V250.875H1950.14V257.622ZM2048.31 254.249V220.39H2041.57V254.249H2048.31ZM2044.94 217.016H1950.14V223.763H2044.94V217.016ZM1950.14 217.016C1895.99 217.016 1851.96 261.054 1851.96 315.195H1858.7C1858.7 264.78 1899.72 223.763 1950.14 223.763V217.016ZM1851.96 315.195C1851.96 369.336 1895.99 413.374 1950.14 413.374V406.626C1899.72 406.626 1858.7 365.61 1858.7 315.195H1851.96ZM1950.14 413.374H2044.94V406.626H1950.14V413.374ZM2048.31 410V305.985H2041.57V410H2048.31ZM2044.94 302.612H1950.14V309.359H2044.94V302.612ZM1946.76 305.985V339.844H1953.51V305.985H1946.76ZM1950.14 343.218H2011.08V336.471H1950.14V343.218ZM2007.71 339.844V376.141H2014.45V339.844H2007.71ZM2011.08 372.767H1950.14V379.515H2011.08V372.767ZM1950.14 372.767C1918.41 372.767 1892.56 346.92 1892.56 315.195H1885.82C1885.82 350.646 1914.68 379.515 1950.14 379.515V372.767ZM1892.56 315.195C1892.56 283.47 1918.41 257.622 1950.14 257.622V250.875C1914.68 250.875 1885.82 279.744 1885.82 315.195H1892.56ZM2261.58 254.249V257.622H2264.96V254.249H2261.58ZM2261.58 220.39H2264.96V217.016H2261.58V220.39ZM2261.58 410V413.374H2264.96V410H2261.58ZM2261.58 376.141H2264.96V372.767H2261.58V376.141ZM2105.83 323.05V319.677H2102.46V323.05H2105.83ZM2227.73 323.05V326.424H2231.1V323.05H2227.73ZM2227.73 289.191H2231.1V285.818H2227.73V289.191ZM2105.83 289.191H2102.46V292.565H2105.83V289.191ZM2123.17 257.622H2261.58V250.875H2123.17V257.622ZM2264.96 254.249V220.39H2258.21V254.249H2264.96ZM2261.58 217.016H2123.17V223.763H2261.58V217.016ZM2123.17 217.016C2093.11 217.016 2068.87 241.574 2068.87 271.585H2075.62C2075.62 245.254 2096.88 223.763 2123.17 223.763V217.016ZM2068.87 271.585V358.805H2075.62V271.585H2068.87ZM2068.87 358.805C2068.87 388.816 2093.11 413.374 2123.17 413.374V406.626C2096.88 406.626 2075.62 385.136 2075.62 358.805H2068.87ZM2123.17 413.374H2261.58V406.626H2123.17V413.374ZM2264.96 410V376.141H2258.21V410H2264.96ZM2261.58 372.767H2123.17V379.515H2261.58V372.767ZM2123.17 372.767C2115.55 372.767 2109.21 366.423 2109.21 358.805H2102.46C2102.46 370.149 2111.83 379.515 2123.17 379.515V372.767ZM2109.21 358.805V323.05H2102.46V358.805H2109.21ZM2105.83 326.424H2227.73V319.677H2105.83V326.424ZM2231.1 323.05V289.191H2224.35V323.05H2231.1ZM2227.73 285.818H2105.83V292.565H2227.73V285.818ZM2109.21 289.191V271.585H2102.46V289.191H2109.21ZM2109.21 271.585C2109.21 263.967 2115.55 257.622 2123.17 257.622V250.875C2111.83 250.875 2102.46 260.241 2102.46 271.585H2109.21Z" fill="white" fill-opacity="0.11"/>
<path d="M86.2947 -12.6101V-15.9837H82.9211V-12.6101H86.2947ZM86.2947 56.1913V59.5649H89.6683V56.1913H86.2947ZM-35.5975 56.1913H-38.9711V59.5649H-35.5975V56.1913ZM-35.5975 -12.6101H-32.2239V-15.9837H-35.5975V-12.6101ZM-69.4564 -12.6101V-15.9837H-72.83V-12.6101H-69.4564ZM-69.4564 177H-72.83V180.374H-69.4564V177ZM-35.5975 177V180.374H-32.2239V177H-35.5975ZM-35.5975 90.0502V86.6766H-38.9711V90.0502H-35.5975ZM86.2947 90.0502H89.6683V86.6766H86.2947V90.0502ZM86.2947 177H82.9211V180.374H86.2947V177ZM120.154 177V180.374H123.527V177H120.154ZM120.154 -12.6101H123.527V-15.9837H120.154V-12.6101ZM82.9211 -12.6101V56.1913H89.6683V-12.6101H82.9211ZM86.2947 52.8177H-35.5975V59.5649H86.2947V52.8177ZM-32.2239 56.1913V-12.6101H-38.9711V56.1913H-32.2239ZM-35.5975 -15.9837H-69.4564V-9.23653H-35.5975V-15.9837ZM-72.83 -12.6101V177H-66.0828V-12.6101H-72.83ZM-69.4564 180.374H-35.5975V173.626H-69.4564V180.374ZM-32.2239 177V90.0502H-38.9711V177H-32.2239ZM-35.5975 93.4238H86.2947V86.6766H-35.5975V93.4238ZM82.9211 90.0502V177H89.6683V90.0502H82.9211ZM86.2947 180.374H120.154V173.626H86.2947V180.374ZM123.527 177V-12.6101H116.78V177H123.527ZM120.154 -15.9837H86.2947V-9.23653H120.154V-15.9837ZM312.69 143.141L309.685 144.673L309.688 144.679L312.69 143.141ZM233.325 -12.6101L236.331 -14.1418L233.325 -20.0406L230.319 -14.1418L233.325 -12.6101ZM153.96 143.141L156.963 144.679L156.966 144.673L153.96 143.141ZM136.624 177L133.621 175.463L131.107 180.374H136.624V177ZM174.546 177V180.374H176.609L177.549 178.537L174.546 177ZM191.882 143.141L194.885 144.679L194.887 144.674L191.882 143.141ZM233.325 61.8796L236.33 60.3469L233.325 54.4541L230.32 60.3469L233.325 61.8796ZM274.768 143.141L271.763 144.674L271.766 144.679L274.768 143.141ZM292.104 177L289.101 178.537L290.041 180.374H292.104V177ZM330.026 177V180.374H335.544L333.029 175.463L330.026 177ZM315.696 141.609L236.331 -14.1418L230.319 -11.0784L309.685 144.673L315.696 141.609ZM230.319 -14.1418L150.954 141.609L156.966 144.673L236.331 -11.0784L230.319 -14.1418ZM150.957 141.604L133.621 175.463L139.627 178.537L156.963 144.679L150.957 141.604ZM136.624 180.374H174.546V173.626H136.624V180.374ZM177.549 178.537L194.885 144.679L188.879 141.604L171.543 175.463L177.549 178.537ZM194.887 144.674L236.33 63.4123L230.32 60.3469L188.876 141.608L194.887 144.674ZM230.32 63.4123L271.763 144.674L277.774 141.608L236.33 60.3469L230.32 63.4123ZM271.766 144.679L289.101 178.537L295.107 175.463L277.771 141.604L271.766 144.679ZM292.104 180.374H330.026V173.626H292.104V180.374ZM333.029 175.463L315.693 141.604L309.688 144.679L327.023 178.537L333.029 175.463ZM509.468 21.2488V24.6224H512.842V21.2488H509.468ZM509.468 -12.6101H512.842V-15.9837H509.468V-12.6101ZM509.468 177V180.374H512.842V177H509.468ZM509.468 143.141H512.842V139.767H509.468V143.141ZM414.663 24.6224H509.468V17.8752H414.663V24.6224ZM512.842 21.2488V-12.6101H506.094V21.2488H512.842ZM509.468 -15.9837L414.663 -15.9837V-9.23653H509.468V-15.9837ZM414.663 -15.9837C360.522 -15.9837 316.484 28.0535 316.484 82.1949H323.232C323.232 31.7799 364.248 -9.23653 414.663 -9.23653V-15.9837ZM316.484 82.1949C316.484 136.336 360.522 180.374 414.663 180.374V173.626C364.248 173.626 323.232 132.61 323.232 82.1949H316.484ZM414.663 180.374H509.468V173.626H414.663V180.374ZM512.842 177V143.141H506.094V177H512.842ZM509.468 139.767H414.663V146.515H509.468V139.767ZM414.663 139.767C382.938 139.767 357.091 113.92 357.091 82.1949H350.343C350.343 117.646 379.212 146.515 414.663 146.515V139.767ZM357.091 82.1949C357.091 50.47 382.938 24.6224 414.663 24.6224V17.8752C379.212 17.8752 350.343 46.7437 350.343 82.1949H357.091ZM726.176 -12.6101L728.458 -10.1253L734.837 -15.9837H726.176V-12.6101ZM676.065 -12.6101V-15.9837H674.751L673.783 -15.0954L676.065 -12.6101ZM623.245 35.8759L625.521 38.3661L625.526 38.3612L623.245 35.8759ZM598.054 58.9L600.328 61.3919L600.33 61.3902L598.054 58.9ZM570.154 84.3619H566.78V92.008L572.428 86.8538L570.154 84.3619ZM570.154 -12.6101H573.528V-15.9837H570.154V-12.6101ZM536.295 -12.6101V-15.9837H532.921V-12.6101H536.295ZM536.295 177H532.921V180.374H536.295V177ZM570.154 177V180.374H573.528V177H570.154ZM570.154 130.139L567.884 127.644L566.78 128.647V130.139H570.154ZM618.098 86.5289L620.83 84.5495L618.618 81.496L615.828 84.0333L618.098 86.5289ZM683.649 177L680.917 178.979L681.927 180.374H683.649V177ZM725.363 177V180.374H731.966L728.097 175.023L725.363 177ZM643.289 63.5048L641.007 61.02L638.797 63.0498L640.556 65.4817L643.289 63.5048ZM726.176 -15.9837H676.065V-9.23653H726.176V-15.9837ZM673.783 -15.0954L620.963 33.3906L625.526 38.3612L678.346 -10.1248L673.783 -15.0954ZM620.969 33.3857L595.778 56.4098L600.33 61.3902L625.521 38.3661L620.969 33.3857ZM595.78 56.4081L567.88 81.87L572.428 86.8538L600.328 61.3919L595.78 56.4081ZM573.528 84.3619V-12.6101H566.78V84.3619H573.528ZM570.154 -15.9837H536.295V-9.23653H570.154V-15.9837ZM532.921 -12.6101V177H539.669V-12.6101H532.921ZM536.295 180.374H570.154V173.626H536.295V180.374ZM573.528 177V130.139H566.78V177H573.528ZM572.424 132.635L620.368 89.0245L615.828 84.0333L567.884 127.644L572.424 132.635ZM615.366 88.5083L680.917 178.979L686.381 175.021L620.83 84.5495L615.366 88.5083ZM683.649 180.374H725.363V173.626H683.649V180.374ZM728.097 175.023L646.023 61.5279L640.556 65.4817L722.63 178.977L728.097 175.023ZM645.571 65.9896L728.458 -10.1253L723.894 -15.095L641.007 61.02L645.571 65.9896ZM894.148 -12.6101V-15.9837H890.774V-12.6101H894.148ZM772.256 90.3211H775.629V86.9475H772.256V90.3211ZM738.397 90.3211V86.9475H735.023V90.3211H738.397ZM928.007 -12.6101H931.381V-15.9837H928.007V-12.6101ZM890.774 -12.6101V125.805H897.522V-12.6101H890.774ZM890.774 125.805C890.774 133.423 884.43 139.767 876.812 139.767V146.515C888.156 146.515 897.522 137.149 897.522 125.805H890.774ZM876.812 139.767H789.592V146.515H876.812V139.767ZM789.592 139.767C781.974 139.767 775.629 133.423 775.629 125.805H768.882C768.882 137.149 778.248 146.515 789.592 146.515V139.767ZM775.629 125.805V90.3211H768.882V125.805H775.629ZM772.256 86.9475H738.397V93.6947H772.256V86.9475ZM735.023 90.3211V125.805H741.771V90.3211H735.023ZM735.023 125.805C735.023 155.862 759.581 180.103 789.592 180.103V173.356C763.261 173.356 741.771 152.089 741.771 125.805H735.023ZM789.592 180.103H876.812V173.356H789.592V180.103ZM876.812 180.103C906.823 180.103 931.381 155.862 931.381 125.805H924.633C924.633 152.089 903.143 173.356 876.812 173.356V180.103ZM931.381 125.805V-12.6101H924.633V125.805H931.381ZM928.007 -15.9837H894.148V-9.23653H928.007V-15.9837ZM1110.79 -12.6101V-15.9837H1107.42V-12.6101H1110.79ZM988.9 -12.6101H992.274V-15.9837H988.9V-12.6101ZM955.041 -12.6101V-15.9837H951.668V-12.6101H955.041ZM1144.65 -12.6101H1148.03V-15.9837H1144.65V-12.6101ZM1107.42 -12.6101V82.1949H1114.17V-12.6101H1107.42ZM1107.42 82.1949C1107.42 113.92 1081.57 139.767 1049.85 139.767V146.515C1085.3 146.515 1114.17 117.646 1114.17 82.1949H1107.42ZM1049.85 139.767C1018.12 139.767 992.274 113.92 992.274 82.1949H985.527C985.527 117.646 1014.4 146.515 1049.85 146.515V139.767ZM992.274 82.1949V-12.6101H985.527V82.1949H992.274ZM988.9 -15.9837H955.041V-9.23653H988.9V-15.9837ZM951.668 -12.6101V82.1949H958.415V-12.6101H951.668ZM951.668 82.1949C951.668 136.336 995.705 180.374 1049.85 180.374V173.626C999.431 173.626 958.415 132.61 958.415 82.1949H951.668ZM1049.85 180.374C1103.99 180.374 1148.03 136.336 1148.03 82.1949H1141.28C1141.28 132.61 1100.26 173.626 1049.85 173.626V180.374ZM1148.03 82.1949V-12.6101H1141.28V82.1949H1148.03ZM1144.65 -15.9837H1110.79V-9.23653H1144.65V-15.9837ZM1171.69 -12.6101L1171.7 -15.9837L1168.31 -15.9934V-12.6101H1171.69ZM1171.69 177H1168.31V180.374H1171.69V177ZM1333.13 149.1L1330.74 146.715L1330.73 146.724L1330.72 146.734L1333.13 149.1ZM1338.54 143.412L1341.1 145.607L1341.11 145.6L1338.54 143.412ZM1266.22 -12.3393L1266.21 -8.96566H1266.22V-12.3393ZM1205.27 21.5197V18.1461H1201.9V21.5197H1205.27ZM1205.27 143.412H1201.9V146.786H1205.27V143.412ZM1168.31 -12.6101V177H1175.06V-12.6101H1168.31ZM1171.69 180.374H1266.49V173.626H1171.69V180.374ZM1266.49 180.374C1293.43 180.374 1317.85 169.424 1335.53 151.467L1330.72 146.734C1314.27 163.448 1291.56 173.626 1266.49 173.626V180.374ZM1335.51 151.486C1337.39 149.61 1339.38 147.62 1341.1 145.607L1335.98 141.216C1334.46 142.996 1332.66 144.798 1330.74 146.715L1335.51 151.486ZM1341.11 145.6C1355.7 128.484 1364.4 106.315 1364.4 82.1949H1357.65C1357.65 104.665 1349.55 125.293 1335.98 141.223L1341.11 145.6ZM1364.4 82.1949C1364.4 28.041 1320.35 -15.7128 1266.22 -15.7128V-8.96566C1316.65 -8.96566 1357.65 31.7925 1357.65 82.1949H1364.4ZM1266.23 -15.7128L1171.7 -15.9837L1171.68 -9.23654L1266.21 -8.96567L1266.23 -15.7128ZM1205.27 24.8933H1266.22V18.1461H1205.27V24.8933ZM1266.22 24.8933C1297.94 24.8933 1323.79 50.7409 1323.79 82.4658H1330.54C1330.54 47.0145 1301.67 18.1461 1266.22 18.1461V24.8933ZM1323.79 82.4658C1323.79 114.191 1297.94 140.038 1266.22 140.038V146.786C1301.67 146.786 1330.54 117.917 1330.54 82.4658H1323.79ZM1266.22 140.038H1205.27V146.786H1266.22V140.038ZM1208.65 143.412V21.5197H1201.9V143.412H1208.65ZM1577.94 21.2488V24.6224H1581.31V21.2488H1577.94ZM1577.94 -12.6101H1581.31V-15.9837H1577.94V-12.6101ZM1577.94 177V180.374H1581.31V177H1577.94ZM1577.94 72.9853H1581.31V69.6117H1577.94V72.9853ZM1483.14 72.9853V69.6117H1479.76V72.9853H1483.14ZM1483.14 106.844H1479.76V110.218H1483.14V106.844ZM1544.08 106.844H1547.45V103.471H1544.08V106.844ZM1544.08 143.141V146.515H1547.45V143.141H1544.08ZM1483.14 24.6224H1577.94V17.8752H1483.14V24.6224ZM1581.31 21.2488V-12.6101H1574.57V21.2488H1581.31ZM1577.94 -15.9837H1483.14V-9.23653H1577.94V-15.9837ZM1483.14 -15.9837C1428.99 -15.9837 1384.96 28.0535 1384.96 82.1949H1391.7C1391.7 31.7799 1432.72 -9.23653 1483.14 -9.23653V-15.9837ZM1384.96 82.1949C1384.96 136.336 1428.99 180.374 1483.14 180.374V173.626C1432.72 173.626 1391.7 132.61 1391.7 82.1949H1384.96ZM1483.14 180.374H1577.94V173.626H1483.14V180.374ZM1581.31 177V72.9853H1574.57V177H1581.31ZM1577.94 69.6117H1483.14V76.3589H1577.94V69.6117ZM1479.76 72.9853V106.844H1486.51V72.9853H1479.76ZM1483.14 110.218H1544.08V103.471H1483.14V110.218ZM1540.71 106.844V143.141H1547.45V106.844H1540.71ZM1544.08 139.767H1483.14V146.515H1544.08V139.767ZM1483.14 139.767C1451.41 139.767 1425.56 113.92 1425.56 82.1949H1418.82C1418.82 117.646 1447.68 146.515 1483.14 146.515V139.767ZM1425.56 82.1949C1425.56 50.47 1451.41 24.6224 1483.14 24.6224V17.8752C1447.68 17.8752 1418.82 46.7437 1418.82 82.1949H1425.56ZM1794.58 21.2488V24.6224H1797.96V21.2488H1794.58ZM1794.58 -12.6101H1797.96V-15.9837H1794.58V-12.6101ZM1794.58 177V180.374H1797.96V177H1794.58ZM1794.58 143.141H1797.96V139.767H1794.58V143.141ZM1638.83 90.0502V86.6766H1635.46V90.0502H1638.83ZM1760.73 90.0502V93.4238H1764.1V90.0502H1760.73ZM1760.73 56.1913H1764.1V52.8177H1760.73V56.1913ZM1638.83 56.1913H1635.46V59.5649H1638.83V56.1913ZM1656.17 24.6224H1794.58V17.8752H1656.17V24.6224ZM1797.96 21.2488V-12.6101H1791.21V21.2488H1797.96ZM1794.58 -15.9837H1656.17V-9.23653H1794.58V-15.9837ZM1656.17 -15.9837C1626.11 -15.9837 1601.87 8.57413 1601.87 38.5846H1608.62C1608.62 12.2538 1629.88 -9.23653 1656.17 -9.23653V-15.9837ZM1601.87 38.5846V125.805H1608.62V38.5846H1601.87ZM1601.87 125.805C1601.87 155.816 1626.11 180.374 1656.17 180.374V173.626C1629.88 173.626 1608.62 152.136 1608.62 125.805H1601.87ZM1656.17 180.374H1794.58V173.626H1656.17V180.374ZM1797.96 177V143.141H1791.21V177H1797.96ZM1794.58 139.767H1656.17V146.515H1794.58V139.767ZM1656.17 139.767C1648.55 139.767 1642.21 133.423 1642.21 125.805H1635.46C1635.46 137.149 1644.83 146.515 1656.17 146.515V139.767ZM1642.21 125.805V90.0502H1635.46V125.805H1642.21ZM1638.83 93.4238H1760.73V86.6766H1638.83V93.4238ZM1764.1 90.0502V56.1913H1757.35V90.0502H1764.1ZM1760.73 52.8177H1638.83V59.5649H1760.73V52.8177ZM1642.21 56.1913V38.5846H1635.46V56.1913H1642.21ZM1642.21 38.5846C1642.21 30.9673 1648.55 24.6224 1656.17 24.6224V17.8752C1644.83 17.8752 1635.46 27.2409 1635.46 38.5846H1642.21Z" fill="white" fill-opacity="0.11"/>
</g>
<defs>
<clipPath id="clip0">
<rect width="1920" height="1080" fill="white"/>
</clipPath>
</defs>
</svg>
