<svg width="32" height="32" viewBox="0 0 32 32" fill="none" xmlns="http://www.w3.org/2000/svg">
<path d="M4.03708 0.664575L15.9994 12.6269L27.9126 0.713803C28.1213 0.491582 28.3728 0.313814 28.652 0.191157C28.9311 0.0684997 29.2322 0.00348125 29.5371 0C30.1899 0 30.8159 0.259324 31.2775 0.720924C31.7391 1.18252 31.9985 1.80859 31.9985 2.46139C32.0042 2.76316 31.9482 3.06292 31.8339 3.34227C31.7196 3.62163 31.5495 3.87468 31.3339 4.08591L19.2977 15.999L31.3339 28.0352C31.7396 28.4321 31.9774 28.9695 31.9985 29.5367C31.9985 30.1895 31.7391 30.8155 31.2775 31.2771C30.8159 31.7387 30.1899 31.9981 29.5371 31.9981C29.2234 32.0111 28.9104 31.9587 28.618 31.8443C28.3257 31.7299 28.0603 31.5559 27.8387 31.3335L15.9994 19.3711L4.06169 31.3089C3.85372 31.5237 3.60526 31.6952 3.33066 31.8135C3.05607 31.9318 2.76076 31.9945 2.46179 31.9981C1.80899 31.9981 1.18292 31.7387 0.721325 31.2771C0.259725 30.8155 0.000400483 30.1895 0.000400483 29.5367C-0.00533823 29.2349 0.0506511 28.9351 0.164932 28.6558C0.279213 28.3764 0.449375 28.1234 0.664975 27.9121L12.7012 15.999L0.664975 3.96284C0.259302 3.56596 0.0214198 3.02852 0.000400483 2.46139C0.000400483 1.80859 0.259725 1.18252 0.721325 0.720924C1.18292 0.259324 1.80899 0 2.46179 0C3.05252 0.00738417 3.61864 0.246139 4.03708 0.664575Z" fill="white"/>
</svg>
