<svg width="36" height="49" viewBox="0 0 36 49" fill="none" xmlns="http://www.w3.org/2000/svg">
<path d="M7.76382 43.1148C7.99076 42.7684 8.12215 42.3503 8.12215 41.8964C8.12215 40.6542 7.10688 39.639 5.86467 39.639H0.597217V48H6.29467C7.76382 48 8.95826 46.8056 8.95826 45.3364C8.95826 44.4048 8.48048 43.5925 7.76382 43.1148ZM2.09026 41.132H5.87662C6.29467 41.132 6.64105 41.4784 6.64105 41.8964C6.64105 42.3145 6.29467 42.6609 5.87662 42.6609H2.09026V41.132ZM6.29467 46.507H2.09026V44.1539H6.29467C6.93966 44.1539 7.46521 44.6795 7.46521 45.3245C7.46521 45.9695 6.93966 46.495 6.29467 46.495V46.507ZM17.1567 46.507L13.657 39.639L10.1574 46.507L9.39292 48H11.0651L11.8296 46.507L13.657 42.9237L15.4845 46.507L16.249 48H17.9212L17.1567 46.507ZM21.6533 41.132H25.8338V39.639H21.6533C19.3481 39.639 17.4728 41.5142 17.4728 43.8195C17.4728 46.1247 19.3481 48 21.6533 48H25.8338V46.507H21.6533C20.1722 46.507 18.9658 45.3006 18.9658 43.8195C18.9658 42.3384 20.1722 41.132 21.6533 41.132ZM35.3898 39.639H33.1801L30.8509 41.777L29.7401 42.7923L28.5098 43.915V39.639H27.0168V48H28.5098V45.9336L30.624 44.0106L33.5145 48H35.3539L31.7348 42.9953L35.3898 39.639Z" fill="white"/>
<path d="M6.03708 0.664575L17.9994 12.6269L29.9126 0.713803C30.1213 0.491582 30.3728 0.313814 30.652 0.191157C30.9311 0.0684997 31.2322 0.00348125 31.5371 0C32.1899 0 32.8159 0.259324 33.2775 0.720924C33.7391 1.18252 33.9985 1.80859 33.9985 2.46139C34.0042 2.76316 33.9482 3.06292 33.8339 3.34227C33.7196 3.62163 33.5495 3.87468 33.3339 4.08591L21.2977 15.999L33.3339 28.0352C33.7396 28.4321 33.9774 28.9695 33.9985 29.5367C33.9985 30.1895 33.7391 30.8155 33.2775 31.2771C32.8159 31.7387 32.1899 31.9981 31.5371 31.9981C31.2234 32.0111 30.9104 31.9587 30.618 31.8443C30.3257 31.7299 30.0603 31.5559 29.8387 31.3335L17.9994 19.3711L6.06169 31.3089C5.85372 31.5237 5.60526 31.6952 5.33066 31.8135C5.05607 31.9318 4.76076 31.9945 4.46179 31.9981C3.80899 31.9981 3.18292 31.7387 2.72132 31.2771C2.25972 30.8155 2.0004 30.1895 2.0004 29.5367C1.99466 29.2349 2.05065 28.9351 2.16493 28.6558C2.27921 28.3764 2.44938 28.1234 2.66498 27.9121L14.7012 15.999L2.66498 3.96284C2.2593 3.56596 2.02142 3.02852 2.0004 2.46139C2.0004 1.80859 2.25972 1.18252 2.72132 0.720924C3.18292 0.259324 3.80899 0 4.46179 0C5.05252 0.00738417 5.61864 0.246139 6.03708 0.664575Z" fill="white"/>
</svg>
