<svg width="253" height="253" viewBox="0 0 253 253" fill="none" xmlns="http://www.w3.org/2000/svg">
<path fill-rule="evenodd" clip-rule="evenodd" d="M0 126.5C0 92.9501 13.3276 60.7743 37.051 37.051C60.7743 13.3276 92.9501 0 126.5 0C160.05 0 192.226 13.3276 215.949 37.051C239.672 60.7743 253 92.9501 253 126.5C253 160.05 239.672 192.226 215.949 215.949C192.226 239.672 160.05 253 126.5 253C92.9501 253 60.7743 239.672 37.051 215.949C13.3276 192.226 0 160.05 0 126.5H0ZM119.281 180.642L192.111 89.5957L178.955 79.0709L116.852 156.674L72.864 120.023L62.0693 132.977L119.281 180.659V180.642Z" fill="#335677"/>
</svg>
