<svg width="534" height="830" viewBox="0 0 534 830" fill="none" xmlns="http://www.w3.org/2000/svg">
<path d="M31.6509 693.701H33.8462V691.505H31.6509V693.701ZM9.61852 693.701V691.505H7.42328V693.701H9.61852ZM133 693.701H135.195V691.505H133V693.701ZM110.968 693.701V691.505H108.772V693.701H110.968ZM76.4208 795.05H74.2255V797.245H76.4208V795.05ZM76.4208 715.733H78.616V713.538H76.4208V715.733ZM54.3884 715.733V713.538H52.1931V715.733H54.3884ZM54.3884 795.05V797.245H56.5836V795.05H54.3884ZM33.8462 783.769L33.8462 693.701H29.4557L29.4557 783.769H33.8462ZM31.6509 691.505H9.61852V695.896H31.6509V691.505ZM7.42328 693.701L7.42328 783.769H11.8138L11.8138 693.701H7.42328ZM7.42328 783.769C7.42328 803.328 23.4034 819.101 42.9315 819.101V814.711C25.7978 814.711 11.8138 800.873 11.8138 783.769H7.42328ZM42.9315 819.101H99.687V814.711H42.9315V819.101ZM99.687 819.101C119.215 819.101 135.195 803.328 135.195 783.769H130.805C130.805 800.873 116.821 814.711 99.687 814.711V819.101ZM135.195 783.769V693.701H130.805V783.769H135.195ZM133 691.505H110.968V695.896H133V691.505ZM108.772 693.701L108.772 783.769H113.163L113.163 693.701H108.772ZM108.772 783.769C108.772 788.726 104.644 792.854 99.687 792.854V797.245C107.068 797.245 113.163 791.151 113.163 783.769H108.772ZM99.687 792.854H76.4208V797.245H99.687V792.854ZM78.616 795.05V715.733H74.2255V795.05H78.616ZM76.4208 713.538H54.3884V717.928H76.4208V713.538ZM52.1931 715.733L52.1931 795.05H56.5836L56.5836 715.733H52.1931ZM54.3884 792.854H42.9315V797.245H54.3884V792.854ZM42.9315 792.854C37.9748 792.854 33.8462 788.726 33.8462 783.769H29.4557C29.4557 791.151 35.5501 797.245 42.9315 797.245V792.854ZM9.61852 581.987H7.42328V583.329L8.61807 583.941L9.61852 581.987ZM31.6509 593.267L30.6505 595.221L30.6536 595.223L31.6509 593.267ZM84.5287 620.235L85.5261 622.191L89.3606 620.235L85.5261 618.279L84.5287 620.235ZM31.6509 647.203L30.6536 645.247L30.6505 645.249L31.6509 647.203ZM9.61852 658.483L8.61807 656.529L7.42328 657.141V658.483H9.61852ZM9.61852 683.16H7.42328V686.75L10.619 685.114L9.61852 683.16ZM31.6509 671.879L30.6542 669.923L30.6505 669.925L31.6509 671.879ZM133 620.235L133.997 622.191L137.835 620.235L133.997 618.279L133 620.235ZM31.6509 568.591L30.6505 570.545L30.6542 570.547L31.6509 568.591ZM9.61852 557.31L10.619 555.356L7.42328 553.72L7.42328 557.31H9.61852ZM8.61807 583.941L30.6505 595.221L32.6514 591.313L10.619 580.033L8.61807 583.941ZM30.6536 595.223L83.5313 622.191L85.5261 618.279L32.6483 591.312L30.6536 595.223ZM83.5314 618.279L30.6536 645.247L32.6483 649.158L85.5261 622.191L83.5314 618.279ZM30.6505 645.249L8.61807 656.529L10.619 660.437L32.6514 649.157L30.6505 645.249ZM7.42328 658.483L7.42328 683.16H11.8138V658.483H7.42328ZM10.619 685.114L32.6514 673.833L30.6505 669.925L8.61807 681.206L10.619 685.114ZM32.6476 673.835L133.997 622.191L132.003 618.279L30.6542 669.923L32.6476 673.835ZM133.997 618.279L32.6476 566.635L30.6542 570.547L132.003 622.191L133.997 618.279ZM32.6514 566.637L10.619 555.356L8.61807 559.264L30.6505 570.545L32.6514 566.637ZM7.42328 557.31L7.42328 581.987H11.8138L11.8138 557.31H7.42328ZM31.6509 430.861H33.8462V428.666H31.6509V430.861ZM9.61852 430.861V428.666H7.42328L7.42328 430.861H9.61852ZM133 430.861H135.195V428.666H133V430.861ZM110.968 430.861V428.666H108.772V430.861H110.968ZM76.4208 532.21H74.2255V534.405H76.4208V532.21ZM76.4208 452.893H78.616V450.698H76.4208V452.893ZM54.3884 452.893V450.698H52.1931V452.893H54.3884ZM54.3884 532.21V534.405H56.5836V532.21H54.3884ZM33.8462 520.929L33.8462 430.861H29.4557L29.4557 520.929H33.8462ZM31.6509 428.666H9.61852V433.056H31.6509V428.666ZM7.42328 430.861L7.42328 520.929H11.8138L11.8138 430.861H7.42328ZM7.42328 520.929C7.42328 540.488 23.4034 556.261 42.9315 556.261V551.871C25.7978 551.871 11.8138 538.033 11.8138 520.929H7.42328ZM42.9315 556.261H99.687V551.871H42.9315V556.261ZM99.687 556.261C119.215 556.261 135.195 540.488 135.195 520.929H130.805C130.805 538.033 116.821 551.871 99.687 551.871V556.261ZM135.195 520.929V430.861H130.805V520.929H135.195ZM133 428.666H110.968V433.056H133V428.666ZM108.772 430.861L108.772 520.929H113.163L113.163 430.861H108.772ZM108.772 520.929C108.772 525.886 104.644 530.015 99.687 530.015V534.405C107.068 534.405 113.163 528.311 113.163 520.929H108.772ZM99.687 530.015H76.4208V534.405H99.687V530.015ZM78.616 532.21L78.616 452.893H74.2255L74.2255 532.21H78.616ZM76.4208 450.698H54.3884V455.089H76.4208L76.4208 450.698ZM52.1931 452.893L52.1931 532.21H56.5836L56.5836 452.893H52.1931ZM54.3884 530.015H42.9315V534.405H54.3884V530.015ZM42.9315 530.015C37.9748 530.015 33.8462 525.886 33.8462 520.929H29.4557C29.4557 528.311 35.5501 534.405 42.9315 534.405V530.015ZM9.61852 311.92L7.42335 311.903L7.40565 314.116H9.61852L9.61852 311.92ZM88.2301 311.92L89.9686 313.261L92.695 309.725H88.2301V311.92ZM27.0682 391.237L25.3298 389.897L25.3272 389.9L27.0682 391.237ZM10.1473 413.269L8.40627 411.932L5.69342 415.465H10.1473V413.269ZM133.176 413.269V415.465H135.371V413.269H133.176ZM133.176 391.237H135.371V389.042H133.176V391.237ZM55.0934 391.237L53.355 389.897L50.6285 393.432H55.0934L55.0934 391.237ZM116.255 311.92L117.994 313.261L117.996 313.258L116.255 311.92ZM133.176 289.888L134.917 291.225L137.63 287.693H133.176V289.888ZM9.79478 289.888V287.693H7.61703L7.59961 289.87L9.79478 289.888ZM9.61852 314.116H88.2301V309.725H9.61852L9.61852 314.116ZM86.4917 310.58L25.3298 389.897L28.8066 392.578L89.9686 313.261L86.4917 310.58ZM25.3272 389.9L8.40627 411.932L11.8883 414.607L28.8092 392.574L25.3272 389.9ZM10.1473 415.465H133.176V411.074H10.1473V415.465ZM135.371 413.269V391.237H130.981V413.269H135.371ZM133.176 389.042H55.0934L55.0934 393.432H133.176V389.042ZM56.8318 392.578L117.994 313.261L114.517 310.58L53.355 389.897L56.8318 392.578ZM117.996 313.258L134.917 291.225L131.435 288.551L114.514 310.583L117.996 313.258ZM133.176 287.693H9.79478V292.083H133.176V287.693ZM7.59961 289.87L7.42335 311.903L11.8137 311.938L11.9899 289.906L7.59961 289.87ZM9.79478 272.296H7.59954V274.492H9.79478V272.296ZM31.8272 272.296V274.492H34.0224V272.296H31.8272ZM31.8272 221.71V219.515H29.632V221.71H31.8272ZM133.176 221.71V223.905H135.371V221.71H133.176ZM133.176 199.678H135.371V197.482H133.176V199.678ZM31.8272 199.678H29.632V201.873H31.8272V199.678ZM31.8272 149.091H34.0224V146.896H31.8272V149.091ZM9.79478 149.091V146.896H7.59954V149.091H9.79478ZM9.79478 274.492H31.8272V270.101H9.79478V274.492ZM34.0224 272.296L34.0224 221.71H29.632L29.632 272.296H34.0224ZM31.8272 223.905H133.176V219.515H31.8272V223.905ZM135.371 221.71V199.678H130.981V221.71H135.371ZM133.176 197.482H31.8272V201.873H133.176V197.482ZM34.0224 199.678V149.091H29.632L29.632 199.678H34.0224ZM31.8272 146.896H9.79478V151.286H31.8272V146.896ZM7.59954 149.091L7.59954 272.296H11.99L11.99 149.091H7.59954ZM43.6366 14.6398L45.8317 14.6223L45.8143 12.4446H43.6366V14.6398ZM62.4963 125.331L61.3177 123.479L61.277 123.505L61.2374 123.532L62.4963 125.331ZM67.7841 121.1L69.3363 122.653L69.3479 122.641L69.3593 122.629L67.7841 121.1ZM94.0467 109.115V106.92H91.8515V109.115H94.0467ZM94.0467 131.147H91.8515V133.342H94.0467V131.147ZM69.3704 23.4528L67.9827 21.7518L67.8967 21.822L67.8181 21.9005L69.3704 23.4528ZM67.7841 24.8629L69.2607 26.4872L69.2994 26.4521L69.3363 26.4152L67.7841 24.8629ZM43.8128 36.6722V38.8675H46.0257L46.008 36.6547L43.8128 36.6722ZM43.6366 12.4446H42.9315V16.8351H43.6366V12.4446ZM42.9315 12.4446C23.3882 12.4446 7.42328 28.4095 7.42328 47.9528H11.8138C11.8138 30.8342 25.813 16.8351 42.9315 16.8351V12.4446ZM7.42328 47.9528L7.42328 98.0104H11.8138L11.8138 47.9528H7.42328ZM7.42328 98.0104C7.42328 117.569 23.4034 133.342 42.9315 133.342V128.952C25.7978 128.952 11.8138 115.114 11.8138 98.0104H7.42328ZM42.9315 133.342H43.6366V128.952H42.9315V133.342ZM43.6366 133.342C51.1297 133.342 58.0922 131.093 63.7552 127.129L61.2374 123.532C56.3248 126.971 50.2442 128.952 43.6366 128.952V133.342ZM63.6749 127.183C65.7455 125.865 67.634 124.355 69.3363 122.653L66.2318 119.548C64.7615 121.018 63.1248 122.329 61.3177 123.479L63.6749 127.183ZM69.3593 122.629C75.5603 116.24 79.3211 107.589 79.3211 98.0104H74.9306C74.9306 106.41 71.6409 113.975 66.2088 119.571L69.3593 122.629ZM79.3211 98.0104V53.5931H74.9306V98.0104H79.3211ZM79.3211 53.5931C79.3211 45.4341 85.9468 38.6912 94.0467 38.6912V34.3007C83.4631 34.3007 74.9306 43.0687 74.9306 53.5931H79.3211ZM94.0467 38.6912C102.147 38.6912 108.772 45.4341 108.772 53.5931H113.163C113.163 43.0687 104.63 34.3007 94.0467 34.3007V38.6912ZM108.772 53.5931V92.1939H113.163V53.5931H108.772ZM108.772 92.1939C108.772 100.323 102.176 106.92 94.0467 106.92V111.31C104.601 111.31 113.163 102.748 113.163 92.1939H108.772ZM91.8515 109.115V131.147H96.2419V109.115H91.8515ZM94.0467 133.342C116.763 133.342 135.195 114.91 135.195 92.1939H130.805C130.805 112.485 114.338 128.952 94.0467 128.952V133.342ZM135.195 92.1939L135.195 53.5931H130.805L130.805 92.1939H135.195ZM135.195 53.5931C135.195 30.8771 116.763 12.4446 94.0467 12.4446V16.8351C114.338 16.8351 130.805 33.3019 130.805 53.5931H135.195ZM94.0467 12.4446C84.175 12.4446 75.0532 15.9838 67.9827 21.7518L70.7581 25.1538C77.0833 19.9937 85.2349 16.8351 94.0467 16.8351V12.4446ZM67.8181 21.9005C67.6344 22.0843 67.4443 22.2444 67.1719 22.4714C66.9155 22.6851 66.5768 22.9656 66.2318 23.3106L69.3363 26.4152C69.5201 26.2314 69.7102 26.0712 69.9826 25.8442C70.239 25.6306 70.5777 25.35 70.9227 25.0051L67.8181 21.9005ZM66.3074 23.2385C58.1145 30.6866 52.8982 41.491 52.8982 53.5931H57.2886C57.2886 42.7815 61.9428 33.1398 69.2607 26.4872L66.3074 23.2385ZM52.8982 53.5931V98.0104H57.2886V53.5931H52.8982ZM52.8982 98.0104C52.8982 102.967 48.7695 107.096 43.8128 107.096V111.486C51.1943 111.486 57.2886 105.392 57.2886 98.0104H52.8982ZM43.8128 107.096H43.1078V111.486H43.8128V107.096ZM43.1078 107.096C38.1511 107.096 34.0224 102.967 34.0224 98.0104H29.632C29.632 105.392 35.7263 111.486 43.1078 111.486V107.096ZM34.0224 98.0104V47.9528H29.632L29.632 98.0104H34.0224ZM34.0224 47.9528C34.0224 42.9962 38.1511 38.8675 43.1078 38.8675V34.477C35.7263 34.477 29.632 40.5714 29.632 47.9528H34.0224ZM43.1078 38.8675H43.8128V34.477H43.1078V38.8675ZM46.008 36.6547L45.8317 14.6223L41.4414 14.6574L41.6176 36.6898L46.008 36.6547Z" fill="white" fill-opacity="0.06"/>
<path d="M346.082 697.806H348.277V695.61H346.082V697.806ZM324.05 697.806V695.61H321.854V697.806H324.05ZM447.431 697.806H449.626V695.61H447.431V697.806ZM425.399 697.806V695.61H423.204V697.806H425.399ZM390.852 799.155H388.657V801.35H390.852V799.155ZM390.852 719.838H393.047V717.643H390.852V719.838ZM368.82 719.838V717.643H366.624V719.838H368.82ZM368.82 799.155V801.35H371.015V799.155H368.82ZM348.277 787.874V697.806H343.887V787.874H348.277ZM346.082 695.61H324.05V700.001H346.082V695.61ZM321.854 697.806V787.874H326.245V697.806H321.854ZM321.854 787.874C321.854 807.433 337.835 823.206 357.363 823.206V818.816C340.229 818.816 326.245 804.977 326.245 787.874H321.854ZM357.363 823.206H414.118V818.816H357.363V823.206ZM414.118 823.206C433.646 823.206 449.626 807.433 449.626 787.874H445.236C445.236 804.977 431.252 818.816 414.118 818.816V823.206ZM449.626 787.874V697.806H445.236V787.874H449.626ZM447.431 695.61H425.399V700.001H447.431V695.61ZM423.204 697.806V787.874H427.594V697.806H423.204ZM423.204 787.874C423.204 792.831 419.075 796.959 414.118 796.959V801.35C421.5 801.35 427.594 795.256 427.594 787.874H423.204ZM414.118 796.959H390.852V801.35H414.118V796.959ZM393.047 799.155V719.838H388.657V799.155H393.047ZM390.852 717.643H368.82V722.033H390.852V717.643ZM366.624 719.838V799.155H371.015V719.838H366.624ZM368.82 796.959H357.363V801.35H368.82V796.959ZM357.363 796.959C352.406 796.959 348.277 792.831 348.277 787.874H343.887C343.887 795.256 349.981 801.35 357.363 801.35V796.959ZM324.05 586.092H321.854V587.434L323.049 588.046L324.05 586.092ZM346.082 597.372L345.082 599.326L345.085 599.328L346.082 597.372ZM398.96 624.34L399.957 626.295L403.792 624.34L399.957 622.384L398.96 624.34ZM346.082 651.308L345.085 649.352L345.082 649.354L346.082 651.308ZM324.05 662.588L323.049 660.634L321.854 661.246V662.588H324.05ZM324.05 687.264H321.854V690.855L325.05 689.218L324.05 687.264ZM346.082 675.984L345.085 674.028L345.082 674.03L346.082 675.984ZM447.431 624.34L448.428 626.296L452.266 624.34L448.428 622.384L447.431 624.34ZM346.082 572.696L345.082 574.65L345.085 574.652L346.082 572.696ZM324.05 561.415L325.05 559.461L321.854 557.825V561.415H324.05ZM323.049 588.046L345.082 599.326L347.083 595.418L325.05 584.138L323.049 588.046ZM345.085 599.328L397.963 626.295L399.957 622.384L347.079 595.417L345.085 599.328ZM397.963 622.384L345.085 649.352L347.079 653.263L399.957 626.295L397.963 622.384ZM345.082 649.354L323.049 660.634L325.05 664.542L347.083 653.262L345.082 649.354ZM321.854 662.588V687.264H326.245V662.588H321.854ZM325.05 689.218L347.083 677.938L345.082 674.03L323.049 685.31L325.05 689.218ZM347.079 677.94L448.428 626.296L446.434 622.384L345.085 674.028L347.079 677.94ZM448.428 622.384L347.079 570.74L345.085 574.652L446.434 626.296L448.428 622.384ZM347.083 570.742L325.05 559.461L323.049 563.369L345.082 574.65L347.083 570.742ZM321.854 561.415V586.092H326.245V561.415H321.854ZM346.082 434.966H348.277V432.771H346.082V434.966ZM324.05 434.966V432.771H321.854V434.966H324.05ZM447.431 434.966H449.626V432.771H447.431V434.966ZM425.399 434.966V432.771H423.204V434.966H425.399ZM390.852 536.315H388.657V538.51H390.852V536.315ZM390.852 456.998H393.047V454.803H390.852V456.998ZM368.82 456.998V454.803H366.624V456.998H368.82ZM368.82 536.315V538.51H371.015V536.315H368.82ZM348.277 525.034V434.966H343.887V525.034H348.277ZM346.082 432.771H324.05V437.161H346.082V432.771ZM321.854 434.966V525.034H326.245V434.966H321.854ZM321.854 525.034C321.854 544.593 337.835 560.366 357.363 560.366V555.976C340.229 555.976 326.245 542.138 326.245 525.034H321.854ZM357.363 560.366H414.118V555.976H357.363V560.366ZM414.118 560.366C433.646 560.366 449.626 544.593 449.626 525.034H445.236C445.236 542.138 431.252 555.976 414.118 555.976V560.366ZM449.626 525.034V434.966H445.236V525.034H449.626ZM447.431 432.771H425.399V437.161H447.431V432.771ZM423.204 434.966V525.034H427.594V434.966H423.204ZM423.204 525.034C423.204 529.991 419.075 534.12 414.118 534.12V538.51C421.5 538.51 427.594 532.416 427.594 525.034H423.204ZM414.118 534.12H390.852V538.51H414.118V534.12ZM393.047 536.315V456.998H388.657V536.315H393.047ZM390.852 454.803H368.82V459.193H390.852V454.803ZM366.624 456.998V536.315H371.015V456.998H366.624ZM368.82 534.12H357.363V538.51H368.82V534.12ZM357.363 534.12C352.406 534.12 348.277 529.991 348.277 525.034H343.887C343.887 532.416 349.981 538.51 357.363 538.51V534.12ZM324.05 316.025L321.855 316.008L321.837 318.221H324.05L324.05 316.025ZM402.661 316.025L404.4 317.366L407.126 313.83H402.661V316.025ZM341.499 395.342L339.761 394.001L339.758 394.005L341.499 395.342ZM324.578 417.374L322.837 416.037L320.125 419.57H324.578V417.374ZM447.607 417.374V419.57H449.803V417.374H447.607ZM447.607 395.342H449.803V393.147H447.607V395.342ZM369.525 395.342L367.786 394.001L365.06 397.537H369.525V395.342ZM430.687 316.025L432.425 317.366L432.428 317.362L430.687 316.025ZM447.607 293.993L449.348 295.33L452.061 291.798H447.607V293.993ZM324.226 293.993V291.798H322.048L322.031 293.975L324.226 293.993ZM324.05 318.221H402.661V313.83H324.05L324.05 318.221ZM400.923 314.685L339.761 394.001L343.238 396.682L404.4 317.366L400.923 314.685ZM339.758 394.005L322.837 416.037L326.319 418.711L343.24 396.679L339.758 394.005ZM324.578 419.57H447.607V415.179H324.578V419.57ZM449.803 417.374V395.342H445.412V417.374H449.803ZM447.607 393.147H369.525V397.537H447.607V393.147ZM371.263 396.682L432.425 317.366L428.948 314.685L367.786 394.001L371.263 396.682ZM432.428 317.362L449.348 295.33L445.866 292.656L428.945 314.688L432.428 317.362ZM447.607 291.798H324.226V296.188H447.607V291.798ZM322.031 293.975L321.855 316.008L326.245 316.043L326.421 294.01L322.031 293.975ZM324.226 276.401H322.031V278.597H324.226V276.401ZM346.258 276.401V278.597H348.454V276.401H346.258ZM346.258 225.815V223.62H344.063V225.815H346.258ZM447.607 225.815V228.01H449.803V225.815H447.607ZM447.607 203.783H449.803V201.587H447.607V203.783ZM346.258 203.783H344.063V205.978H346.258V203.783ZM346.258 153.196H348.454V151.001H346.258V153.196ZM324.226 153.196V151.001H322.031V153.196H324.226ZM324.226 278.597H346.258V274.206H324.226V278.597ZM348.454 276.401L348.454 225.815H344.063V276.401H348.454ZM346.258 228.01H447.607V223.62H346.258V228.01ZM449.803 225.815V203.783H445.412V225.815H449.803ZM447.607 201.587H346.258V205.978H447.607V201.587ZM348.454 203.783V153.196H344.063V203.783H348.454ZM346.258 151.001H324.226V155.391H346.258V151.001ZM322.031 153.196V276.401H326.421V153.196H322.031ZM358.068 18.7448L360.263 18.7272L360.245 16.5495H358.068V18.7448ZM376.927 129.436L375.749 127.583L375.708 127.609L375.669 127.637L376.927 129.436ZM382.215 125.205L383.767 126.758L383.779 126.746L383.79 126.734L382.215 125.205ZM408.478 113.22V111.024H406.283V113.22H408.478ZM408.478 135.252H406.283V137.447H408.478V135.252ZM383.802 27.5577L382.414 25.8567L382.328 25.9269L382.249 26.0054L383.802 27.5577ZM382.215 28.9678L383.692 30.5921L383.731 30.557L383.767 30.5201L382.215 28.9678ZM358.244 40.7772V42.9724H360.457L360.439 40.7596L358.244 40.7772ZM358.068 16.5495H357.363V20.94H358.068V16.5495ZM357.363 16.5495C337.819 16.5495 321.854 32.5144 321.854 52.0577H326.245C326.245 34.9391 340.244 20.94 357.363 20.94V16.5495ZM321.854 52.0577V102.115H326.245V52.0577H321.854ZM321.854 102.115C321.854 121.674 337.835 137.447 357.363 137.447V133.057C340.229 133.057 326.245 119.219 326.245 102.115H321.854ZM357.363 137.447H358.068V133.057H357.363V137.447ZM358.068 137.447C365.561 137.447 372.523 135.198 378.186 131.234L375.669 127.637C370.756 131.076 364.675 133.057 358.068 133.057V137.447ZM378.106 131.288C380.177 129.97 382.065 128.46 383.767 126.758L380.663 123.653C379.193 125.123 377.556 126.434 375.749 127.583L378.106 131.288ZM383.79 126.734C389.991 120.345 393.752 111.694 393.752 102.115H389.362C389.362 110.515 386.072 118.08 380.64 123.676L383.79 126.734ZM393.752 102.115V57.6981H389.362V102.115H393.752ZM393.752 57.6981C393.752 49.539 400.378 42.7961 408.478 42.7961V38.4056C397.894 38.4056 389.362 47.1736 389.362 57.6981H393.752ZM408.478 42.7961C416.578 42.7961 423.204 49.539 423.204 57.6981H427.594C427.594 47.1736 419.061 38.4056 408.478 38.4056V42.7961ZM423.204 57.6981V96.2988H427.594V57.6981H423.204ZM423.204 96.2988C423.204 104.428 416.607 111.024 408.478 111.024V115.415C419.032 115.415 427.594 106.853 427.594 96.2988H423.204ZM406.283 113.22V135.252H410.673V113.22H406.283ZM408.478 137.447C431.194 137.447 449.626 119.015 449.626 96.2988H445.236C445.236 116.59 428.769 133.057 408.478 133.057V137.447ZM449.626 96.2988L449.626 57.6981H445.236L445.236 96.2988H449.626ZM449.626 57.6981C449.626 34.982 431.194 16.5495 408.478 16.5495V20.94C428.769 20.94 445.236 37.4068 445.236 57.6981H449.626ZM408.478 16.5495C398.606 16.5495 389.484 20.0887 382.414 25.8567L385.189 29.2587C391.514 24.0986 399.666 20.94 408.478 20.94V16.5495ZM382.249 26.0054C382.066 26.1892 381.875 26.3493 381.603 26.5763C381.347 26.79 381.008 27.0705 380.663 27.4155L383.767 30.5201C383.951 30.3363 384.141 30.1761 384.414 29.9492C384.67 29.7355 385.009 29.455 385.354 29.11L382.249 26.0054ZM380.739 27.3434C372.546 34.7915 367.329 45.5959 367.329 57.6981H371.72C371.72 46.8864 376.374 37.2448 383.692 30.5921L380.739 27.3434ZM367.329 57.6981V102.115H371.72V57.6981H367.329ZM367.329 102.115C367.329 107.072 363.201 111.201 358.244 111.201V115.591C365.625 115.591 371.72 109.497 371.72 102.115H367.329ZM358.244 111.201H357.539V115.591H358.244V111.201ZM357.539 111.201C352.582 111.201 348.454 107.072 348.454 102.115H344.063C344.063 109.497 350.157 115.591 357.539 115.591V111.201ZM348.454 102.115V52.0577H344.063V102.115H348.454ZM348.454 52.0577C348.454 47.1011 352.582 42.9724 357.539 42.9724V38.5819C350.157 38.5819 344.063 44.6763 344.063 52.0577H348.454ZM357.539 42.9724H358.244V38.5819H357.539V42.9724ZM360.439 40.7596L360.263 18.7272L355.873 18.7623L356.049 40.7947L360.439 40.7596Z" fill="white" fill-opacity="0.15"/>
<path d="M502.066 697.806H504.262V695.61H502.066V697.806ZM480.034 697.806V695.61H477.839V697.806H480.034ZM603.415 697.806H605.611V695.61H603.415V697.806ZM581.383 697.806V695.61H579.188V697.806H581.383ZM546.836 799.155H544.641V801.35H546.836V799.155ZM546.836 719.838H549.031V717.643H546.836V719.838ZM524.804 719.838V717.643H522.609V719.838H524.804ZM524.804 799.155V801.35H526.999V799.155H524.804ZM504.262 787.874V697.806H499.871V787.874H504.262ZM502.066 695.61H480.034V700.001H502.066V695.61ZM477.839 697.806V787.874H482.229V697.806H477.839ZM477.839 787.874C477.839 807.433 493.819 823.206 513.347 823.206V818.816C496.213 818.816 482.229 804.977 482.229 787.874H477.839ZM513.347 823.206H570.102V818.816H513.347V823.206ZM570.102 823.206C589.631 823.206 605.611 807.433 605.611 787.874H601.22C601.22 804.977 587.236 818.816 570.102 818.816V823.206ZM605.611 787.874V697.806H601.22V787.874H605.611ZM603.415 695.61H581.383V700.001H603.415V695.61ZM579.188 697.806V787.874H583.578V697.806H579.188ZM579.188 787.874C579.188 792.831 575.059 796.959 570.102 796.959V801.35C577.484 801.35 583.578 795.256 583.578 787.874H579.188ZM570.102 796.959H546.836V801.35H570.102V796.959ZM549.031 799.155V719.838H544.641V799.155H549.031ZM546.836 717.643H524.804V722.033H546.836V717.643ZM522.609 719.838V799.155H526.999V719.838H522.609ZM524.804 796.959H513.347V801.35H524.804V796.959ZM513.347 796.959C508.39 796.959 504.262 792.831 504.262 787.874H499.871C499.871 795.256 505.965 801.35 513.347 801.35V796.959ZM480.034 586.092H477.839V587.434L479.033 588.046L480.034 586.092ZM502.066 597.372L501.066 599.326L501.069 599.328L502.066 597.372ZM554.944 624.34L555.941 626.295L559.776 624.34L555.941 622.384L554.944 624.34ZM502.066 651.308L501.069 649.352L501.066 649.354L502.066 651.308ZM480.034 662.588L479.033 660.634L477.839 661.246V662.588H480.034ZM480.034 687.264H477.839V690.855L481.034 689.218L480.034 687.264ZM502.066 675.984L501.07 674.028L501.066 674.03L502.066 675.984ZM603.415 624.34L604.412 626.296L608.251 624.34L604.412 622.384L603.415 624.34ZM502.066 572.696L501.066 574.65L501.07 574.652L502.066 572.696ZM480.034 561.415L481.034 559.461L477.839 557.825V561.415H480.034ZM479.033 588.046L501.066 599.326L503.067 595.418L481.034 584.138L479.033 588.046ZM501.069 599.328L553.947 626.295L555.941 622.384L503.064 595.417L501.069 599.328ZM553.947 622.384L501.069 649.352L503.064 653.263L555.941 626.295L553.947 622.384ZM501.066 649.354L479.033 660.634L481.034 664.542L503.067 653.262L501.066 649.354ZM477.839 662.588V687.264H482.229V662.588H477.839ZM481.034 689.218L503.067 677.938L501.066 674.03L479.033 685.31L481.034 689.218ZM503.063 677.94L604.412 626.296L602.419 622.384L501.07 674.028L503.063 677.94ZM604.412 622.384L503.063 570.74L501.07 574.652L602.419 626.296L604.412 622.384ZM503.067 570.742L481.034 559.461L479.033 563.369L501.066 574.65L503.067 570.742ZM477.839 561.415V586.092H482.229V561.415H477.839ZM502.066 434.966H504.262V432.771H502.066V434.966ZM480.034 434.966V432.771H477.839V434.966H480.034ZM603.415 434.966H605.611V432.771H603.415V434.966ZM581.383 434.966V432.771H579.188V434.966H581.383ZM546.836 536.315H544.641V538.51H546.836V536.315ZM546.836 456.998H549.031V454.803H546.836V456.998ZM524.804 456.998V454.803H522.609V456.998H524.804ZM524.804 536.315V538.51H526.999V536.315H524.804ZM504.262 525.034V434.966H499.871V525.034H504.262ZM502.066 432.771H480.034V437.161H502.066V432.771ZM477.839 434.966V525.034H482.229V434.966H477.839ZM477.839 525.034C477.839 544.593 493.819 560.366 513.347 560.366V555.976C496.213 555.976 482.229 542.138 482.229 525.034H477.839ZM513.347 560.366H570.102V555.976H513.347V560.366ZM570.102 560.366C589.631 560.366 605.611 544.593 605.611 525.034H601.22C601.22 542.138 587.236 555.976 570.102 555.976V560.366ZM605.611 525.034V434.966H601.22V525.034H605.611ZM603.415 432.771H581.383V437.161H603.415V432.771ZM579.188 434.966V525.034H583.578V434.966H579.188ZM579.188 525.034C579.188 529.991 575.059 534.12 570.102 534.12V538.51C577.484 538.51 583.578 532.416 583.578 525.034H579.188ZM570.102 534.12H546.836V538.51H570.102V534.12ZM549.031 536.315V456.998H544.641V536.315H549.031ZM546.836 454.803H524.804V459.193H546.836V454.803ZM522.609 456.998V536.315H526.999V456.998H522.609ZM524.804 534.12H513.347V538.51H524.804V534.12ZM513.347 534.12C508.39 534.12 504.262 529.991 504.262 525.034H499.871C499.871 532.416 505.965 538.51 513.347 538.51V534.12ZM480.034 316.025L477.839 316.008L477.821 318.221H480.034L480.034 316.025ZM558.646 316.025L560.384 317.366L563.11 313.83H558.646V316.025ZM497.484 395.342L495.745 394.001L495.743 394.005L497.484 395.342ZM480.563 417.374L478.822 416.037L476.109 419.57H480.563V417.374ZM603.592 417.374V419.57H605.787V417.374H603.592ZM603.592 395.342H605.787V393.147H603.592V395.342ZM525.509 395.342L523.77 394.001L521.044 397.537H525.509V395.342ZM586.671 316.025L588.409 317.366L588.412 317.362L586.671 316.025ZM603.592 293.993L605.333 295.33L608.046 291.798H603.592V293.993ZM480.21 293.993V291.798H478.032L478.015 293.975L480.21 293.993ZM480.034 318.221H558.646V313.83H480.034L480.034 318.221ZM556.907 314.685L495.745 394.001L499.222 396.682L560.384 317.366L556.907 314.685ZM495.743 394.005L478.822 416.037L482.304 418.711L499.225 396.679L495.743 394.005ZM480.563 419.57H603.592V415.179H480.563V419.57ZM605.787 417.374V395.342H601.396V417.374H605.787ZM603.592 393.147H525.509V397.537H603.592V393.147ZM527.247 396.682L588.409 317.366L584.932 314.685L523.77 394.001L527.247 396.682ZM588.412 317.362L605.333 295.33L601.851 292.656L584.93 314.688L588.412 317.362ZM603.592 291.798H480.21V296.188H603.592V291.798ZM478.015 293.975L477.839 316.008L482.229 316.043L482.405 294.01L478.015 293.975ZM480.21 276.401H478.015V278.597H480.21V276.401ZM502.243 276.401V278.597H504.438V276.401H502.243ZM502.243 225.815V223.62H500.047V225.815H502.243ZM603.592 225.815V228.01H605.787V225.815H603.592ZM603.592 203.783H605.787V201.587H603.592V203.783ZM502.243 203.783H500.047V205.978H502.243V203.783ZM502.243 153.196H504.438V151.001H502.243V153.196ZM480.21 153.196V151.001H478.015V153.196H480.21ZM480.21 278.597H502.243V274.206H480.21V278.597ZM504.438 276.401L504.438 225.815H500.047V276.401H504.438ZM502.243 228.01H603.592V223.62H502.243V228.01ZM605.787 225.815V203.783H601.396V225.815H605.787ZM603.592 201.587H502.243V205.978H603.592V201.587ZM504.438 203.783V153.196H500.047V203.783H504.438ZM502.243 151.001H480.21V155.391H502.243V151.001ZM478.015 153.196V276.401H482.405V153.196H478.015ZM514.052 18.7448L516.247 18.7272L516.23 16.5495H514.052V18.7448ZM532.912 129.436L531.733 127.583L531.692 127.609L531.653 127.637L532.912 129.436ZM538.199 125.205L539.752 126.758L539.763 126.746L539.775 126.734L538.199 125.205ZM564.462 113.22V111.024H562.267V113.22H564.462ZM564.462 135.252H562.267V137.447H564.462V135.252ZM539.786 27.5577L538.398 25.8567L538.312 25.9269L538.234 26.0054L539.786 27.5577ZM538.199 28.9678L539.676 30.5921L539.715 30.557L539.752 30.5201L538.199 28.9678ZM514.228 40.7772V42.9724H516.441L516.423 40.7596L514.228 40.7772ZM514.052 16.5495H513.347V20.94H514.052V16.5495ZM513.347 16.5495C493.804 16.5495 477.839 32.5144 477.839 52.0577H482.229C482.229 34.9391 496.228 20.94 513.347 20.94V16.5495ZM477.839 52.0577V102.115H482.229V52.0577H477.839ZM477.839 102.115C477.839 121.674 493.819 137.447 513.347 137.447V133.057C496.213 133.057 482.229 119.219 482.229 102.115H477.839ZM513.347 137.447H514.052V133.057H513.347V137.447ZM514.052 137.447C521.545 137.447 528.508 135.198 534.171 131.234L531.653 127.637C526.74 131.076 520.66 133.057 514.052 133.057V137.447ZM534.09 131.288C536.161 129.97 538.049 128.46 539.752 126.758L536.647 123.653C535.177 125.123 533.54 126.434 531.733 127.583L534.09 131.288ZM539.775 126.734C545.976 120.345 549.736 111.694 549.736 102.115H545.346C545.346 110.515 542.056 118.08 536.624 123.676L539.775 126.734ZM549.736 102.115V57.6981H545.346V102.115H549.736ZM549.736 57.6981C549.736 49.539 556.362 42.7961 564.462 42.7961V38.4056C553.879 38.4056 545.346 47.1736 545.346 57.6981H549.736ZM564.462 42.7961C572.562 42.7961 579.188 49.539 579.188 57.6981H583.578C583.578 47.1736 575.046 38.4056 564.462 38.4056V42.7961ZM579.188 57.6981V96.2988H583.578V57.6981H579.188ZM579.188 96.2988C579.188 104.428 572.591 111.024 564.462 111.024V115.415C575.016 115.415 583.578 106.853 583.578 96.2988H579.188ZM562.267 113.22V135.252H566.657V113.22H562.267ZM564.462 137.447C587.178 137.447 605.611 119.015 605.611 96.2988H601.22C601.22 116.59 584.753 133.057 564.462 133.057V137.447ZM605.611 96.2988V57.6981H601.22V96.2988H605.611ZM605.611 57.6981C605.611 34.982 587.178 16.5495 564.462 16.5495V20.94C584.753 20.94 601.22 37.4068 601.22 57.6981H605.611ZM564.462 16.5495C554.59 16.5495 545.469 20.0887 538.398 25.8567L541.173 29.2587C547.499 24.0986 555.65 20.94 564.462 20.94V16.5495ZM538.234 26.0054C538.05 26.1892 537.86 26.3493 537.587 26.5763C537.331 26.79 536.992 27.0705 536.647 27.4155L539.752 30.5201C539.936 30.3363 540.126 30.1761 540.398 29.9492C540.654 29.7355 540.993 29.455 541.338 29.11L538.234 26.0054ZM536.723 27.3434C528.53 34.7915 523.314 45.5959 523.314 57.6981H527.704C527.704 46.8864 532.358 37.2448 539.676 30.5921L536.723 27.3434ZM523.314 57.6981V102.115H527.704V57.6981H523.314ZM523.314 102.115C523.314 107.072 519.185 111.201 514.228 111.201V115.591C521.61 115.591 527.704 109.497 527.704 102.115H523.314ZM514.228 111.201H513.523V115.591H514.228V111.201ZM513.523 111.201C508.567 111.201 504.438 107.072 504.438 102.115H500.047C500.047 109.497 506.142 115.591 513.523 115.591V111.201ZM504.438 102.115V52.0577H500.047V102.115H504.438ZM504.438 52.0577C504.438 47.1011 508.567 42.9724 513.523 42.9724V38.5819C506.142 38.5819 500.047 44.6763 500.047 52.0577H504.438ZM513.523 42.9724H514.228V38.5819H513.523V42.9724ZM516.423 40.7596L516.247 18.7272L511.857 18.7623L512.033 40.7947L516.423 40.7596Z" fill="white" fill-opacity="0.23"/>
<path d="M190.919 697.806H193.114V695.61H190.919V697.806ZM168.887 697.806V695.61H166.691V697.806H168.887ZM292.268 697.806H294.463V695.61H292.268V697.806ZM270.236 697.806V695.61H268.04V697.806H270.236ZM235.689 799.155H233.494V801.35H235.689V799.155ZM235.689 719.838H237.884V717.643H235.689V719.838ZM213.656 719.838V717.643H211.461V719.838H213.656ZM213.656 799.155V801.35H215.852V799.155H213.656ZM193.114 787.874V697.806H188.724V787.874H193.114ZM190.919 695.61H168.887V700.001H190.919V695.61ZM166.691 697.806V787.874H171.082V697.806H166.691ZM166.691 787.874C166.691 807.433 182.671 823.206 202.2 823.206V818.816C185.066 818.816 171.082 804.977 171.082 787.874H166.691ZM202.2 823.206H258.955V818.816H202.2V823.206ZM258.955 823.206C278.483 823.206 294.463 807.433 294.463 787.874H290.073C290.073 804.977 276.089 818.816 258.955 818.816V823.206ZM294.463 787.874V697.806H290.073V787.874H294.463ZM292.268 695.61H270.236V700.001H292.268V695.61ZM268.04 697.806V787.874H272.431V697.806H268.04ZM268.04 787.874C268.04 792.831 263.912 796.959 258.955 796.959V801.35C266.337 801.35 272.431 795.256 272.431 787.874H268.04ZM258.955 796.959H235.689V801.35H258.955V796.959ZM237.884 799.155V719.838H233.494V799.155H237.884ZM235.689 717.643H213.656V722.033H235.689V717.643ZM211.461 719.838V799.155H215.852V719.838H211.461ZM213.656 796.959H202.2V801.35H213.656V796.959ZM202.2 796.959C197.243 796.959 193.114 792.831 193.114 787.874H188.724C188.724 795.256 194.818 801.35 202.2 801.35V796.959ZM168.887 586.092H166.691V587.434L167.886 588.046L168.887 586.092ZM190.919 597.372L189.919 599.326L189.922 599.328L190.919 597.372ZM243.797 624.34L244.794 626.295L248.629 624.34L244.794 622.384L243.797 624.34ZM190.919 651.308L189.922 649.352L189.919 649.354L190.919 651.308ZM168.887 662.588L167.886 660.634L166.691 661.246V662.588H168.887ZM168.887 687.264H166.691V690.855L169.887 689.218L168.887 687.264ZM190.919 675.984L189.922 674.028L189.919 674.03L190.919 675.984ZM292.268 624.34L293.265 626.296L297.103 624.34L293.265 622.384L292.268 624.34ZM190.919 572.696L189.919 574.65L189.922 574.652L190.919 572.696ZM168.887 561.415L169.887 559.461L166.691 557.825V561.415H168.887ZM167.886 588.046L189.919 599.326L191.919 595.418L169.887 584.138L167.886 588.046ZM189.922 599.328L242.799 626.295L244.794 622.384L191.916 595.417L189.922 599.328ZM242.799 622.384L189.922 649.352L191.916 653.263L244.794 626.295L242.799 622.384ZM189.919 649.354L167.886 660.634L169.887 664.542L191.919 653.262L189.919 649.354ZM166.691 662.588V687.264H171.082V662.588H166.691ZM169.887 689.218L191.919 677.938L189.919 674.03L167.886 685.31L169.887 689.218ZM191.916 677.94L293.265 626.296L291.271 622.384L189.922 674.028L191.916 677.94ZM293.265 622.384L191.916 570.74L189.922 574.652L291.271 626.296L293.265 622.384ZM191.919 570.742L169.887 559.461L167.886 563.369L189.919 574.65L191.919 570.742ZM166.691 561.415L166.691 586.092H171.082L171.082 561.415H166.691ZM190.919 434.966H193.114V432.771H190.919V434.966ZM168.887 434.966V432.771H166.691V434.966H168.887ZM292.268 434.966H294.463V432.771H292.268V434.966ZM270.236 434.966V432.771H268.04V434.966H270.236ZM235.689 536.315H233.494V538.51H235.689V536.315ZM235.689 456.998H237.884V454.803H235.689V456.998ZM213.656 456.998V454.803H211.461V456.998H213.656ZM213.656 536.315V538.51H215.852V536.315H213.656ZM193.114 525.034L193.114 434.966H188.724V525.034H193.114ZM190.919 432.771H168.887V437.161H190.919V432.771ZM166.691 434.966V525.034H171.082V434.966H166.691ZM166.691 525.034C166.691 544.593 182.671 560.366 202.2 560.366V555.976C185.066 555.976 171.082 542.138 171.082 525.034H166.691ZM202.2 560.366H258.955V555.976H202.2V560.366ZM258.955 560.366C278.483 560.366 294.463 544.593 294.463 525.034H290.073C290.073 542.138 276.089 555.976 258.955 555.976V560.366ZM294.463 525.034V434.966H290.073V525.034H294.463ZM292.268 432.771H270.236V437.161H292.268V432.771ZM268.04 434.966V525.034H272.431V434.966H268.04ZM268.04 525.034C268.04 529.991 263.912 534.12 258.955 534.12V538.51C266.337 538.51 272.431 532.416 272.431 525.034H268.04ZM258.955 534.12H235.689V538.51H258.955V534.12ZM237.884 536.315L237.884 456.998H233.494L233.494 536.315H237.884ZM235.689 454.803H213.656V459.193H235.689L235.689 454.803ZM211.461 456.998L211.461 536.315H215.852L215.852 456.998H211.461ZM213.656 534.12H202.2V538.51H213.656V534.12ZM202.2 534.12C197.243 534.12 193.114 529.991 193.114 525.034H188.724C188.724 532.416 194.818 538.51 202.2 538.51V534.12ZM168.887 316.025L166.691 316.008L166.674 318.221H168.887V316.025ZM247.498 316.025L249.237 317.366L251.963 313.83H247.498V316.025ZM186.336 395.342L184.598 394.001L184.595 394.005L186.336 395.342ZM169.415 417.374L167.674 416.037L164.961 419.57H169.415V417.374ZM292.444 417.374V419.57H294.64V417.374H292.444ZM292.444 395.342H294.64V393.147H292.444V395.342ZM214.361 395.342L212.623 394.001L209.897 397.537H214.361V395.342ZM275.523 316.025L277.262 317.366L277.264 317.362L275.523 316.025ZM292.444 293.993L294.185 295.33L296.898 291.798H292.444V293.993ZM169.063 293.993V291.798H166.885L166.868 293.975L169.063 293.993ZM168.887 318.221H247.498V313.83H168.887V318.221ZM245.76 314.685L184.598 394.001L188.075 396.682L249.237 317.366L245.76 314.685ZM184.595 394.005L167.674 416.037L171.156 418.711L188.077 396.679L184.595 394.005ZM169.415 419.57H292.444V415.179H169.415V419.57ZM294.64 417.374V395.342H290.249V417.374H294.64ZM292.444 393.147H214.361V397.537H292.444V393.147ZM216.1 396.682L277.262 317.366L273.785 314.685L212.623 394.001L216.1 396.682ZM277.264 317.362L294.185 295.33L290.703 292.656L273.782 314.688L277.264 317.362ZM292.444 291.798H169.063V296.188H292.444V291.798ZM166.868 293.975L166.691 316.008L171.082 316.043L171.258 294.01L166.868 293.975ZM169.063 276.401H166.868V278.597H169.063V276.401ZM191.095 276.401V278.597H193.29V276.401H191.095ZM191.095 225.815V223.62H188.9V225.815H191.095ZM292.444 225.815V228.01H294.64V225.815H292.444ZM292.444 203.783H294.64V201.587H292.444V203.783ZM191.095 203.783H188.9V205.978H191.095V203.783ZM191.095 153.196H193.29V151.001H191.095V153.196ZM169.063 153.196V151.001H166.868V153.196H169.063ZM169.063 278.597H191.095V274.206H169.063V278.597ZM193.29 276.401V225.815H188.9V276.401H193.29ZM191.095 228.01H292.444V223.62H191.095V228.01ZM294.64 225.815V203.783H290.249V225.815H294.64ZM292.444 201.587H191.095V205.978H292.444V201.587ZM193.29 203.783V153.196H188.9V203.783H193.29ZM191.095 151.001H169.063V155.391H191.095V151.001ZM166.868 153.196V276.401H171.258V153.196H166.868ZM202.905 18.7448L205.1 18.7272L205.082 16.5495H202.905V18.7448ZM221.764 129.436L220.586 127.583L220.545 127.609L220.505 127.637L221.764 129.436ZM227.052 125.205L228.604 126.758L228.616 126.746L228.627 126.734L227.052 125.205ZM253.315 113.22V111.024H251.12V113.22H253.315ZM253.315 135.252H251.12V137.447H253.315V135.252ZM228.638 27.5577L227.251 25.8567L227.165 25.9269L227.086 26.0054L228.638 27.5577ZM227.052 28.9678L228.529 30.5921L228.567 30.557L228.604 30.5201L227.052 28.9678ZM203.081 40.7772V42.9724H205.294L205.276 40.7596L203.081 40.7772ZM202.905 16.5495H202.2V20.94H202.905V16.5495ZM202.2 16.5495C182.656 16.5495 166.691 32.5144 166.691 52.0577H171.082C171.082 34.9391 185.081 20.94 202.2 20.94V16.5495ZM166.691 52.0577L166.691 102.115H171.082L171.082 52.0577H166.691ZM166.691 102.115C166.691 121.674 182.671 137.447 202.2 137.447V133.057C185.066 133.057 171.082 119.219 171.082 102.115H166.691ZM202.2 137.447H202.905V133.057H202.2V137.447ZM202.905 137.447C210.398 137.447 217.36 135.198 223.023 131.234L220.505 127.637C215.593 131.076 209.512 133.057 202.905 133.057V137.447ZM222.943 131.288C225.014 129.97 226.902 128.46 228.604 126.758L225.5 123.653C224.03 125.123 222.393 126.434 220.586 127.583L222.943 131.288ZM228.627 126.734C234.828 120.345 238.589 111.694 238.589 102.115H234.199C234.199 110.515 230.909 118.08 225.477 123.676L228.627 126.734ZM238.589 102.115V57.6981H234.199V102.115H238.589ZM238.589 57.6981C238.589 49.539 245.215 42.7961 253.315 42.7961V38.4056C242.731 38.4056 234.199 47.1736 234.199 57.6981H238.589ZM253.315 42.7961C261.415 42.7961 268.04 49.539 268.04 57.6981H272.431C272.431 47.1736 263.898 38.4056 253.315 38.4056V42.7961ZM268.04 57.6981V96.2988H272.431V57.6981H268.04ZM268.04 96.2988C268.04 104.428 261.444 111.024 253.315 111.024V115.415C263.869 115.415 272.431 106.853 272.431 96.2988H268.04ZM251.12 113.22V135.252H255.51V113.22H251.12ZM253.315 137.447C276.031 137.447 294.463 119.015 294.463 96.2988H290.073C290.073 116.59 273.606 133.057 253.315 133.057V137.447ZM294.463 96.2988L294.463 57.6981H290.073L290.073 96.2988H294.463ZM294.463 57.6981C294.463 34.982 276.031 16.5495 253.315 16.5495V20.94C273.606 20.94 290.073 37.4068 290.073 57.6981H294.463ZM253.315 16.5495C243.443 16.5495 234.321 20.0887 227.251 25.8567L230.026 29.2587C236.351 24.0986 244.503 20.94 253.315 20.94V16.5495ZM227.086 26.0054C226.902 26.1892 226.712 26.3493 226.44 26.5763C226.184 26.79 225.845 27.0705 225.5 27.4155L228.604 30.5201C228.788 30.3363 228.978 30.1761 229.251 29.9492C229.507 29.7355 229.846 29.455 230.191 29.11L227.086 26.0054ZM225.575 27.3434C217.383 34.7915 212.166 45.5959 212.166 57.6981H216.557C216.557 46.8864 221.211 37.2448 228.529 30.5921L225.575 27.3434ZM212.166 57.6981V102.115H216.557V57.6981H212.166ZM212.166 102.115C212.166 107.072 208.038 111.201 203.081 111.201V115.591C210.462 115.591 216.557 109.497 216.557 102.115H212.166ZM203.081 111.201H202.376V115.591H203.081V111.201ZM202.376 111.201C197.419 111.201 193.29 107.072 193.29 102.115H188.9C188.9 109.497 194.994 115.591 202.376 115.591V111.201ZM193.29 102.115V52.0577H188.9V102.115H193.29ZM193.29 52.0577C193.29 47.1011 197.419 42.9724 202.376 42.9724V38.5819C194.994 38.5819 188.9 44.6763 188.9 52.0577H193.29ZM202.376 42.9724H203.081V38.5819H202.376V42.9724ZM205.276 40.7596L205.1 18.7272L200.709 18.7623L200.886 40.7947L205.276 40.7596Z" fill="white" fill-opacity="0.1"/>
</svg>
