<svg width="161" height="105" viewBox="0 0 161 105" fill="none" xmlns="http://www.w3.org/2000/svg">
<path d="M31.8083 2.86666V15.2522H9.86543V2.86666H3.77019V37H9.86543V21.3474H31.8083V37H37.9035V2.86666H31.8083ZM72.515 30.9048L58.2277 2.86666L43.9405 30.9048L40.8197 37H47.6464L50.7672 30.9048L58.2277 16.2762L65.6883 30.9048L68.8091 37H75.6357L72.515 30.9048ZM90.8731 8.9619H107.94V2.86666H90.8731C81.462 2.86666 73.8064 10.5223 73.8064 19.9333C73.8064 29.3444 81.462 37 90.8731 37H107.94V30.9048H90.8731C84.8266 30.9048 79.9016 25.9798 79.9016 19.9333C79.9016 13.8869 84.8266 8.9619 90.8731 8.9619ZM146.951 2.86666H137.93L128.422 11.595L123.887 15.7398L118.864 20.3234V2.86666H112.769V37H118.864V28.5642L127.495 20.7135L139.296 37H146.805L132.03 16.5688L146.951 2.86666Z" fill="white"/>
<path d="M27.7598 46.8056C27.3902 46.8056 27.0375 46.8056 26.7015 46.8056C26.3991 46.772 26.0968 46.7216 25.7944 46.6544C23.577 46.5872 21.3932 46.5368 19.243 46.5032C17.0928 46.4696 14.9426 46.4192 12.7924 46.352C12.3221 46.352 11.7845 46.268 11.1798 46.1C10.7095 45.8985 10.4575 45.4953 10.4239 44.8906C10.3903 44.6218 10.4407 44.3866 10.5751 44.185C10.7095 43.9498 10.8774 43.7483 11.079 43.5803C11.5158 43.2779 11.9525 43.0763 12.3893 42.9755C12.8596 42.8748 13.33 42.8076 13.8004 42.774C15.8162 42.5388 17.7984 42.3876 19.747 42.3204C21.7292 42.2532 23.6946 42.2532 25.6432 42.3204C27.5918 42.354 29.5236 42.4212 31.4386 42.522C33.3872 42.5892 35.3359 42.6396 37.2845 42.6732C37.8556 42.7404 38.3092 43.0091 38.6451 43.4795C39.0147 43.9163 39.1659 44.4202 39.0987 44.9913C39.0315 45.6633 38.7627 46.2176 38.2924 46.6544C37.822 47.0575 37.2845 47.2423 36.6797 47.2087C36.6125 47.2087 36.5453 47.2255 36.4781 47.2591C36.4445 47.2591 36.3941 47.2423 36.327 47.2087C35.9238 47.1751 35.4366 47.2087 34.8655 47.3095C34.3279 47.4103 33.8072 47.5783 33.3032 47.8135C32.7993 48.0151 32.3625 48.2838 31.993 48.6198C31.657 48.9222 31.489 49.2581 31.489 49.6277C31.9258 51.9123 32.1274 53.9449 32.0938 55.7255C32.0602 57.4725 31.7914 59.2532 31.2874 61.0674C30.4811 63.6879 29.1709 66.2245 27.3566 68.677C25.576 71.096 23.5434 73.2462 21.2588 75.1276C18.9742 77.009 16.5553 78.5041 14.0019 79.6128C11.4486 80.7551 9.01282 81.3094 6.69464 81.2758C5.18279 81.007 3.97331 80.2847 3.0662 79.1088C2.15909 77.9329 1.52075 76.5051 1.15119 74.8252C0.983202 74.0189 0.949605 73.1958 1.0504 72.3559C1.15119 71.4824 1.33597 70.6256 1.60474 69.7857C1.87351 68.9458 2.19268 68.1395 2.56225 67.3668C2.96541 66.5604 3.38537 65.8381 3.82212 65.1998C5.63635 62.6128 7.68575 60.4794 9.97032 58.7996C12.2549 57.1198 14.6571 55.7423 17.1768 54.6672C18.6215 54.0961 20.0829 53.7769 21.5612 53.7097C23.073 53.6089 24.5009 53.7937 25.8448 54.264C26.08 54.3312 26.3655 54.4824 26.7015 54.7176C27.1047 55.1879 27.0207 55.6079 26.4495 55.9775C26.3151 56.1119 26.1807 56.1959 26.0464 56.2294C25.912 56.263 25.7608 56.3134 25.5928 56.3806C23.8458 56.9854 22.0987 57.6069 20.3517 58.2453C18.6047 58.85 16.9248 59.5891 15.3122 60.4626C13.6996 61.3026 12.1877 62.3273 10.7766 63.5367C9.36558 64.7126 8.10571 66.1741 6.99701 67.9211C6.62745 68.4251 6.25789 68.9962 5.88832 69.6345C5.55236 70.2729 5.24999 70.9448 4.98121 71.6503C4.71244 72.3223 4.51086 73.011 4.37647 73.7165C4.24208 74.3885 4.20849 75.01 4.27568 75.5812C4.30928 76.2531 4.62845 76.6731 5.23319 76.841C5.83793 77.009 6.52666 77.0594 7.29939 76.9922C8.07211 76.8914 8.82804 76.7402 9.56716 76.5387C10.3399 76.3035 10.911 76.1355 11.2806 76.0347C13.498 75.1948 15.6986 74.0021 17.8824 72.4567C20.0661 70.8776 21.9812 69.0802 23.6274 67.0644C25.2736 65.015 26.5335 62.764 27.407 60.3114C28.2805 57.8589 28.5325 55.3223 28.163 52.7018C28.1294 52.3322 28.0286 52.0131 27.8606 51.7443C27.6926 51.4419 27.5246 51.1731 27.3566 50.938C26.8863 50.3668 26.6679 49.7453 26.7015 49.0733C26.7687 48.3678 27.0711 47.6791 27.6086 47.0071C27.6086 47.0071 27.659 46.94 27.7598 46.8056ZM37.3498 53.3569C37.1482 53.4577 36.8795 53.4241 36.5435 53.2561C36.2075 53.0882 35.8716 52.8362 35.5356 52.5002C35.2332 52.1642 34.9812 51.7947 34.7797 51.3915C34.5781 50.9548 34.5109 50.5516 34.5781 50.182C34.8133 48.8382 35.3508 47.6623 36.1907 46.6544C37.0642 45.6129 38.0385 44.7394 39.1136 44.0338C40.2223 43.3283 41.331 42.774 42.4397 42.3708C43.582 41.934 44.5227 41.6653 45.2618 41.5645C45.9674 41.4301 46.5889 41.4469 47.1265 41.6149C47.664 41.7829 48.1008 42.0684 48.4367 42.4716C48.7727 42.8412 48.9911 43.2947 49.0919 43.8323C49.1927 44.3362 49.1759 44.857 49.0415 45.3945C48.9407 46.2008 48.5375 47.3935 47.832 48.9726C47.1601 50.518 46.3201 52.2818 45.3122 54.264C44.3379 56.2127 43.3132 58.2621 42.2381 60.4122C41.163 62.5624 40.1887 64.6118 39.3152 66.5604C38.4753 68.4755 37.8202 70.1889 37.3498 71.7007C36.8795 73.2126 36.7955 74.3213 37.0978 75.0268C37.2322 75.3292 37.417 75.4132 37.6522 75.2788C37.8874 75.1444 38.1561 75.01 38.4585 74.8756C39.8024 74.3045 41.2134 73.2294 42.6917 71.6503C44.2035 70.0377 45.7154 68.1731 47.2272 66.0565C48.7391 63.9063 50.2342 61.6217 51.7124 59.2028C53.1907 56.7502 54.5681 54.3984 55.8448 52.1474C57.1551 49.8629 58.331 47.7967 59.3725 45.9489C60.4476 44.101 61.3211 42.69 61.993 41.7157C62.4298 41.2117 62.9001 40.9933 63.4041 41.0605C63.908 41.1277 64.3448 41.3797 64.7143 41.8165C65.0839 42.2196 65.3359 42.7404 65.4703 43.3787C65.6047 43.9834 65.5207 44.5882 65.2183 45.1929C64.5128 46.4696 63.824 47.7463 63.1521 49.023C62.4802 50.266 61.8922 51.5427 61.3883 52.853C60.6491 54.8016 59.9436 56.851 59.2717 59.0012C58.6333 61.1178 58.079 63.2848 57.6086 65.5021C57.1383 67.6859 56.7855 69.8865 56.5503 72.1039C56.3488 74.2877 56.332 76.4043 56.4999 78.4537C56.5671 79.6296 56.4496 80.3519 56.1472 80.6207C55.8784 80.8894 55.3577 80.6375 54.5849 79.8647C53.8794 79.1592 53.3419 78.3865 52.9723 77.5466C52.6363 76.6731 52.4179 75.7659 52.3172 74.8252C52.2164 73.8509 52.2164 72.843 52.3172 71.8015C52.4179 70.76 52.5691 69.6849 52.7707 68.5762C53.1403 66.5268 53.577 64.511 54.081 62.5288C54.6185 60.5466 55.1561 58.5308 55.6936 56.4814C55.3577 57.0862 54.8873 58.0269 54.2826 59.3035C53.6778 60.5466 52.9555 61.9409 52.1156 63.4863C51.3093 65.0318 50.4021 66.6444 49.3942 68.3243C48.3863 70.0041 47.3112 71.5496 46.169 72.9606C45.0267 74.3717 43.834 75.5812 42.5909 76.5891C41.3814 77.5634 40.1383 78.1513 38.8617 78.3529C38.1225 78.5545 37.4338 78.4033 36.7955 77.8993C36.1571 77.429 35.6028 76.8242 35.1324 76.0851C34.6957 75.346 34.3597 74.5565 34.1245 73.7165C33.9229 72.8766 33.8726 72.2047 33.9733 71.7007C34.4101 69.5841 34.9812 67.3836 35.6868 65.099C36.3923 62.8144 37.1818 60.5634 38.0553 58.346C38.9625 56.0951 39.92 53.9113 40.9279 51.7947C41.9358 49.6445 42.9605 47.6623 44.002 45.8481C43.1956 46.352 42.4733 46.856 41.835 47.3599C41.2302 47.8303 40.6591 48.351 40.1215 48.9222C39.6176 49.4597 39.1304 50.098 38.6601 50.8372C38.2233 51.5427 37.7866 52.3826 37.3498 53.3569ZM72.3047 73.0614C72.2039 73.0614 72.1535 73.0278 72.1535 72.9606C71.6496 72.4567 71.3304 71.8351 71.196 71.096C71.0952 70.3569 71.0952 69.5673 71.196 68.7274C71.3304 67.8875 71.5488 67.0308 71.8512 66.1573C72.1535 65.2838 72.4559 64.4606 72.7583 63.6879C73.9677 60.7314 75.1436 57.7077 76.2859 54.6168C77.4282 51.5259 78.4529 48.6534 79.36 45.9992C77.8482 46.3688 76.4203 46.856 75.0764 47.4607C73.7326 48.0654 72.5735 48.9054 71.5992 49.9805C71.364 50.2156 71.0616 50.5516 70.6921 50.9884C70.3561 51.4251 70.0369 51.8955 69.7346 52.3994C69.4322 52.8698 69.1802 53.3569 68.9786 53.8609C68.8107 54.3312 68.7603 54.7176 68.8274 55.02C68.7603 55.3223 68.5923 55.3895 68.3235 55.2215C68.0883 55.0536 67.8363 54.768 67.5676 54.3648C67.2988 53.9617 67.0636 53.5081 66.862 53.0042C66.6941 52.4666 66.6605 51.9795 66.7613 51.5427C67.1308 49.9637 67.7692 48.6198 68.6763 47.5111C69.617 46.3688 70.7089 45.4113 71.9519 44.6386C73.195 43.8659 74.5221 43.2611 75.9332 42.8244C77.3442 42.3876 78.7217 42.0684 80.0656 41.8669C81.1406 41.6653 82.3333 41.5309 83.6436 41.4637C84.9875 41.3965 86.3145 41.4301 87.6248 41.5645C88.9687 41.6989 90.2286 41.9676 91.4044 42.3708C92.6139 42.7404 93.6386 43.2779 94.4785 43.9834C96.3264 45.1593 97.603 46.6376 98.3086 48.4182C99.0141 50.1652 99.2829 52.0131 99.1149 53.9617C98.6109 56.1455 97.7038 58.2956 96.3936 60.4122C95.1169 62.4952 93.6218 64.4438 91.9084 66.2581C90.195 68.0723 88.3471 69.7185 86.3649 71.1968C84.3827 72.6414 82.4677 73.8341 80.6199 74.7748C80.3847 74.9428 80.1327 75.094 79.864 75.2284C79.6288 75.3292 79.36 75.4636 79.0577 75.6316C77.5794 76.3371 76.1851 76.8914 74.8749 77.2946C73.5646 77.6642 72.2543 77.8993 70.944 78.0001C69.6674 78.1345 68.3571 78.1177 67.0132 77.9497C65.6694 77.7817 64.2415 77.4626 62.7296 76.9922C62.3601 76.7906 62.1753 76.6227 62.1753 76.4883C62.1753 76.3539 62.3433 76.1691 62.6792 75.9339C63.0152 75.7659 63.3512 75.6316 63.6872 75.5308C64.0231 75.43 64.3591 75.3628 64.6951 75.3292C66.0053 74.9596 67.2988 74.6573 68.5755 74.4221C69.8857 74.1533 71.1288 73.7501 72.3047 73.2126V73.0614ZM73.4134 72.7086C73.9174 72.675 74.5053 72.5239 75.1772 72.2551C75.8492 71.9863 76.5379 71.6671 77.2434 71.2976C77.949 70.928 78.6209 70.5585 79.2592 70.1889C79.8976 69.7857 80.4183 69.4498 80.8215 69.181C83.6772 67.1652 86.3313 64.9646 88.7839 62.5792C91.2701 60.1603 93.2523 57.3885 94.7305 54.264C94.9321 53.8273 95.1169 53.3905 95.2849 52.9538C95.4529 52.4834 95.5704 52.0131 95.6376 51.5427C95.8056 50.5012 95.7216 49.6277 95.3857 48.9222C95.0497 48.183 94.5625 47.5783 93.9242 47.1079C93.2859 46.604 92.5299 46.2176 91.6564 45.9489C90.7829 45.6801 89.8926 45.4953 88.9855 45.3945C88.0784 45.2601 87.1881 45.2097 86.3145 45.2433C85.4746 45.2433 84.7523 45.2769 84.1476 45.3441C84.0468 45.3441 83.9964 45.4617 83.9964 45.6969V46.3016C82.5853 50.9044 81.0399 55.4231 79.36 59.8579C77.7138 64.2591 75.7316 68.5426 73.4134 72.7086ZM113.636 69.3322C115.181 68.1899 116.575 67.1148 117.819 66.1069C119.095 65.099 120.389 63.9399 121.699 62.6296L121.85 62.4784C120.977 62.6128 120.086 62.764 119.179 62.932C118.306 63.1 117.432 63.2512 116.559 63.3856C116.29 63.4191 115.971 63.4023 115.601 63.3352C115.265 63.2344 114.929 63.0664 114.593 62.8312C114.257 62.596 113.972 62.2937 113.737 61.9241C113.501 61.5545 113.367 61.0842 113.333 60.513C113.333 60.1435 113.417 59.9083 113.585 59.8075C113.753 59.7067 114.022 59.6563 114.392 59.6563C115.736 59.7235 117.063 59.6731 118.373 59.5051C119.717 59.3035 121.027 59.0684 122.304 58.7996C122.673 58.7324 123.144 58.6316 123.715 58.4972C124.286 58.3292 124.857 58.1781 125.428 58.0437C126.033 57.9093 126.587 57.8085 127.091 57.7413C127.629 57.6405 128.049 57.6069 128.351 57.6405C128.855 57.7077 129.107 57.9933 129.107 58.4972C129.107 58.9676 129.073 59.4883 129.006 60.0595C129.006 60.2947 128.956 60.513 128.855 60.7146C128.788 60.9162 128.704 61.101 128.603 61.269C127.394 62.512 126.369 63.6879 125.529 64.7966C124.723 65.9053 123.984 67.098 123.312 68.3747C122.673 69.6513 122.052 71.0792 121.447 72.6582C120.842 74.2373 120.154 76.1019 119.381 78.2521C119.314 78.4201 119.246 78.6049 119.179 78.8064C119.146 79.0416 119.078 79.2432 118.978 79.4112C118.877 79.5792 118.742 79.68 118.574 79.7136C118.44 79.7808 118.289 79.7975 118.121 79.764C117.987 79.764 117.852 79.7136 117.718 79.6128C117.583 79.512 117.499 79.3944 117.466 79.26C117.063 78.0505 116.844 76.8914 116.811 75.7827C116.811 74.674 116.861 73.5318 116.962 72.3559C114.509 73.9349 112.258 74.9428 110.209 75.3796C108.159 75.8163 106.177 75.598 104.262 74.7244C102.851 73.9853 101.709 72.8766 100.835 71.3984C100.096 70.2225 99.6427 68.9794 99.4747 67.6691C99.2732 66.3253 99.2228 64.9982 99.3236 63.6879C99.5251 61.5041 100.163 59.5051 101.239 57.6909C102.314 55.8767 103.456 54.18 104.665 52.601C106.547 50.5852 108.479 48.7542 110.461 47.1079C112.477 45.4281 114.644 43.9666 116.962 42.7236C118.138 42.1188 119.364 41.6485 120.641 41.3125C120.842 41.2453 121.044 41.1277 121.245 40.9597C121.447 40.7582 121.665 40.5734 121.901 40.4054C122.371 40.0022 122.875 39.8846 123.412 40.0526C123.984 40.2206 124.42 40.5398 124.723 41.0101C125.059 41.4469 125.059 41.9676 124.723 42.5724C124.084 43.8827 123.412 45.2433 122.707 46.6544C122.035 48.0318 121.363 49.3757 120.691 50.686C120.523 51.0891 120.322 51.5259 120.086 51.9963C119.885 52.433 119.683 52.8026 119.482 53.105C119.112 53.4745 118.776 53.5081 118.474 53.2057C118.171 52.9034 117.953 52.5506 117.819 52.1474C117.651 51.8115 117.533 51.4083 117.466 50.938C117.399 50.4676 117.365 49.9973 117.365 49.5269C117.365 49.023 117.399 48.5526 117.466 48.1158C117.567 47.6455 117.701 47.2423 117.869 46.9064C115.685 48.4518 113.602 50.098 111.62 51.8451C109.671 53.5585 108.008 55.3895 106.631 57.3381C105.287 59.2868 104.346 61.3362 103.809 63.4863C103.271 65.6365 103.338 67.9043 104.01 70.2897C104.346 71.1968 104.917 71.7343 105.724 71.9023C106.564 72.0703 107.454 72.0367 108.395 71.8015C109.369 71.5664 110.326 71.2136 111.267 70.7432C112.208 70.2393 112.997 69.7689 113.636 69.3322ZM133.446 77.8993C132.976 77.7314 132.539 77.5298 132.136 77.2946C131.733 77.0258 131.38 76.7067 131.078 76.3371C130.607 75.9339 130.254 75.4972 130.019 75.0268C129.784 74.5229 129.549 74.0357 129.314 73.5654C129.112 72.9942 128.995 72.4231 128.961 71.8519C128.927 71.2808 128.944 70.6928 129.011 70.0881C129.112 69.4162 129.28 68.7778 129.515 68.1731C129.751 67.5683 130.019 66.9804 130.322 66.4093C131.128 65.0654 132.119 63.8727 133.295 62.8312C134.504 61.7561 135.764 60.849 137.075 60.1099C137.142 60.0427 137.192 60.0091 137.226 60.0091C137.259 59.9755 137.31 59.9251 137.377 59.8579C137.175 59.6899 136.991 59.5387 136.823 59.4043C136.688 59.27 136.537 59.1188 136.369 58.9508C136.369 58.8836 136.335 58.8332 136.268 58.7996C136.235 58.7324 136.184 58.6652 136.117 58.598C135.748 57.9933 135.546 57.3717 135.512 56.7334C135.512 56.0615 135.63 55.3895 135.865 54.7176C136.268 53.5417 136.873 52.3826 137.679 51.2403C138.519 50.098 139.477 49.0062 140.552 47.9647C141.661 46.8896 142.836 45.8985 144.08 44.9913C145.356 44.0842 146.616 43.2947 147.859 42.6228C149.136 41.9172 150.362 41.3461 151.538 40.9093C152.747 40.4726 153.823 40.2206 154.763 40.1534C155.838 40.0526 156.745 40.2374 157.485 40.7078C157.955 40.9429 158.392 41.2285 158.795 41.5645C159.198 41.8669 159.366 42.3036 159.299 42.8748C159.03 44.5882 158.845 46.268 158.744 47.9143C158.644 49.5269 158.593 51.1731 158.593 52.853C158.526 53.0546 158.492 53.2393 158.492 53.4073C158.492 53.5753 158.375 53.6929 158.14 53.7601C157.636 53.9281 157.149 53.7769 156.678 53.3065C156.006 52.6682 155.519 51.9963 155.217 51.2907C154.914 50.5516 154.73 49.8125 154.662 49.0733C154.595 48.3006 154.629 47.5279 154.763 46.7552C154.898 45.9824 155.082 45.2097 155.318 44.437C155.25 44.269 154.914 44.2354 154.31 44.3362C153.537 44.4706 152.663 44.7562 151.689 45.1929C150.748 45.6297 149.741 46.1672 148.665 46.8056C147.624 47.4103 146.582 48.099 145.541 48.8718C144.533 49.6109 143.576 50.3836 142.668 51.1899C141.795 51.9627 141.022 52.7522 140.35 53.5585C139.712 54.3312 139.258 55.0368 138.99 55.6751C138.788 56.1455 138.754 56.5486 138.889 56.8846C139.057 57.2206 139.51 57.3885 140.249 57.3885C140.955 57.3885 141.661 57.3213 142.366 57.187C143.072 57.019 143.844 56.7838 144.684 56.4814C145.558 56.1791 146.532 55.7927 147.607 55.3223C148.716 54.852 150.009 54.2808 151.488 53.6089C151.992 53.4745 152.26 53.5753 152.294 53.9113C152.361 54.2472 152.327 54.6504 152.193 55.1208C152.059 55.5575 151.874 55.9943 151.639 56.431C151.404 56.8342 151.236 57.0862 151.135 57.187C150.597 57.6237 149.976 58.0269 149.27 58.3964C148.565 58.7324 147.826 59.0684 147.053 59.4043C146.314 59.7403 145.575 60.0931 144.835 60.4626C144.13 60.7986 143.492 61.1682 142.92 61.5713C142.349 61.9745 141.661 62.4616 140.854 63.0328C140.048 63.6039 139.208 64.2255 138.334 64.8974C137.495 65.5693 136.671 66.2917 135.865 67.0644C135.092 67.8371 134.437 68.6266 133.9 69.433C133.362 70.2057 133.009 70.9952 132.841 71.8015C132.707 72.5743 132.841 73.3302 133.245 74.0693C133.48 74.5061 133.883 74.7916 134.454 74.926C135.059 75.0604 135.748 75.094 136.52 75.0268C137.293 74.926 138.133 74.758 139.04 74.5229C139.981 74.2541 140.921 73.9349 141.862 73.5654C144.382 72.5911 146.717 71.5496 148.867 70.4409C151.051 69.2986 153.1 68.0387 155.015 66.6612C155.351 66.4261 155.654 66.1741 155.922 65.9053C155.99 65.8045 156.074 65.8381 156.174 66.0061C156.275 66.1741 156.359 66.4093 156.426 66.7116C156.493 66.9804 156.544 67.2996 156.577 67.6691C156.645 68.0051 156.678 68.3411 156.678 68.677C156.577 69.8193 156.107 70.8272 155.267 71.7007C154.427 72.5743 153.403 73.347 152.193 74.0189C150.782 74.8252 149.304 75.5644 147.758 76.2363C146.213 76.8746 144.634 77.3954 143.021 77.7985C141.442 78.2017 139.83 78.4201 138.183 78.4537C136.571 78.5209 134.992 78.3361 133.446 77.8993Z" fill="white"/>
</svg>
