<svg width="157" height="141" viewBox="0 0 157 141" fill="none" xmlns="http://www.w3.org/2000/svg">
<path d="M99.9063 54.8333C107.473 54.8333 113.615 60.9747 113.615 68.5417V105.742C113.615 115.093 109.9 124.061 103.288 130.673C96.6758 137.285 87.7078 141 78.3568 141C69.0059 141 60.0379 137.285 53.4258 130.673C46.8137 124.061 43.099 115.093 43.099 105.742V68.5417C43.099 60.9747 49.2325 54.8333 56.8073 54.8333H99.9063ZM40.1928 54.8333C37.4512 58.139 35.6887 62.275 35.3362 66.8183L35.2578 68.5417V105.742C35.2578 112.377 36.7618 118.659 39.4408 124.268C34.7979 125.51 29.9314 125.668 25.2178 124.729C20.5042 123.79 16.0697 121.779 12.2572 118.853C8.44469 115.926 5.35635 112.162 3.23096 107.851C1.10558 103.54 9.63482e-05 98.7984 0 93.9922V68.5417C0.000128503 65.1013 1.29384 61.7868 3.62433 59.2561C5.95481 56.7254 9.15168 55.1634 12.5803 54.8803L13.7083 54.8333H40.1928ZM116.521 54.8333H142.958C150.525 54.8333 156.667 60.9747 156.667 68.5417V94C156.668 98.8031 155.565 103.542 153.442 107.851C151.32 112.16 148.236 115.923 144.428 118.85C140.619 121.777 136.189 123.789 131.479 124.732C126.77 125.674 121.906 125.52 117.265 124.284C119.615 119.364 121.056 113.944 121.378 108.21L121.448 105.742V68.5417C121.448 63.3325 119.599 58.5542 116.513 54.8333H116.521ZM78.3333 0C84.5659 0 90.5432 2.47589 94.9503 6.88299C99.3575 11.2901 101.833 17.2674 101.833 23.5C101.833 29.7326 99.3575 35.7099 94.9503 40.117C90.5432 44.5241 84.5659 47 78.3333 47C72.1007 47 66.1234 44.5241 61.7163 40.117C57.3092 35.7099 54.8333 29.7326 54.8333 23.5C54.8333 17.2674 57.3092 11.2901 61.7163 6.88299C66.1234 2.47589 72.1007 0 78.3333 0ZM129.25 7.83333C134.444 7.83333 139.425 9.89657 143.098 13.5692C146.77 17.2417 148.833 22.2228 148.833 27.4167C148.833 32.6105 146.77 37.5916 143.098 41.2642C139.425 44.9368 134.444 47 129.25 47C124.056 47 119.075 44.9368 115.402 41.2642C111.73 37.5916 109.667 32.6105 109.667 27.4167C109.667 22.2228 111.73 17.2417 115.402 13.5692C119.075 9.89657 124.056 7.83333 129.25 7.83333ZM27.4167 7.83333C32.6105 7.83333 37.5916 9.89657 41.2642 13.5692C44.9368 17.2417 47 22.2228 47 27.4167C47 32.6105 44.9368 37.5916 41.2642 41.2642C37.5916 44.9368 32.6105 47 27.4167 47C22.2228 47 17.2417 44.9368 13.5692 41.2642C9.89657 37.5916 7.83333 32.6105 7.83333 27.4167C7.83333 22.2228 9.89657 17.2417 13.5692 13.5692C17.2417 9.89657 22.2228 7.83333 27.4167 7.83333Z" fill="#335677"/>
</svg>
